<?xml version="1.0" standalone="no"?>
<!DOCTYPE svg PUBLIC "-//W3C//DTD SVG 20010904//EN"
 "http://www.w3.org/TR/2001/REC-SVG-20010904/DTD/svg10.dtd">
<svg version="1.0" xmlns="http://www.w3.org/2000/svg"
 width="700.000000pt" height="700.000000pt" viewBox="0 0 700.000000 700.000000"
 preserveAspectRatio="xMidYMid meet">
<metadata>
Created by potrace 1.11, written by Peter Selinger 2001-2013
</metadata>
<g transform="translate(0.000000,700.000000) scale(0.100000,-0.100000)"
fill="#000000" stroke="none">
<path d="M0 3500 l0 -3500 3500 0 3500 0 0 3500 0 3500 -3500 0 -3500 0 0
-3500z m2806 955 c1 -407 2 -746 3 -753 0 -7 24 14 53 45 29 32 61 67 73 79
30 31 279 294 310 329 15 17 64 68 109 115 83 88 321 340 396 420 131 140 307
326 387 409 l91 96 494 -2 c271 0 494 -1 496 -2 1 -1 -166 -170 -370 -377
-735 -741 -1038 -1049 -1038 -1057 0 -8 53 -89 73 -112 8 -9 309 -434 376
-530 15 -22 66 -94 113 -160 299 -422 432 -610 481 -680 31 -44 60 -84 65 -90
4 -5 39 -55 77 -110 38 -55 73 -104 78 -110 22 -27 270 -381 274 -392 4 -10
-10 -13 -53 -13 -304 -2 -937 0 -939 2 -4 5 -809 1209 -948 1418 -72 107 -134
199 -138 203 -3 5 -110 -95 -235 -223 l-229 -231 0 -579 c0 -318 -3 -581 -7
-585 -8 -8 -778 -8 -787 0 -3 3 -5 819 -6 1813 0 1407 3 1808 12 1812 7 3 187
5 400 5 l388 -1 1 -739z"/>
</g>
</svg>
