<svg viewBox="0 0 704 531" fill="none" xmlns="http://www.w3.org/2000/svg"><g opacity=".5" filter="url(#filter0_d)"><g clip-path="url(#clip0)"><rect x="65.44" y="117.22" width="320" height="294" rx="24" fill="#fff"/><path d="M94.74 147.45v.03a2.6 2.6 0 002.68 2.69h10.15a2.6 2.6 0 002.68-2.69v-.03a2.6 2.6 0 00-2.68-2.69H97.42a2.6 2.6 0 00-2.68 2.69zm10.1 0v.03a2.6 2.6 0 002.69 2.69h10.15a2.6 2.6 0 002.68-2.69v-.03a2.6 2.6 0 00-2.68-2.69h-10.16a2.6 2.6 0 00-2.68 2.69zm10.11 0v.03a2.6 2.6 0 002.68 2.69h10.15a2.6 2.6 0 002.69-2.69v-.03a2.6 2.6 0 00-2.69-2.69h-10.15a2.6 2.6 0 00-2.68 2.69zm10.1 0v.03a2.6 2.6 0 002.69 2.69h5.18a2.6 2.6 0 002.69-2.69v-.03a2.6 2.6 0 00-2.69-2.69h-5.18a2.6 2.6 0 00-2.68 2.69zm5.16 0v.03a2.6 2.6 0 002.68 2.69h10.15a2.6 2.6 0 002.68-2.69v-.03a2.6 2.6 0 00-2.68-2.69H132.9a2.6 2.6 0 00-2.68 2.69zm10.1 0v.03a2.6 2.6 0 002.69 2.69h10.15a2.6 2.6 0 002.68-2.69v-.03a2.6 2.6 0 00-2.68-2.69H143a2.6 2.6 0 00-2.68 2.69zm10.11 0v.03a2.6 2.6 0 002.69 2.69h5.18a2.6 2.6 0 002.68-2.69v-.03a2.6 2.6 0 00-2.68-2.69h-5.19a2.6 2.6 0 00-2.68 2.69zm15.95 0v.03a2.6 2.6 0 002.68 2.69h5.18a2.6 2.6 0 002.68-2.69v-.03a2.6 2.6 0 00-2.68-2.69h-5.18a2.6 2.6 0 00-2.68 2.69zm5.15 0v.03a2.6 2.6 0 002.68 2.69h10.15a2.6 2.6 0 002.68-2.69v-.03a2.6 2.6 0 00-2.68-2.69H174.2a2.6 2.6 0 00-2.68 2.69zm10.1 0v.03a2.6 2.6 0 002.69 2.69h10.15a2.6 2.6 0 002.68-2.69v-.03a2.6 2.6 0 00-2.68-2.69H184.3a2.6 2.6 0 00-2.69 2.69zm10.11 0v.03a2.6 2.6 0 002.68 2.69h10.16a2.6 2.6 0 002.68-2.69v-.03a2.6 2.6 0 00-2.68-2.69H194.4a2.6 2.6 0 00-2.68 2.69zM94.74 170.45v.03a2.6 2.6 0 002.68 2.69h10.15a2.6 2.6 0 002.68-2.69v-.03a2.6 2.6 0 00-2.68-2.69H97.42a2.6 2.6 0 00-2.68 2.69zm10.1 0v.03a2.6 2.6 0 002.69 2.69h10.15a2.6 2.6 0 002.68-2.69v-.03a2.6 2.6 0 00-2.68-2.69h-10.16a2.6 2.6 0 00-2.68 2.69zm10.11 0v.03a2.6 2.6 0 002.68 2.69h10.15a2.6 2.6 0 002.69-2.69v-.03a2.6 2.6 0 00-2.69-2.69h-10.15a2.6 2.6 0 00-2.68 2.69zm10.1 0v.03a2.6 2.6 0 002.69 2.69h5.18a2.6 2.6 0 002.69-2.69v-.03a2.6 2.6 0 00-2.69-2.69h-5.18a2.6 2.6 0 00-2.68 2.69zm5.16 0v.03a2.6 2.6 0 002.68 2.69h10.15a2.6 2.6 0 002.68-2.69v-.03a2.6 2.6 0 00-2.68-2.69H132.9a2.6 2.6 0 00-2.68 2.69zm20.9 0v.03a2.6 2.6 0 002.68 2.69h5.19a2.6 2.6 0 002.68-2.69v-.03a2.6 2.6 0 00-2.69-2.69h-5.18a2.6 2.6 0 00-2.68 2.69zm5.15 0v.03a2.6 2.6 0 002.68 2.69h5.19a2.6 2.6 0 002.68-2.69v-.03a2.6 2.6 0 00-2.69-2.69h-5.18a2.6 2.6 0 00-2.68 2.69zm5.15 0v.03a2.6 2.6 0 002.68 2.69h10.15a2.6 2.6 0 002.69-2.69v-.03a2.6 2.6 0 00-2.69-2.69H164.1a2.6 2.6 0 00-2.68 2.69zm10.1 0v.03a2.6 2.6 0 002.69 2.69h10.15a2.6 2.6 0 002.68-2.69v-.03a2.6 2.6 0 00-2.68-2.69H174.2a2.6 2.6 0 00-2.68 2.69z" fill="#E2E8F0"/><path d="M97.44 200.22h256" stroke="#E2E5E9"/><path d="M94.74 233.45v.03a2.6 2.6 0 002.68 2.69h10.15a2.6 2.6 0 002.68-2.69v-.03a2.6 2.6 0 00-2.68-2.69H97.42a2.6 2.6 0 00-2.68 2.69zm10.1 0v.03a2.6 2.6 0 002.69 2.69h5.18a2.6 2.6 0 002.68-2.69v-.03a2.6 2.6 0 00-2.68-2.69h-5.18a2.6 2.6 0 00-2.69 2.69zm5.15 0v.03a2.6 2.6 0 002.69 2.69h10.15a2.6 2.6 0 002.68-2.69v-.03a2.6 2.6 0 00-2.68-2.69h-10.16a2.6 2.6 0 00-2.68 2.69zm10.11 0v.03a2.6 2.6 0 002.68 2.69h10.16a2.6 2.6 0 002.68-2.69v-.03a2.6 2.6 0 00-2.69-2.69h-10.15a2.6 2.6 0 00-2.68 2.69zm10.1 0v.03a2.6 2.6 0 002.69 2.69h5.18a2.6 2.6 0 002.69-2.69v-.03a2.6 2.6 0 00-2.69-2.69h-5.18a2.6 2.6 0 00-2.68 2.69zm5.16 0v.03a2.6 2.6 0 002.68 2.69h10.15a2.6 2.6 0 002.69-2.69v-.03a2.6 2.6 0 00-2.69-2.69h-10.15a2.6 2.6 0 00-2.68 2.69zm10.1 0v.03a2.6 2.6 0 002.69 2.69h10.15a2.6 2.6 0 002.68-2.69v-.03a2.6 2.6 0 00-2.68-2.69h-10.15a2.6 2.6 0 00-2.68 2.69zm20.9 0v.03a2.6 2.6 0 002.69 2.69h10.15a2.6 2.6 0 002.68-2.69v-.03a2.6 2.6 0 00-2.68-2.69h-10.15a2.6 2.6 0 00-2.68 2.69zm10.11 0v.03a2.6 2.6 0 002.69 2.69h10.15a2.6 2.6 0 002.68-2.69v-.03a2.6 2.6 0 00-2.68-2.69h-10.15a2.6 2.6 0 00-2.69 2.69zM94.74 256.45v.03a2.6 2.6 0 002.68 2.69h5.18a2.6 2.6 0 002.68-2.69v-.03a2.6 2.6 0 00-2.68-2.69h-5.18a2.6 2.6 0 00-2.68 2.69zm5.15 0v.03a2.6 2.6 0 002.68 2.69h5.18a2.6 2.6 0 002.68-2.69v-.03a2.6 2.6 0 00-2.68-2.69h-5.18a2.6 2.6 0 00-2.68 2.69zm5.15 0v.03a2.6 2.6 0 002.68 2.69h10.15a2.6 2.6 0 002.68-2.69v-.03a2.6 2.6 0 00-2.68-2.69h-10.15a2.6 2.6 0 00-2.68 2.69zm20.9 0v.03a2.6 2.6 0 002.68 2.69h10.15a2.6 2.6 0 002.68-2.69v-.03a2.6 2.6 0 00-2.68-2.69h-10.15a2.6 2.6 0 00-2.68 2.69zm10.1 0v.03a2.6 2.6 0 002.69 2.69h5.18a2.6 2.6 0 002.68-2.69v-.03a2.6 2.6 0 00-2.68-2.69h-5.18a2.6 2.6 0 00-2.69 2.69zm5.16 0v.03a2.6 2.6 0 002.68 2.69h5.18a2.6 2.6 0 002.68-2.69v-.03a2.6 2.6 0 00-2.68-2.69h-5.18a2.6 2.6 0 00-2.69 2.69zm5.15 0v.03a2.6 2.6 0 002.68 2.69h10.15a2.6 2.6 0 002.68-2.69v-.03a2.6 2.6 0 00-2.68-2.69h-10.15a2.6 2.6 0 00-2.69 2.69zm10.1 0v.03a2.6 2.6 0 002.68 2.69h10.16a2.6 2.6 0 002.68-2.69v-.03a2.6 2.6 0 00-2.68-2.69h-10.16a2.6 2.6 0 00-2.68 2.69zm10.11 0v.03a2.6 2.6 0 002.68 2.69h10.15a2.6 2.6 0 002.69-2.69v-.03a2.6 2.6 0 00-2.69-2.69h-10.15a2.6 2.6 0 00-2.68 2.69zM94.74 295.45v.03a2.6 2.6 0 002.68 2.69h10.15a2.6 2.6 0 002.68-2.69v-.03a2.6 2.6 0 00-2.68-2.69H97.42a2.6 2.6 0 00-2.68 2.69zm10.1 0v.03a2.6 2.6 0 002.69 2.69h5.18a2.6 2.6 0 002.68-2.69v-.03a2.6 2.6 0 00-2.68-2.69h-5.18a2.6 2.6 0 00-2.69 2.69zm5.15 0v.03a2.6 2.6 0 002.69 2.69h10.15a2.6 2.6 0 002.68-2.69v-.03a2.6 2.6 0 00-2.68-2.69h-10.16a2.6 2.6 0 00-2.68 2.69zm10.11 0v.03a2.6 2.6 0 002.68 2.69h10.16a2.6 2.6 0 002.68-2.69v-.03a2.6 2.6 0 00-2.69-2.69h-10.15a2.6 2.6 0 00-2.68 2.69zm10.1 0v.03a2.6 2.6 0 002.69 2.69h5.18a2.6 2.6 0 002.69-2.69v-.03a2.6 2.6 0 00-2.69-2.69h-5.18a2.6 2.6 0 00-2.68 2.69zm5.16 0v.03a2.6 2.6 0 002.68 2.69h10.15a2.6 2.6 0 002.69-2.69v-.03a2.6 2.6 0 00-2.69-2.69h-10.15a2.6 2.6 0 00-2.68 2.69zm10.1 0v.03a2.6 2.6 0 002.69 2.69h10.15a2.6 2.6 0 002.68-2.69v-.03a2.6 2.6 0 00-2.68-2.69h-10.15a2.6 2.6 0 00-2.68 2.69zm20.9 0v.03a2.6 2.6 0 002.69 2.69h10.15a2.6 2.6 0 002.68-2.69v-.03a2.6 2.6 0 00-2.68-2.69h-10.15a2.6 2.6 0 00-2.68 2.69zm10.11 0v.03a2.6 2.6 0 002.69 2.69h10.15a2.6 2.6 0 002.68-2.69v-.03a2.6 2.6 0 00-2.68-2.69h-10.15a2.6 2.6 0 00-2.69 2.69zM94.74 318.45v.03a2.6 2.6 0 002.68 2.69h10.15a2.6 2.6 0 002.68-2.69v-.03a2.6 2.6 0 00-2.68-2.69H97.42a2.6 2.6 0 00-2.68 2.69zm20.9 0v.03a2.6 2.6 0 002.68 2.69h5.18a2.6 2.6 0 002.68-2.69v-.03a2.6 2.6 0 00-2.68-2.69h-5.18a2.6 2.6 0 00-2.68 2.69zm5.15 0v.03a2.6 2.6 0 002.68 2.69h10.15a2.6 2.6 0 002.68-2.69v-.03a2.6 2.6 0 00-2.68-2.69h-10.15a2.6 2.6 0 00-2.68 2.69zm10.1 0v.03a2.6 2.6 0 002.69 2.69h10.15a2.6 2.6 0 002.68-2.69v-.03a2.6 2.6 0 00-2.68-2.69h-10.15a2.6 2.6 0 00-2.69 2.69zm20.9 0v.03a2.6 2.6 0 002.69 2.69h10.15a2.6 2.6 0 002.68-2.69v-.03a2.6 2.6 0 00-2.68-2.69h-10.15a2.6 2.6 0 00-2.69 2.69zm10.11 0v.03a2.6 2.6 0 002.68 2.69h10.16a2.6 2.6 0 002.68-2.69v-.03a2.6 2.6 0 00-2.68-2.69h-10.16a2.6 2.6 0 00-2.68 2.69zm10.1 0v.03a2.6 2.6 0 002.7 2.69h10.14a2.6 2.6 0 002.69-2.69v-.03a2.6 2.6 0 00-2.69-2.69H174.7a2.6 2.6 0 00-2.68 2.69zm10.12 0v.03a2.6 2.6 0 002.68 2.69h10.15a2.6 2.6 0 002.68-2.69v-.03a2.6 2.6 0 00-2.68-2.69H184.8a2.6 2.6 0 00-2.68 2.69zm20.9 0v.03a2.6 2.6 0 002.68 2.69h10.15a2.6 2.6 0 002.68-2.69v-.03a2.6 2.6 0 00-2.68-2.69H205.7a2.6 2.6 0 00-2.68 2.69zm10.1 0v.03a2.6 2.6 0 002.69 2.69h10.15a2.6 2.6 0 002.68-2.69v-.03a2.6 2.6 0 00-2.68-2.69H215.8a2.6 2.6 0 00-2.69 2.69zm10.11 0v.03a2.6 2.6 0 002.68 2.69h5.19a2.6 2.6 0 002.68-2.69v-.03a2.6 2.6 0 00-2.68-2.69h-5.19a2.6 2.6 0 00-2.68 2.69zm5.15 0v.03a2.6 2.6 0 002.68 2.69h10.16a2.6 2.6 0 002.68-2.69v-.03a2.6 2.6 0 00-2.68-2.69h-10.16a2.6 2.6 0 00-2.68 2.69zm10.1 0v.03a2.6 2.6 0 002.7 2.69h10.14a2.6 2.6 0 002.69-2.69v-.03a2.6 2.6 0 00-2.69-2.69h-10.15a2.6 2.6 0 00-2.68 2.69zm10.12 0v.03a2.6 2.6 0 002.68 2.69h5.18a2.6 2.6 0 002.69-2.69v-.03a2.6 2.6 0 00-2.69-2.69h-5.18a2.6 2.6 0 00-2.68 2.69zm5.15 0v.03a2.6 2.6 0 002.68 2.69h10.15a2.6 2.6 0 002.68-2.69v-.03a2.6 2.6 0 00-2.68-2.69h-10.15a2.6 2.6 0 00-2.68 2.69zm10.1 0v.03a2.6 2.6 0 002.69 2.69h10.15a2.6 2.6 0 002.68-2.69v-.03a2.6 2.6 0 00-2.68-2.69h-10.15a2.6 2.6 0 00-2.69 2.69zM94.74 357.45v.03a2.6 2.6 0 002.68 2.69h10.15a2.6 2.6 0 002.68-2.69v-.03a2.6 2.6 0 00-2.68-2.69H97.42a2.6 2.6 0 00-2.68 2.69zm10.1 0v.03a2.6 2.6 0 002.69 2.69h10.15a2.6 2.6 0 002.68-2.69v-.03a2.6 2.6 0 00-2.68-2.69h-10.16a2.6 2.6 0 00-2.68 2.69zm10.11 0v.03a2.6 2.6 0 002.68 2.69h10.15a2.6 2.6 0 002.69-2.69v-.03a2.6 2.6 0 00-2.69-2.69h-10.15a2.6 2.6 0 00-2.68 2.69zm10.1 0v.03a2.6 2.6 0 002.69 2.69h10.15a2.6 2.6 0 002.68-2.69v-.03a2.6 2.6 0 00-2.68-2.69h-10.15a2.6 2.6 0 00-2.68 2.69zm10.11 0v.03a2.6 2.6 0 002.69 2.69h5.18a2.6 2.6 0 002.68-2.69v-.03a2.6 2.6 0 00-2.68-2.69h-5.18a2.6 2.6 0 00-2.69 2.69zm5.16 0v.03a2.6 2.6 0 002.68 2.69h10.15a2.6 2.6 0 002.68-2.69v-.03a2.6 2.6 0 00-2.68-2.69H143a2.6 2.6 0 00-2.68 2.69zm10.1 0v.03a2.6 2.6 0 002.69 2.69h10.15a2.6 2.6 0 002.68-2.69v-.03a2.6 2.6 0 00-2.68-2.69H153.1a2.6 2.6 0 00-2.68 2.69zm20.9 0v.03a2.6 2.6 0 002.69 2.69h10.15a2.6 2.6 0 002.68-2.69v-.03a2.6 2.6 0 00-2.68-2.69H174a2.6 2.6 0 00-2.68 2.69zm10.11 0v.03a2.6 2.6 0 002.68 2.69h10.15a2.6 2.6 0 002.69-2.69v-.03a2.6 2.6 0 00-2.69-2.69h-10.15a2.6 2.6 0 00-2.68 2.69zM94.74 380.45v.03a2.6 2.6 0 002.68 2.69h10.15a2.6 2.6 0 002.68-2.69v-.03a2.6 2.6 0 00-2.68-2.69H97.42a2.6 2.6 0 00-2.68 2.69zm20.9 0v.03a2.6 2.6 0 002.68 2.69h5.18a2.6 2.6 0 002.68-2.69v-.03a2.6 2.6 0 00-2.68-2.69h-5.18a2.6 2.6 0 00-2.68 2.69zm5.15 0v.03a2.6 2.6 0 002.68 2.69h10.15a2.6 2.6 0 002.68-2.69v-.03a2.6 2.6 0 00-2.68-2.69h-10.15a2.6 2.6 0 00-2.68 2.69zm10.1 0v.03a2.6 2.6 0 002.69 2.69h10.15a2.6 2.6 0 002.68-2.69v-.03a2.6 2.6 0 00-2.68-2.69h-10.15a2.6 2.6 0 00-2.69 2.69zm20.9 0v.03a2.6 2.6 0 002.69 2.69h10.15a2.6 2.6 0 002.68-2.69v-.03a2.6 2.6 0 00-2.68-2.69h-10.15a2.6 2.6 0 00-2.69 2.69zm10.11 0v.03a2.6 2.6 0 002.68 2.69h10.16a2.6 2.6 0 002.68-2.69v-.03a2.6 2.6 0 00-2.68-2.69h-10.16a2.6 2.6 0 00-2.68 2.69zm10.1 0v.03a2.6 2.6 0 002.7 2.69h10.14a2.6 2.6 0 002.69-2.69v-.03a2.6 2.6 0 00-2.69-2.69H174.7a2.6 2.6 0 00-2.68 2.69zm10.12 0v.03a2.6 2.6 0 002.68 2.69h10.15a2.6 2.6 0 002.68-2.69v-.03a2.6 2.6 0 00-2.68-2.69H184.8a2.6 2.6 0 00-2.68 2.69zm20.9 0v.03a2.6 2.6 0 002.68 2.69h10.15a2.6 2.6 0 002.68-2.69v-.03a2.6 2.6 0 00-2.68-2.69H205.7a2.6 2.6 0 00-2.68 2.69zm10.1 0v.03a2.6 2.6 0 002.69 2.69h10.15a2.6 2.6 0 002.68-2.69v-.03a2.6 2.6 0 00-2.68-2.69H215.8a2.6 2.6 0 00-2.69 2.69zm10.11 0v.03a2.6 2.6 0 002.68 2.69h5.19a2.6 2.6 0 002.68-2.69v-.03a2.6 2.6 0 00-2.68-2.69h-5.19a2.6 2.6 0 00-2.68 2.69zm5.15 0v.03a2.6 2.6 0 002.68 2.69h10.16a2.6 2.6 0 002.68-2.69v-.03a2.6 2.6 0 00-2.68-2.69h-10.16a2.6 2.6 0 00-2.68 2.69zm10.1 0v.03a2.6 2.6 0 002.7 2.69h10.14a2.6 2.6 0 002.69-2.69v-.03a2.6 2.6 0 00-2.69-2.69h-10.15a2.6 2.6 0 00-2.68 2.69zm10.12 0v.03a2.6 2.6 0 002.68 2.69h5.18a2.6 2.6 0 002.69-2.69v-.03a2.6 2.6 0 00-2.69-2.69h-5.18a2.6 2.6 0 00-2.68 2.69zm5.15 0v.03a2.6 2.6 0 002.68 2.69h10.15a2.6 2.6 0 002.68-2.69v-.03a2.6 2.6 0 00-2.68-2.69h-10.15a2.6 2.6 0 00-2.68 2.69zm10.1 0v.03a2.6 2.6 0 002.69 2.69h10.15a2.6 2.6 0 002.68-2.69v-.03a2.6 2.6 0 00-2.68-2.69h-10.15a2.6 2.6 0 00-2.69 2.69z" fill="#E2E8F0"/></g></g><g filter="url(#filter1_d)"><g clip-path="url(#clip1)"><rect x="167.44" y="50.22" width="320" height="294" rx="24" fill="#fff"/><path d="M200.97 87.54v12.68h2.66V96.3h2.5c2.68 0 4.53-1.75 4.53-4.36 0-2.64-1.78-4.39-4.4-4.39h-5.29zm2.66 2.18h1.93c1.53 0 2.4.78 2.4 2.22 0 1.42-.89 2.2-2.4 2.2h-1.93v-4.42zm13.25 10.72c2.98 0 4.77-1.9 4.77-5.07 0-3.14-1.81-5.05-4.77-5.05-2.95 0-4.77 1.92-4.77 5.05 0 3.18 1.8 5.06 4.77 5.06zm0-2.1c-1.37 0-2.14-1.08-2.14-2.97 0-1.86.78-2.96 2.14-2.96s2.15 1.1 2.15 2.96c0 1.88-.79 2.97-2.15 2.97zm6.65-4.96c0 1.5.91 2.39 2.8 2.8l1.75.4c.85.18 1.22.47 1.22.95 0 .62-.69 1.03-1.68 1.03-1.02 0-1.64-.37-1.84-1.03h-2.5c.19 1.86 1.73 2.9 4.29 2.9 2.54 0 4.27-1.26 4.27-3.2 0-1.44-.84-2.23-2.72-2.65l-1.82-.4c-.9-.2-1.31-.49-1.31-.96 0-.62.67-1.03 1.59-1.03.95 0 1.54.39 1.67 1.01h2.36c-.14-1.85-1.59-2.88-4.05-2.88-2.42 0-4.03 1.22-4.03 3.06zm11.09-5.15v2.4h-1.51v2.01h1.5v4.97c0 1.89.94 2.65 3.3 2.65.49 0 .96-.05 1.28-.12V98.2a6.2 6.2 0 01-.76.04c-.87 0-1.25-.39-1.25-1.23v-4.36h2v-2.01h-2v-2.4h-2.56zm14.82 12.14c1.34 0 2.44-.62 2.96-1.67h.16v1.52h2.47V86.83h-2.55v5.25h-.15a3.06 3.06 0 00-2.9-1.7c-2.43 0-3.94 1.9-3.94 4.98 0 3.1 1.5 5.01 3.95 5.01zm.87-7.85c1.36 0 2.2 1.1 2.2 2.86 0 1.78-.83 2.86-2.2 2.86s-2.2-1.07-2.2-2.87c0-1.77.83-2.85 2.2-2.85zm11.57-.24c1.2 0 1.97.8 2.02 2.08h-4.13c.09-1.25.93-2.08 2.11-2.08zm2.08 5.18c-.28.65-.97 1-1.98 1-1.34 0-2.18-.89-2.22-2.33V96h6.66v-.79c0-3.07-1.7-4.9-4.55-4.9-2.88 0-4.66 1.96-4.66 5.12 0 3.14 1.75 5 4.7 5 2.37 0 4.04-1.14 4.43-2.97h-2.38zm5.29-9.23v2.4h-1.51v2.01h1.5v4.97c0 1.89.94 2.65 3.3 2.65.49 0 .96-.05 1.28-.12V98.2a6.2 6.2 0 01-.76.04c-.87 0-1.25-.39-1.25-1.23v-4.36h2v-2.01h-2v-2.4h-2.56zm10.2 10.22c-.89 0-1.51-.44-1.51-1.16 0-.7.54-1.1 1.63-1.17l1.96-.12v.7c0 1-.9 1.75-2.08 1.75zm-.84 1.92c1.25 0 2.3-.52 2.81-1.41h.16v1.26h2.48v-6.61c0-2.08-1.45-3.3-4.02-3.3-2.44 0-4.08 1.13-4.25 2.93h2.36c.21-.58.83-.9 1.75-.9 1.05 0 1.63.46 1.63 1.27v.79l-2.34.14c-2.41.14-3.75 1.16-3.75 2.92 0 1.77 1.3 2.91 3.17 2.91zm7.98-.15h2.56v-9.69h-2.56v9.7zm1.28-11.04c.92 0 1.51-.54 1.51-1.3s-.6-1.29-1.5-1.29c-.93 0-1.52.53-1.52 1.3 0 .75.59 1.29 1.51 1.29zm3.96 11.04h2.55V86.83h-2.55v13.4zm5-6.84c0 1.5.91 2.39 2.8 2.8l1.75.4c.85.18 1.22.47 1.22.95 0 .62-.68 1.03-1.68 1.03-1.02 0-1.64-.37-1.83-1.03h-2.5c.18 1.86 1.72 2.9 4.28 2.9 2.54 0 4.27-1.26 4.27-3.2 0-1.44-.84-2.23-2.72-2.65l-1.82-.4c-.9-.2-1.31-.49-1.31-.96 0-.62.67-1.03 1.59-1.03.95 0 1.54.39 1.67 1.01h2.36c-.14-1.85-1.59-2.88-4.05-2.88-2.42 0-4.03 1.22-4.03 3.06zM202.42 143.22v-9.86h-1.77v9.86h1.77zm2.43-9.86v9.86h3.7c2.95 0 4.64-1.8 4.64-4.97 0-3.1-1.71-4.89-4.64-4.89h-3.7zm1.76 1.52h1.7c1.94 0 3.08 1.24 3.08 3.4 0 2.2-1.11 3.42-3.07 3.42h-1.7v-6.81z" fill="#011837"/><rect x="199.94" y="154.72" width="215" height="31" rx="3.5" fill="#EDF2F7"/><path opacity=".8" d="M212.54 175.22h6.38v-1.1h-4.67V174l2.24-2.32c1.78-1.84 2.27-2.66 2.27-3.79v-.01c0-1.6-1.32-2.76-3.04-2.76-1.9 0-3.25 1.26-3.25 3l.01.01h1.18c0-1.17.79-1.94 1.97-1.94 1.16 0 1.87.78 1.87 1.82v.01c0 .86-.37 1.38-1.63 2.74l-3.33 3.6v.85zm10.86 0h1.23v-9.86h-1.22l-2.63 1.89v1.3l2.5-1.82h.12v8.5zm7.38.24c2.18 0 3.5-2 3.5-5.16v-.02c0-3.17-1.32-5.15-3.5-5.15-2.18 0-3.48 1.98-3.48 5.15v.02c0 3.17 1.3 5.16 3.48 5.16zm0-1.08c-1.41 0-2.24-1.57-2.24-4.08v-.02c0-2.51.83-4.07 2.24-4.07 1.42 0 2.26 1.56 2.26 4.07v.02c0 2.51-.84 4.08-2.26 4.08zm7.93.84h1.23v-9.86h-1.22l-2.63 1.89v1.3l2.51-1.82h.11v8.5zm4.5 0h1.28l4.4-8.72v-1.14h-6.54v1.1h5.28v.1l-4.43 8.66z" fill="#415269"/><rect x="199.94" y="154.72" width="215" height="31" rx="3.5" stroke="#EDF2F7"/><path d="M423.44 170.22a16 16 0 0132 0 16 16 0 11-32 0z" fill="#E6EEFF"/><g clip-path="url(#clip2)"><path fill-rule="evenodd" clip-rule="evenodd" d="M437.44 162.9c-.74 0-1.34.59-1.34 1.32h-.66a2 2 0 00-2 2v9.34a2 2 0 002 2h8a2 2 0 002-2v-9.34a2 2 0 00-2-2h-.67c0-.73-.6-1.33-1.33-1.33h-4zm5.33 2.66c0 .73-.6 1.33-1.33 1.33h-4c-.74 0-1.34-.6-1.34-1.33h-.66a.67.67 0 00-.67.66v9.34a.67.67 0 00.67.66h8a.67.67 0 00.66-.66v-9.34a.67.67 0 00-.66-.66h-.67zm-5.33-.67v.67h4v-1.34h-4v.67z" fill="#1A69FF"/></g><path d="M204.08 223.47c2.36 0 3.85-1.2 3.85-3.12v-.01c0-1.5-.87-2.32-2.95-2.76l-1.06-.23c-1.23-.26-1.73-.7-1.73-1.4 0-.84.78-1.35 1.87-1.35 1.13 0 1.86.54 1.99 1.3l.01.09h1.69v-.1c-.13-1.58-1.5-2.78-3.68-2.78-2.13 0-3.65 1.2-3.65 2.96 0 1.47.88 2.42 2.9 2.84l1.05.22c1.27.27 1.78.7 1.78 1.41v.01c0 .85-.83 1.44-2.02 1.44-1.25 0-2.13-.55-2.21-1.38l-.01-.07h-1.7v.1c.12 1.7 1.58 2.83 3.87 2.83zm8.59-.21c.33 0 .64-.03.89-.08v-1.3l-.58.02c-.7 0-1-.32-1-1.06v-3.77h1.58v-1.32h-1.58v-1.83h-1.73v1.83h-1.16v1.32h1.16v4.17c0 1.44.7 2.02 2.42 2.02zm4.62.09c.99 0 1.78-.43 2.19-1.15h.12v1.02h1.68v-5.1c0-1.58-1.08-2.51-3-2.51-1.78 0-2.99.83-3.15 2.1v.05h1.6v-.02c.18-.5.68-.78 1.46-.78.92 0 1.4.41 1.4 1.16v.64l-1.92.12c-1.81.1-2.83.89-2.83 2.22v.01c0 1.36 1.03 2.24 2.45 2.24zm-.77-2.32v-.01c0-.62.44-.97 1.4-1.03l1.68-.1v.6c0 .88-.76 1.55-1.79 1.55-.75 0-1.3-.37-1.3-1.01zm9.74 2.23c.33 0 .64-.03.89-.08v-1.3l-.58.02c-.7 0-1-.32-1-1.06v-3.77h1.58v-1.32h-1.58v-1.83h-1.73v1.83h-1.16v1.32h1.16v4.17c0 1.44.7 2.02 2.42 2.02zm5.06.12c1.08 0 1.84-.49 2.19-1.29h.11v1.13h1.7v-7.47h-1.7v4.36c0 1.12-.59 1.83-1.69 1.83-1.02 0-1.45-.59-1.45-1.74v-4.45h-1.7v4.84c0 1.77.86 2.78 2.54 2.78zm8.9 0c1.84 0 3.18-.95 3.18-2.38V221c0-1.09-.7-1.71-2.16-2.04l-1.2-.26c-.81-.19-1.13-.46-1.13-.9 0-.56.55-.93 1.3-.93.8 0 1.3.38 1.42.85l.01.03h1.6v-.02c-.1-1.2-1.2-2.11-3.01-2.11-1.77 0-3 .93-3 2.28 0 1.1.68 1.77 2.1 2.09l1.21.27c.82.19 1.15.47 1.15.91v.01c0 .56-.59.95-1.44.95-.84 0-1.34-.37-1.52-.88v-.02h-1.7v.02c.15 1.26 1.3 2.13 3.2 2.13z" fill="#011837"/><path d="M199.44 246.22a12 12 0 0112-12h74a12 12 0 110 24h-74a12 12 0 01-12-12z" fill="#fff"/><circle cx="215.44" cy="246.22" r="4" fill="#22C55E"/><path d="M226.5 241.77v8.45h1.3v-2.84h1.97c1.65 0 2.83-1.14 2.83-2.8 0-1.67-1.14-2.81-2.8-2.81h-3.3zm1.3 1.16h1.66c1.16 0 1.8.59 1.8 1.66 0 1.05-.67 1.63-1.8 1.63h-1.65v-3.29zm11.96.91h-1.26v3.74c0 1-.56 1.6-1.57 1.6-.93 0-1.35-.5-1.35-1.52v-3.82h-1.26V248c0 1.5.79 2.36 2.2 2.36.97 0 1.62-.41 1.93-1.14h.1v1.01h1.21v-6.38zm5.45 6.49c1.61 0 2.64-1.28 2.64-3.3 0-2.03-1.02-3.3-2.64-3.3-.87 0-1.62.43-1.96 1.13h-.1v-3.5h-1.26v8.86h1.21v-1h.1c.38.7 1.12 1.11 2.01 1.11zm-.36-5.46c1.06 0 1.7.82 1.7 2.16 0 1.35-.64 2.17-1.7 2.17s-1.72-.83-1.72-2.16c0-1.34.66-2.17 1.72-2.17zm4.81 5.35h1.26v-8.87h-1.26v8.87zm3.42 0h1.25v-6.38h-1.25v6.38zm.63-7.5c.47 0 .81-.33.81-.76 0-.44-.34-.78-.81-.78-.47 0-.82.34-.82.78 0 .43.35.76.82.76zm2.57 2.93c0 .95.56 1.5 1.77 1.78l1.12.26c.63.15.93.4.93.78 0 .5-.55.86-1.34.86-.76 0-1.23-.3-1.39-.8h-1.26c.12 1.13 1.1 1.82 2.62 1.82 1.53 0 2.65-.8 2.65-2 0-.94-.57-1.47-1.78-1.75l-1.07-.24c-.69-.16-1.01-.4-1.01-.78 0-.5.53-.83 1.24-.83s1.17.3 1.29.76h1.2c-.12-1.12-1.06-1.79-2.5-1.79s-2.47.8-2.47 1.93zm6.91 4.57h1.26v-3.72c0-.97.58-1.62 1.6-1.62.9 0 1.37.52 1.37 1.54v3.8h1.26v-4.12c0-1.51-.84-2.37-2.2-2.37-.96 0-1.63.42-1.94 1.14h-.1v-3.52h-1.25v8.87zm10.13-5.43c.93 0 1.54.65 1.57 1.66h-3.23c.07-1 .72-1.66 1.66-1.66zm1.56 3.71c-.23.5-.75.78-1.52.78-1 0-1.66-.71-1.7-1.83v-.07h4.51v-.44c0-2-1.07-3.22-2.85-3.22-1.8 0-2.94 1.3-2.94 3.34 0 2.03 1.12 3.29 2.95 3.29 1.46 0 2.48-.7 2.76-1.85h-1.2zm5.37 1.83c.88 0 1.63-.42 2-1.11h.1v1h1.21v-8.87h-1.25v3.5h-.1a2.1 2.1 0 00-1.96-1.11c-1.6 0-2.64 1.28-2.64 3.3 0 2.01 1.02 3.29 2.64 3.29zm.36-5.46c1.06 0 1.72.84 1.72 2.17s-.66 2.16-1.72 2.16-1.7-.81-1.7-2.17c0-1.34.64-2.16 1.7-2.16z" fill="#011837"/><path d="M211.44 235.22h74v-2h-74v2zm74 22h-74v2h74v-2zm-74 0a11 11 0 01-11-11h-2a13 13 0 0013 13v-2zm85-11a11 11 0 01-11 11v2a13 13 0 0013-13h-2zm-11-11a11 11 0 0111 11h2a13 13 0 00-13-13v2zm-74-2a13 13 0 00-13 13h2a11 11 0 0111-11v-2z" fill="#E2E5E9"/><path d="M200.2 292.55c.09 1.79 1.59 2.92 3.85 2.92 2.4 0 3.88-1.2 3.88-3.12 0-1.5-.84-2.33-2.85-2.79l-1.13-.25c-1.23-.29-1.72-.68-1.72-1.34 0-.84.75-1.39 1.88-1.39 1.08 0 1.85.55 1.97 1.42h1.69c-.08-1.7-1.58-2.89-3.65-2.89-2.21 0-3.67 1.2-3.67 2.99 0 1.46.84 2.35 2.63 2.76l1.28.29c1.26.3 1.8.71 1.8 1.42 0 .83-.84 1.42-2 1.42-1.25 0-2.13-.56-2.24-1.44h-1.72zm12.76 2.82c2.23 0 3.6-1.46 3.6-3.88 0-2.43-1.37-3.9-3.6-3.9-2.22 0-3.6 1.48-3.6 3.9s1.35 3.88 3.6 3.88zm0-1.42c-1.19 0-1.86-.9-1.86-2.46s.67-2.47 1.86-2.47c1.17 0 1.85.9 1.85 2.47 0 1.56-.67 2.46-1.85 2.46zm11.76-3.69c-.18-1.57-1.34-2.66-3.26-2.66-2.25 0-3.57 1.44-3.57 3.86 0 2.47 1.33 3.92 3.58 3.92 1.9 0 3.07-1.06 3.25-2.62h-1.61c-.18.78-.77 1.2-1.65 1.2-1.15 0-1.85-.92-1.85-2.5 0-1.55.69-2.44 1.85-2.44.93 0 1.5.52 1.65 1.24h1.61zm1.64 4.96h1.7v-7.47h-1.7v7.47zm.84-8.7c.63 0 1.05-.39 1.05-.93s-.43-.93-1.05-.93c-.61 0-1.04.4-1.04.93 0 .54.43.94 1.04.94zm5.51 7.5c-.75 0-1.29-.38-1.29-1.01 0-.6.45-.95 1.4-1.01l1.68-.11v.6c0 .86-.76 1.52-1.79 1.52zm-.5 1.33c.98 0 1.8-.43 2.22-1.15h.11v1.02h1.64v-5.1c0-1.59-1.08-2.52-3-2.52-1.78 0-3.02.84-3.15 2.16h1.6c.15-.51.69-.78 1.47-.78.91 0 1.4.4 1.4 1.14v.63l-1.92.11c-1.82.11-2.84.9-2.84 2.25 0 1.36 1.03 2.24 2.47 2.24zm6.08-.13h1.7v-10.37h-1.7v10.37zm7.58 0h1.7v-4.32c0-1.04.76-1.72 1.86-1.72.28 0 .73.04.86.09v-1.57a2.91 2.91 0 00-.7-.08c-.96 0-1.77.55-1.97 1.29h-.12v-1.16h-1.63v7.47zm8.77-6.28c1.01 0 1.68.71 1.72 1.82h-3.52c.07-1.1.78-1.82 1.8-1.82zm1.73 4.23c-.24.55-.83.86-1.67.86-1.11 0-1.83-.78-1.87-2.02v-.1h5.22v-.54c0-2.36-1.28-3.77-3.4-3.77-2.17 0-3.52 1.5-3.52 3.91 0 2.4 1.33 3.87 3.53 3.87 1.76 0 3-.85 3.32-2.21h-1.6zm5.94.84c-.75 0-1.29-.37-1.29-1 0-.6.44-.95 1.4-1.01l1.68-.11v.6c0 .86-.76 1.52-1.79 1.52zm-.5 1.34c.98 0 1.8-.43 2.22-1.15h.12v1.02h1.63v-5.1c0-1.59-1.08-2.52-3-2.52-1.78 0-3.02.84-3.15 2.16h1.6c.15-.51.69-.78 1.46-.78.92 0 1.41.4 1.41 1.14v.63l-1.92.11c-1.82.11-2.84.9-2.84 2.25 0 1.36 1.03 2.24 2.47 2.24zm12.47-5.09c-.18-1.57-1.34-2.66-3.26-2.66-2.25 0-3.57 1.44-3.57 3.86 0 2.47 1.33 3.92 3.58 3.92 1.9 0 3.07-1.06 3.25-2.62h-1.61c-.18.78-.77 1.2-1.65 1.2-1.15 0-1.85-.92-1.85-2.5 0-1.55.69-2.44 1.85-2.44.93 0 1.5.52 1.65 1.24h1.61zm1.7 4.96h1.69v-4.34c0-1.07.62-1.8 1.73-1.8.99 0 1.5.59 1.5 1.72v4.42h1.7v-4.82c0-1.78-.97-2.8-2.57-2.8-1.11 0-1.91.51-2.27 1.36h-.12v-4.1h-1.67v10.36z" fill="#011837"/><path d="M202.55 313.68h1.25c1.4 0 2.27.71 2.27 1.85 0 1.08-.92 1.85-2.22 1.85-1.27 0-2.16-.67-2.27-1.73h-1.19c.1 1.7 1.47 2.8 3.48 2.8 1.94 0 3.47-1.26 3.47-2.88 0-1.35-.82-2.28-2.16-2.45V313c1.08-.26 1.73-1.12 1.73-2.3 0-1.43-1.37-2.58-3.1-2.58-1.87 0-3.1 1.05-3.22 2.76h1.2c.1-1.06.84-1.69 1.98-1.69 1.13 0 1.9.67 1.9 1.68 0 1.02-.8 1.75-1.92 1.75h-1.2v1.05zm11.27 4.55h1.2v-2.05h1.4v-1.1h-1.4v-6.72h-1.78a118.32 118.32 0 00-4.23 6.7v1.12h4.8v2.05zm-3.55-3.23c1.18-2 2.46-4.03 3.47-5.5h.08v5.59h-3.55V315zm9.41-.93h-.1v-6.14h-1.18v10.3h1.17v-2.8l.7-.66 2.77 3.46h1.5l-3.39-4.22 3.17-3.15h-1.44l-3.2 3.21z" fill="#415269"/><path d="M199.44 344.23h256M167.44 50.22v1330" stroke="#E2E5E9"/></g><rect x="167.94" y="50.72" width="319" height="293" rx="23.5" stroke="#E2E8F0"/></g><g filter="url(#filter2_d)"><g clip-path="url(#clip3)"><rect x="305.69" y="147.41" width="320" height="302" rx="24" fill="#fff"/><path d="M338.65 173.36v9.86h1.77V180h2.13c2 0 3.4-1.34 3.4-3.3 0-1.98-1.35-3.33-3.32-3.33h-3.98zm1.77 1.48h1.75c1.27 0 1.98.65 1.98 1.86 0 1.17-.73 1.83-2 1.83h-1.73v-3.7zm10.32 8.53c2.23 0 3.6-1.46 3.6-3.88 0-2.43-1.37-3.9-3.6-3.9-2.22 0-3.6 1.48-3.6 3.9s1.36 3.88 3.6 3.88zm0-1.42c-1.19 0-1.86-.9-1.86-2.46s.68-2.47 1.86-2.47c1.17 0 1.85.9 1.85 2.47 0 1.56-.67 2.46-1.85 2.46zm5.13-4.06c0 1.12.68 1.79 2.11 2.12l1.33.3c.71.16 1.03.43 1.03.85 0 .55-.6.93-1.45.93-.84 0-1.37-.33-1.53-.88h-1.68c.13 1.36 1.3 2.16 3.17 2.16 1.87 0 3.19-.95 3.19-2.39 0-1.1-.67-1.71-2.1-2.03l-1.31-.3c-.75-.18-1.11-.44-1.11-.86 0-.54.58-.9 1.35-.9.8 0 1.3.33 1.42.85h1.6c-.13-1.36-1.25-2.14-3.02-2.14s-3 .93-3 2.29zm8.37-3.98v1.88h-1.18v1.36h1.18v4.08c0 1.45.68 2.03 2.4 2.03.33 0 .64-.03.89-.08v-1.33c-.2.02-.34.03-.58.03-.7 0-1.02-.32-1.02-1.06v-3.67h1.6v-1.36h-1.6v-1.88h-1.7zm9.25 0v1.88h-1.18v1.36h1.19v4.08c0 1.45.68 2.03 2.4 2.03.32 0 .64-.03.88-.08v-1.33c-.2.02-.33.03-.57.03-.71 0-1.03-.32-1.03-1.06v-3.67h1.6v-1.36h-1.6v-1.88h-1.69zm5.8 12.03c1.68 0 2.48-.62 3.12-2.48l2.7-7.71h-1.8l-1.74 5.83h-.11l-1.75-5.83h-1.86l2.67 7.5-.09.34c-.22.69-.62.96-1.34.96-.11 0-.37 0-.46-.03v1.4l.67.02zm11.36-10.32c-1.03 0-1.9.52-2.33 1.36h-.11v-1.23h-1.64v9.96h1.7v-3.62h.11c.39.8 1.21 1.26 2.29 1.26 1.88 0 3.06-1.48 3.06-3.86 0-2.4-1.19-3.87-3.08-3.87zm-.54 6.28c-1.15 0-1.87-.92-1.88-2.41.01-1.5.73-2.43 1.89-2.43s1.87.91 1.87 2.43c0 1.5-.7 2.41-1.88 2.41zm8.46-4.96c1.02 0 1.69.71 1.72 1.82h-3.52c.08-1.1.79-1.82 1.8-1.82zm1.74 4.23c-.25.55-.83.86-1.67.86-1.12 0-1.83-.78-1.88-2.03v-.08H402v-.55c0-2.36-1.28-3.77-3.41-3.77-2.17 0-3.52 1.5-3.52 3.91 0 2.4 1.33 3.87 3.53 3.87 1.76 0 3-.85 3.32-2.21h-1.6z" fill="#011837"/><path d="M338.7 196.36v9.86h1.22v-3.52h2.48c1.86 0 3.18-1.3 3.18-3.15 0-1.88-1.3-3.19-3.16-3.19h-3.73zm1.22 1.1h2.18c1.43 0 2.21.74 2.21 2.1 0 1.3-.81 2.05-2.21 2.05h-2.18v-4.16zm7.52 8.76h1.18v-4.56c0-1.04.81-1.8 1.93-1.8.24 0 .66.05.75.08v-1.18c-.15-.02-.4-.03-.58-.03-.98 0-1.83.5-2.05 1.22h-.1v-1.1h-1.13v7.38zm8.16.13c2.1 0 3.4-1.44 3.4-3.81s-1.3-3.81-3.4-3.81c-2.1 0-3.4 1.44-3.4 3.81s1.3 3.81 3.4 3.81zm0-1.06c-1.4 0-2.18-1-2.18-2.75s.78-2.75 2.18-2.75c1.4 0 2.18 1 2.18 2.75 0 1.74-.79 2.75-2.18 2.75zm7.97 1.06c1.02 0 1.9-.48 2.36-1.3h.1v1.17h1.13v-10.29h-1.18v4.09h-.1a2.52 2.52 0 00-2.31-1.3c-1.87 0-3.1 1.5-3.1 3.82s1.21 3.81 3.1 3.81zm.27-6.56c1.34 0 2.17 1.06 2.17 2.75 0 1.7-.83 2.75-2.17 2.75-1.34 0-2.15-1.03-2.15-2.75s.81-2.75 2.15-2.75zm11.56-.94h-1.17v4.37c0 1.29-.72 2.06-2.01 2.06-1.18 0-1.67-.61-1.67-1.94v-4.49h-1.18v4.78c0 1.74.86 2.72 2.52 2.72 1.13 0 1.91-.46 2.28-1.28h.11v1.16h1.12v-7.38zm8.31 2.26c-.2-1.31-1.3-2.38-3.08-2.38-2.07 0-3.38 1.49-3.38 3.78 0 2.35 1.32 3.84 3.38 3.84 1.77 0 2.87-1 3.08-2.35h-1.19c-.21.84-.9 1.3-1.9 1.3-1.3 0-2.16-1.09-2.16-2.79 0-1.66.84-2.72 2.17-2.72 1.05 0 1.7.59 1.9 1.32h1.19zm2.37-4.16v1.9h-1.19v.99h1.19v4.47c0 1.4.6 1.97 2.13 1.97.23 0 .45-.03.69-.07v-.99a5.1 5.1 0 01-.55.03c-.77 0-1.1-.37-1.1-1.24v-4.17h1.65v-.99h-1.64v-1.9h-1.18zm8.55 9.28h1.17v-4.57c0-1.04.81-1.8 1.94-1.8.23 0 .65.05.75.08v-1.18c-.15-.02-.4-.03-.6-.03-.97 0-1.82.5-2.03 1.22h-.11v-1.1h-1.13v7.38zm8.06-6.47c1.17 0 1.95.87 1.98 2.17h-4.06c.08-1.3.9-2.17 2.08-2.17zm1.94 4.56c-.3.65-.95 1-1.9 1-1.25 0-2.06-.93-2.12-2.38v-.06h5.3v-.45c0-2.29-1.22-3.7-3.2-3.7-2.03 0-3.33 1.5-3.33 3.82 0 2.33 1.28 3.8 3.32 3.8 1.62 0 2.75-.77 3.1-2.03h-1.17zm3.19 1.9h1.17v-10.29h-1.17v10.3zm6.4-6.46c1.16 0 1.94.87 1.97 2.17h-4.06c.09-1.3.91-2.17 2.09-2.17zm1.94 4.56c-.31.65-.95 1-1.9 1-1.25 0-2.07-.93-2.13-2.38v-.06h5.3v-.45c0-2.29-1.21-3.7-3.2-3.7-2.02 0-3.32 1.5-3.32 3.82 0 2.33 1.28 3.8 3.32 3.8 1.61 0 2.75-.77 3.1-2.03h-1.17zm5.38 1c-.85 0-1.49-.44-1.49-1.19 0-.73.5-1.13 1.62-1.2l1.98-.13v.68c0 1.05-.9 1.84-2.1 1.84zm-.21 1.03c.98 0 1.79-.43 2.27-1.21h.1v1.09h1.13v-5.05c0-1.53-1-2.45-2.8-2.45-1.58 0-2.74.78-2.9 1.96h1.2c.16-.58.77-.92 1.65-.92 1.1 0 1.67.5 1.67 1.41v.67l-2.13.13c-1.71.1-2.68.86-2.68 2.18 0 1.35 1.06 2.2 2.49 2.2zm5.5-5.48c0 1.07.63 1.66 2 2l1.27.3c.79.2 1.17.54 1.17 1.05 0 .67-.7 1.14-1.7 1.14-.94 0-1.53-.4-1.73-1.02h-1.2c.12 1.23 1.25 2.01 2.89 2.01 1.67 0 2.95-.9 2.95-2.22 0-1.06-.67-1.66-2.06-2l-1.13-.27c-.87-.22-1.28-.53-1.28-1.04 0-.65.69-1.1 1.56-1.1.89 0 1.46.4 1.62.98h1.16c-.16-1.2-1.23-1.97-2.77-1.97-1.57 0-2.75.92-2.75 2.14zm10.44-1.1c1.17 0 1.95.86 1.97 2.16h-4.06c.1-1.3.91-2.17 2.09-2.17zm1.94 4.55c-.3.65-.95 1-1.9 1-1.25 0-2.07-.93-2.13-2.38v-.06h5.3v-.45c0-2.29-1.21-3.7-3.2-3.7-2.02 0-3.32 1.5-3.32 3.82 0 2.33 1.28 3.8 3.32 3.8 1.61 0 2.75-.77 3.1-2.03h-1.17z" fill="#415269"/><path d="M337.44 232.22h256" stroke="#E2E5E9"/><path d="M345.02 269.23h1.89l-3.5-9.87h-1.99l-3.5 9.87h1.78l.85-2.53h3.63l.84 2.53zm-2.7-7.99h.11l1.34 4.07h-2.8l1.35-4.07zm12.23.5h-1.7v4.36c0 1.1-.6 1.78-1.7 1.78-1 0-1.48-.56-1.48-1.7v-4.43h-1.7v4.86c0 1.75.96 2.76 2.6 2.76 1.14 0 1.87-.48 2.23-1.33h.12v1.19h1.63v-7.48zm2.62-1.83v1.88H356v1.36h1.18v4.08c0 1.45.68 2.03 2.4 2.03.33 0 .64-.03.89-.08v-1.33c-.2.02-.34.03-.57.03-.72 0-1.03-.32-1.03-1.06v-3.67h1.6v-1.36h-1.6v-1.88h-1.69zm5.05 9.31h1.7v-4.34c0-1.07.62-1.8 1.73-1.8.99 0 1.5.59 1.5 1.72v4.43h1.7v-4.83c0-1.78-.97-2.8-2.57-2.8-1.11 0-1.91.51-2.27 1.36h-.12v-4.1h-1.67v10.37zm11.87.15c2.24 0 3.6-1.46 3.6-3.88 0-2.43-1.37-3.9-3.6-3.9-2.22 0-3.6 1.48-3.6 3.9s1.36 3.88 3.6 3.88zm0-1.42c-1.18 0-1.86-.9-1.86-2.46s.68-2.47 1.86-2.47c1.18 0 1.85.9 1.85 2.47 0 1.56-.67 2.46-1.85 2.46zm5.3 1.28h1.7v-4.33c0-1.04.77-1.72 1.87-1.72.28 0 .73.04.86.1v-1.58a2.91 2.91 0 00-.7-.08c-.96 0-1.77.55-1.98 1.29h-.11v-1.16h-1.64v7.48z" fill="#011837"/><path d="M344.68 291.12h-4.76v-8.76h-1.23v9.87h6v-1.11zm4.09.2c-.85 0-1.5-.44-1.5-1.19 0-.74.5-1.13 1.62-1.2l1.99-.13v.68c0 1.05-.9 1.84-2.11 1.84zm-.22 1.03c.99 0 1.8-.43 2.27-1.21h.1v1.09h1.13v-5.05c0-1.53-1-2.45-2.8-2.45-1.57 0-2.74.77-2.9 1.96h1.2c.16-.58.77-.92 1.66-.92 1.1 0 1.67.5 1.67 1.41v.67l-2.13.13c-1.72.1-2.69.86-2.69 2.18 0 1.35 1.06 2.2 2.5 2.2zm11.63-7.5h-1.17v4.37c0 1.29-.71 2.06-2.01 2.06-1.18 0-1.67-.61-1.67-1.94v-4.48h-1.17v4.77c0 1.74.86 2.72 2.51 2.72 1.13 0 1.92-.46 2.28-1.28h.11v1.16h1.13v-7.38zm2.22 7.38h1.18v-4.57c0-1.04.8-1.8 1.93-1.8.23 0 .66.05.75.08v-1.18c-.15-.02-.4-.03-.58-.03-.98 0-1.83.5-2.05 1.22h-.1v-1.1h-1.13v7.38zm8.07-6.47c1.16 0 1.94.87 1.97 2.17h-4.06c.09-1.3.91-2.17 2.09-2.17zm1.94 4.56c-.31.65-.95 1-1.9 1-1.25 0-2.07-.93-2.13-2.38v-.06h5.3v-.45c0-2.29-1.21-3.7-3.2-3.7-2.02 0-3.32 1.5-3.32 3.82 0 2.33 1.28 3.8 3.32 3.8 1.61 0 2.75-.77 3.1-2.03h-1.17zm3.11 1.9h1.18v-4.36c0-1.29.76-2.07 1.94-2.07 1.17 0 1.73.62 1.73 1.95v4.49h1.18v-4.78c0-1.75-.93-2.72-2.58-2.72-1.13 0-1.85.47-2.21 1.29h-.11v-1.16h-1.13v7.37zm11.81-2.57c.13 1.7 1.57 2.8 3.67 2.8 2.25 0 3.68-1.15 3.68-2.96 0-1.45-.82-2.24-2.87-2.75l-1.03-.28c-1.36-.35-1.9-.8-1.9-1.56 0-1 .87-1.66 2.18-1.66 1.23 0 2.07.6 2.24 1.62h1.24c-.1-1.6-1.53-2.73-3.44-2.73-2.08 0-3.48 1.13-3.48 2.8 0 1.4.77 2.22 2.56 2.67l1.26.32c1.36.35 1.98.88 1.98 1.72 0 .98-.98 1.7-2.3 1.7-1.41 0-2.4-.66-2.55-1.7h-1.24zm9.74-6.7v1.9h-1.19v.99h1.2v4.47c0 1.4.6 1.97 2.12 1.97.23 0 .46-.03.69-.07v-.99c-.22.02-.34.03-.55.03-.76 0-1.1-.37-1.1-1.24v-4.17h1.65v-.98h-1.64v-1.91h-1.18zm4.62 9.28h1.18v-7.38h-1.18v7.38zm.6-8.87c.44 0 .81-.37.81-.82a.82.82 0 00-.82-.82.82.82 0 00-.82.82c0 .45.37.82.82.82zm5.55 9c1.02 0 1.9-.5 2.36-1.31h.1v1.18h1.13v-10.3h-1.18v4.09h-.1a2.52 2.52 0 00-2.31-1.3c-1.87 0-3.1 1.5-3.1 3.82s1.21 3.81 3.1 3.81zm.27-6.57c1.33 0 2.17 1.06 2.17 2.75 0 1.7-.83 2.75-2.17 2.75-1.35 0-2.15-1.03-2.15-2.75s.81-2.75 2.15-2.75zm5.43 1.08c0 1.07.63 1.66 2.01 2l1.26.3c.79.2 1.17.54 1.17 1.04 0 .68-.7 1.15-1.7 1.15-.94 0-1.53-.4-1.73-1.01h-1.2c.12 1.22 1.25 2 2.89 2 1.68 0 2.95-.9 2.95-2.22 0-1.06-.67-1.67-2.06-2l-1.13-.27c-.87-.22-1.28-.53-1.28-1.04 0-.65.69-1.1 1.56-1.1.89 0 1.46.4 1.62.98h1.16c-.15-1.2-1.23-1.97-2.77-1.97-1.57 0-2.75.92-2.75 2.14zm7.92-3.92v1.9h-1.19v.99h1.2v4.47c0 1.4.6 1.97 2.12 1.97.23 0 .46-.03.69-.07v-.99a5.1 5.1 0 01-.55.03c-.76 0-1.1-.37-1.1-1.24v-4.17h1.65v-.98h-1.64v-1.91h-1.18zm7.52 9.4c2.1 0 3.4-1.45 3.4-3.81 0-2.37-1.3-3.81-3.4-3.81-2.1 0-3.4 1.44-3.4 3.81 0 2.36 1.3 3.81 3.4 3.81zm0-1.06c-1.4 0-2.19-1-2.19-2.75s.8-2.75 2.19-2.75 2.18 1 2.18 2.75c0 1.74-.79 2.75-2.19 2.75zm5.24.94h1.17v-4.37c0-1.29.76-2.07 1.94-2.07s1.74.62 1.74 1.95v4.49h1.17v-4.78c0-1.75-.92-2.72-2.58-2.72-1.12 0-1.84.47-2.21 1.29h-.11v-1.16h-1.12v7.37z" fill="#415269"/><path d="M342.77 331.47c2.27 0 3.9-1.32 4.17-3.3v-.04h-1.73v.03c-.26 1.09-1.2 1.79-2.44 1.79-1.68 0-2.73-1.4-2.73-3.65v-.02c0-2.24 1.05-3.64 2.72-3.64a2.4 2.4 0 012.44 1.94v.03h1.74v-.06c-.24-2.01-1.94-3.44-4.18-3.44-2.8 0-4.52 1.98-4.52 5.18v.01c0 3.19 1.73 5.17 4.53 5.17zm5.96-.25h1.7v-4.34c0-1.06.75-1.74 1.88-1.74.3 0 .57.04.85.1v-1.53a2.72 2.72 0 00-.7-.08c-.98 0-1.66.47-1.91 1.27h-.12v-1.15h-1.7v7.48zm8.83.15c2.03 0 3.03-1.16 3.27-2.13l.02-.06h-1.62l-.02.05c-.17.34-.7.8-1.62.8-1.15 0-1.88-.77-1.9-2.11h5.23v-.56c0-2.26-1.32-3.75-3.44-3.75-2.13 0-3.49 1.54-3.49 3.89 0 2.38 1.35 3.88 3.57 3.88zm-.06-6.43c.95 0 1.64.61 1.76 1.83h-3.55c.13-1.19.84-1.83 1.79-1.83zm7.16 6.4c.98 0 1.77-.42 2.18-1.14h.12v1.03h1.68v-5.11c0-1.58-1.08-2.51-3-2.51-1.78 0-2.98.83-3.14 2.1l-.01.05h1.6l.01-.02c.17-.5.68-.78 1.46-.78.91 0 1.4.41 1.4 1.16v.64l-1.92.12c-1.82.1-2.84.89-2.84 2.22v.01c0 1.36 1.03 2.24 2.46 2.24zm-.78-2.31v-.01c0-.62.45-.97 1.4-1.03l1.68-.1v.6c0 .88-.76 1.55-1.78 1.55-.76 0-1.3-.37-1.3-1.01zm9.75 2.23c.32 0 .64-.03.88-.08v-1.3l-.57.02c-.71 0-1-.32-1-1.06v-3.77h1.57v-1.32h-1.58v-1.83h-1.73v1.83h-1.16v1.32h1.16v4.17c0 1.44.7 2.02 2.43 2.02zm5.71.12c2.03 0 3.03-1.17 3.27-2.14l.02-.06H381l-.02.05c-.17.34-.7.8-1.62.8-1.15 0-1.88-.77-1.9-2.11h5.23v-.56c0-2.26-1.32-3.75-3.44-3.75-2.13 0-3.49 1.54-3.49 3.89 0 2.38 1.35 3.88 3.57 3.88zm-.06-6.44c.95 0 1.64.61 1.76 1.83h-3.55c.13-1.19.84-1.83 1.79-1.83zm7.81 6.4c1.05 0 1.86-.47 2.27-1.28h.12v1.17h1.7v-10.37h-1.7v4.08h-.12a2.44 2.44 0 00-2.27-1.31c-1.9 0-3.06 1.48-3.06 3.86 0 2.37 1.19 3.86 3.06 3.86zm.54-1.43c-1.17 0-1.87-.9-1.87-2.41v-.01c0-1.5.7-2.43 1.87-2.43 1.15 0 1.88.93 1.88 2.43s-.72 2.42-1.88 2.42zm12.66 1.46c2.23 0 3.6-1.46 3.6-3.88v-.01c0-2.4-1.38-3.87-3.6-3.87-2.23 0-3.6 1.47-3.6 3.87v.01c0 2.42 1.35 3.88 3.6 3.88zm0-1.38c-1.19 0-1.86-.92-1.86-2.5s.67-2.5 1.86-2.5c1.17 0 1.85.92 1.85 2.5s-.67 2.5-1.85 2.5zm5.3 1.24h1.7v-4.36c0-1.12.63-1.83 1.64-1.83 1.03 0 1.5.59 1.5 1.75v4.44h1.7v-4.84c0-1.78-.9-2.78-2.57-2.78-1.08 0-1.8.49-2.15 1.28h-.12v-1.14h-1.7v7.48z" fill="#011837"/><path d="M340.9 354.23h1.23v-9.87h-1.23l-2.62 1.89v1.3l2.5-1.82h.11v8.5zm7.61-2.3c0 1.5 1.16 2.53 2.82 2.53 1.78 0 2.87-1.1 2.87-2.98v-7.12h-1.23v7.11c0 1.21-.6 1.85-1.65 1.85-.93 0-1.56-.57-1.59-1.4h-1.22zm14.01-5.07h-1.17v4.36c0 1.29-.71 2.06-2.01 2.06-1.18 0-1.67-.61-1.67-1.94v-4.48h-1.18v4.77c0 1.74.87 2.72 2.52 2.72 1.13 0 1.91-.46 2.28-1.28h.11v1.16h1.12v-7.38zm2.22 7.37h1.17v-4.37c0-1.29.76-2.07 1.94-2.07 1.17 0 1.73.62 1.73 1.95v4.49h1.18v-4.78c0-1.75-.92-2.72-2.58-2.72-1.13 0-1.84.47-2.21 1.29h-.11v-1.16h-1.12v7.37zm11.11-6.47c1.17 0 1.95.87 1.98 2.17h-4.06c.09-1.3.9-2.17 2.08-2.17zm1.94 4.56c-.3.65-.95 1-1.9 1-1.25 0-2.06-.93-2.12-2.38v-.06h5.3v-.45c0-2.29-1.21-3.7-3.2-3.7-2.03 0-3.32 1.5-3.32 3.82 0 2.33 1.27 3.8 3.32 3.8 1.61 0 2.75-.77 3.1-2.03h-1.18zm7-5.18h1.2c0-1.17.77-1.94 1.93-1.94 1.09 0 1.93.76 1.93 1.74 0 .8-.31 1.33-1.58 2.71l-3.41 3.73v.85h6.38v-1.11h-4.62V353l2.37-2.55c1.62-1.74 2.09-2.54 2.09-3.56 0-1.57-1.36-2.77-3.13-2.77-1.83 0-3.15 1.26-3.15 3zm11.84 7.32c2.22 0 3.5-1.88 3.5-5.15 0-3.27-1.3-5.18-3.5-5.18s-3.5 1.9-3.5 5.16c0 3.28 1.28 5.17 3.5 5.17zm0-1.08c-1.45 0-2.26-1.45-2.26-4.1 0-2.6.82-4.07 2.26-4.07 1.45 0 2.25 1.46 2.25 4.08 0 2.64-.79 4.1-2.25 4.1zm5.45-6.24h1.19c0-1.17.78-1.94 1.93-1.94 1.09 0 1.93.76 1.93 1.74 0 .8-.31 1.33-1.58 2.71l-3.41 3.73v.85h6.38v-1.11h-4.62V353l2.37-2.55c1.62-1.74 2.09-2.54 2.09-3.56 0-1.57-1.36-2.77-3.13-2.77-1.83 0-3.15 1.26-3.15 3zm10.88 7.09h1.23v-9.87h-1.22l-2.63 1.89v1.3l2.5-1.82h.12v8.5zm10.49 0h1.23v-9.87h-1.23l-2.62 1.89v1.3l2.5-1.82h.12v8.5zm7.43.23c2.04 0 3.44-1.37 3.44-3.37 0-1.94-1.31-3.3-3.19-3.3-.9 0-1.6.27-2.08.84h-.1l.27-3.17h4.54v-1.1h-5.5l-.54 5.6h1.15c.4-.71 1.14-1.11 2.04-1.11 1.3 0 2.18.92 2.18 2.27 0 1.36-.88 2.26-2.2 2.26-1.16 0-2.01-.71-2.12-1.78h-1.21c.11 1.7 1.45 2.86 3.32 2.86zm6.39-1.36c.49 0 .89-.4.89-.9a.89.89 0 10-.9.9zm0-5.26a.9.9 0 000-1.78.9.9 0 00-.9.9c0 .48.41.88.9.88zm5.53 6.39h1.24v-9.87h-1.23l-2.62 1.89v1.3l2.5-1.82h.11v8.5zm8.69 0h1.2v-2.05h1.4v-1.1h-1.4v-6.72h-1.79a118.44 118.44 0 00-4.22 6.7v1.12h4.8v2.05zm-3.55-3.23c1.17-2 2.46-4.03 3.47-5.5h.08v5.59h-3.55V351zm9.03 2.1c.5 0 .89-.4.89-.9a.89.89 0 10-.9.9zm0-5.26a.9.9 0 000-1.78.9.9 0 00-.89.9c0 .48.4.88.89.88zm5.54 6.39h1.23v-9.87h-1.23l-2.62 1.89v1.3l2.5-1.82h.12v8.5zm8.68 0h1.2v-2.05h1.4v-1.1h-1.4v-6.72h-1.78a117.75 117.75 0 00-4.23 6.7v1.12h4.8v2.05zm-3.55-3.23c1.18-2 2.46-4.03 3.47-5.5h.08v5.59h-3.55V351z" fill="#415269"/><path d="M342.7 393.47c2.5 0 4.05-1.47 4.05-3.64v-6.47H345v6.32c0 1.36-.82 2.27-2.28 2.27-1.47 0-2.3-.9-2.3-2.27v-6.32h-1.77v6.47c0 2.17 1.56 3.64 4.06 3.64zm6.3 2.24h1.7v-3.67h.12c.39.8 1.24 1.3 2.27 1.3 1.9 0 3.07-1.46 3.07-3.84v-.01c0-2.37-1.2-3.86-3.07-3.86-1.05 0-1.86.48-2.27 1.3h-.12v-1.18H349v9.96zm3.56-3.8c-1.16 0-1.88-.92-1.88-2.42v-.01c0-1.5.72-2.42 1.88-2.42s1.86.92 1.86 2.43c0 1.5-.7 2.42-1.86 2.42zm8 1.44c1.06 0 1.87-.48 2.28-1.3h.11v1.18h1.71v-10.37h-1.7v4.08h-.12a2.44 2.44 0 00-2.27-1.31c-1.9 0-3.06 1.48-3.06 3.86 0 2.37 1.19 3.86 3.06 3.86zm.54-1.44c-1.16 0-1.87-.9-1.87-2.41v-.01c0-1.5.72-2.43 1.87-2.43 1.16 0 1.88.93 1.88 2.43s-.72 2.42-1.88 2.42zm7.74 1.44c.98 0 1.78-.43 2.19-1.15h.11v1.03h1.69v-5.11c0-1.58-1.08-2.51-3-2.51-1.78 0-2.99.83-3.15 2.1v.05h1.6v-.02c.18-.5.68-.78 1.46-.78.92 0 1.4.41 1.4 1.16v.64l-1.92.12c-1.82.1-2.84.89-2.84 2.22v.01c0 1.36 1.04 2.24 2.46 2.24zm-.77-2.32v-.01c0-.62.44-.97 1.4-1.03l1.67-.1v.6c0 .88-.75 1.55-1.78 1.55-.75 0-1.3-.37-1.3-1.01zm9.74 2.23c.33 0 .64-.03.89-.08v-1.3l-.58.02c-.7 0-1-.32-1-1.06v-3.77h1.58v-1.32h-1.58v-1.83h-1.73v1.83h-1.16v1.32h1.16v4.17c0 1.44.7 2.02 2.42 2.02zm5.71.12c2.03 0 3.03-1.17 3.27-2.14l.02-.06h-1.62l-.02.05c-.16.34-.69.8-1.61.8-1.16 0-1.88-.77-1.9-2.11h5.22v-.56c0-2.26-1.31-3.75-3.44-3.75s-3.49 1.54-3.49 3.89c0 2.38 1.35 3.88 3.57 3.88zm-.06-6.44c.95 0 1.64.61 1.76 1.83h-3.55c.13-1.19.84-1.83 1.8-1.83zm7.81 6.4c1.06 0 1.87-.47 2.28-1.28h.11v1.17h1.71v-10.37h-1.7v4.08h-.13a2.44 2.44 0 00-2.27-1.31c-1.89 0-3.06 1.48-3.06 3.86 0 2.37 1.2 3.86 3.06 3.86zm.54-1.43c-1.16 0-1.87-.9-1.87-2.41v-.01c0-1.5.71-2.43 1.87-2.43 1.15 0 1.88.93 1.88 2.43s-.72 2.42-1.88 2.42zm12.66 1.46c2.23 0 3.6-1.46 3.6-3.88v-.01c0-2.4-1.37-3.87-3.6-3.87-2.22 0-3.6 1.47-3.6 3.87v.01c0 2.42 1.36 3.88 3.6 3.88zm0-1.38c-1.18 0-1.86-.92-1.86-2.5s.68-2.5 1.86-2.5c1.17 0 1.85.92 1.85 2.5s-.67 2.5-1.85 2.5zm5.3 1.24h1.7v-4.36c0-1.12.63-1.83 1.65-1.83 1.03 0 1.5.59 1.5 1.75v4.44h1.7v-4.84c0-1.78-.9-2.78-2.57-2.78-1.08 0-1.8.49-2.16 1.28h-.11v-1.14h-1.7v7.48z" fill="#011837"/><path d="M338.47 409.14h1.2c0-1.17.77-1.94 1.93-1.94 1.08 0 1.93.76 1.93 1.74 0 .8-.31 1.33-1.58 2.71l-3.41 3.73v.85h6.38v-1.11h-4.62V415l2.37-2.55c1.62-1.74 2.09-2.54 2.09-3.56 0-1.57-1.36-2.77-3.13-2.77-1.83 0-3.16 1.26-3.16 3zm10.54 2.54h1.26c1.4 0 2.27.71 2.27 1.85 0 1.08-.93 1.85-2.23 1.85-1.27 0-2.16-.67-2.26-1.73h-1.2c.1 1.7 1.47 2.8 3.48 2.8 1.95 0 3.47-1.26 3.47-2.88 0-1.35-.81-2.28-2.15-2.45V411c1.08-.26 1.73-1.12 1.73-2.3 0-1.43-1.38-2.58-3.1-2.58-1.88 0-3.1 1.05-3.23 2.76h1.2c.1-1.06.85-1.69 1.98-1.69 1.14 0 1.9.67 1.9 1.68 0 1.02-.8 1.75-1.92 1.75h-1.2v1.05zm10.2 2.24c0 1.51 1.17 2.54 2.82 2.54 1.79 0 2.87-1.1 2.87-2.98v-7.12h-1.23v7.11c0 1.21-.6 1.85-1.65 1.85-.93 0-1.55-.57-1.58-1.4h-1.23zm14.02-5.06h-1.18v4.36c0 1.29-.7 2.06-2 2.06-1.18 0-1.68-.61-1.68-1.94v-4.48h-1.17v4.77c0 1.74.86 2.72 2.51 2.72 1.13 0 1.92-.46 2.29-1.28h.1v1.16h1.13v-7.38zm2.21 7.37h1.18v-4.37c0-1.29.76-2.07 1.93-2.07 1.18 0 1.74.62 1.74 1.95v4.49h1.18v-4.78c0-1.75-.93-2.72-2.58-2.72-1.13 0-1.85.47-2.22 1.29h-.1v-1.16h-1.13v7.37zm11.12-6.47c1.17 0 1.95.87 1.97 2.17h-4.06c.1-1.3.91-2.17 2.09-2.17zm1.94 4.56c-.3.65-.95 1-1.9 1-1.25 0-2.06-.93-2.13-2.38v-.06h5.3v-.45c0-2.29-1.2-3.7-3.2-3.7-2.02 0-3.32 1.5-3.32 3.82 0 2.33 1.28 3.8 3.32 3.8 1.62 0 2.75-.77 3.1-2.03h-1.17zm7-5.18h1.19c0-1.17.78-1.94 1.93-1.94 1.1 0 1.93.76 1.93 1.74 0 .8-.3 1.33-1.58 2.71l-3.4 3.73v.85h6.38v-1.11h-4.63V415l2.38-2.55c1.62-1.74 2.08-2.54 2.08-3.56 0-1.57-1.35-2.77-3.12-2.77-1.83 0-3.16 1.26-3.16 3zm11.84 7.32c2.21 0 3.49-1.88 3.49-5.15 0-3.27-1.3-5.18-3.49-5.18-2.2 0-3.5 1.9-3.5 5.16 0 3.28 1.28 5.17 3.5 5.17zm0-1.08c-1.46 0-2.26-1.45-2.26-4.1 0-2.6.82-4.07 2.26-4.07s2.25 1.46 2.25 4.08c0 2.64-.8 4.1-2.25 4.1zm5.44-6.24h1.19c0-1.17.78-1.94 1.93-1.94 1.1 0 1.93.76 1.93 1.74 0 .8-.3 1.33-1.58 2.71l-3.4 3.73v.85h6.38v-1.11h-4.62V415l2.37-2.55c1.62-1.74 2.08-2.54 2.08-3.56 0-1.57-1.35-2.77-3.12-2.77-1.83 0-3.16 1.26-3.16 3zm10.88 7.09h1.23v-9.87h-1.22l-2.62 1.89v1.3l2.5-1.82h.11v8.5zm10.49 0h1.23v-9.87h-1.22l-2.63 1.89v1.3l2.51-1.82h.11v8.5zm7.55.23c2.09 0 3.55-1.19 3.55-2.87 0-1.29-.81-2.29-2.05-2.52v-.1a2.19 2.19 0 001.65-2.21c0-1.54-1.3-2.63-3.15-2.63-1.85 0-3.15 1.1-3.15 2.63a2.2 2.2 0 001.64 2.2v.11a2.47 2.47 0 00-2.05 2.52c0 1.68 1.47 2.87 3.56 2.87zm0-1.06c-1.37 0-2.31-.77-2.31-1.9s.94-1.91 2.3-1.91c1.37 0 2.32.78 2.32 1.9 0 1.13-.95 1.91-2.31 1.91zm0-4.85c-1.16 0-1.94-.67-1.94-1.67 0-1.02.77-1.7 1.94-1.7s1.94.68 1.94 1.7c0 1-.78 1.67-1.94 1.67zm6.55 4.55c.49 0 .88-.4.88-.9a.89.89 0 10-.88.9zm0-5.26c.49 0 .88-.4.88-.89a.89.89 0 10-.88.89zm5.12 1.84h1.25c1.4 0 2.27.71 2.27 1.85 0 1.08-.92 1.85-2.22 1.85-1.27 0-2.16-.67-2.27-1.73h-1.19c.1 1.7 1.47 2.8 3.48 2.8 1.94 0 3.47-1.26 3.47-2.88 0-1.35-.82-2.28-2.16-2.45V411c1.08-.26 1.73-1.12 1.73-2.3 0-1.43-1.37-2.58-3.1-2.58-1.87 0-3.1 1.05-3.22 2.76h1.2c.1-1.06.84-1.69 1.98-1.69 1.13 0 1.9.67 1.9 1.68 0 1.02-.8 1.75-1.92 1.75h-1.2v1.05zm6.7-2.54h1.2c0-1.17.77-1.94 1.93-1.94 1.08 0 1.92.76 1.92 1.74 0 .8-.3 1.33-1.57 2.71l-3.42 3.73v.85h6.39v-1.11h-4.62V415l2.37-2.55c1.62-1.74 2.08-2.54 2.08-3.56 0-1.57-1.35-2.77-3.12-2.77-1.83 0-3.16 1.26-3.16 3zm9.5 5.96c.5 0 .9-.4.9-.9a.89.89 0 10-.9.9zm0-5.26a.89.89 0 10-.89-.89c0 .49.4.89.9.89zm6.5 6.62c2.21 0 3.48-1.88 3.48-5.15 0-3.27-1.29-5.18-3.48-5.18-2.21 0-3.5 1.9-3.5 5.16 0 3.28 1.28 5.17 3.5 5.17zm0-1.08c-1.46 0-2.26-1.45-2.26-4.1 0-2.6.82-4.07 2.26-4.07s2.25 1.46 2.25 4.08c0 2.64-.8 4.1-2.25 4.1zm8.75 1.08c2.05 0 3.45-1.37 3.45-3.37 0-1.94-1.31-3.3-3.19-3.3-.9 0-1.6.27-2.08.84h-.11l.28-3.17h4.54v-1.1h-5.5l-.54 5.6h1.15c.4-.71 1.14-1.11 2.04-1.11 1.3 0 2.18.92 2.18 2.27 0 1.36-.88 2.26-2.2 2.26-1.16 0-2.01-.71-2.12-1.78h-1.21c.1 1.7 1.45 2.86 3.31 2.86z" fill="#415269"/><path d="M305.44 152.22v1330" stroke="#E2E5E9"/></g><rect x="305.19" y="146.91" width="321" height="303" rx="24.5" stroke="#E2E8F0"/></g><g filter="url(#filter3_d)"><rect x="485.44" y="311.23" width="196.75" height="42" rx="21" fill="#fff"/><rect x="485.44" y="311.23" width="196.75" height="42" rx="21" fill="url(#paint0_linear)"/><path d="M505.58 337.23h2.11v-4.95h4.84v-1.77h-4.84v-3.15h5.35v-1.77h-7.46v11.64zm11.18-11.64h-2.05v11.64h2.05v-11.64zm5.82 11.8c2.04 0 3.43-.99 3.8-2.5l-1.92-.22c-.28.74-.96 1.12-1.85 1.12-1.33 0-2.2-.87-2.23-2.37h6.08v-.63c0-3.06-1.84-4.4-3.99-4.4-2.5 0-4.13 1.83-4.13 4.52 0 2.74 1.61 4.48 4.24 4.48zm-2.19-5.35a2.1 2.1 0 012.11-2.05c1.18 0 1.98.86 2 2.05h-4.11zm9.16-3.54h-2.18l2.6 4.36-2.67 4.37h2.19l1.83-3.15 1.84 3.15h2.17l-2.68-4.37 2.63-4.36h-2.17l-1.8 3.22-1.76-3.22zm7.16 8.73h2.06v-8.73h-2.06v8.73zm1.04-9.97c.65 0 1.18-.5 1.18-1.12 0-.61-.53-1.11-1.18-1.11-.66 0-1.2.5-1.2 1.12 0 .6.54 1.1 1.2 1.1zm3.07 9.97h2.02v-1.38h.12c.32.64 1 1.53 2.5 1.53 2.05 0 3.6-1.63 3.6-4.5 0-2.92-1.6-4.5-3.6-4.5-1.55 0-2.2.93-2.5 1.56h-.09v-4.35h-2.05v11.64zm2.01-4.37c0-1.7.73-2.79 2.05-2.79 1.37 0 2.08 1.17 2.08 2.8s-.72 2.82-2.08 2.82c-1.31 0-2.05-1.14-2.05-2.83zm9.87-7.27h-2.06v11.64h2.06v-11.64zm5.82 11.8c2.03 0 3.43-.99 3.8-2.5l-1.93-.22c-.28.74-.96 1.12-1.84 1.12-1.33 0-2.21-.87-2.23-2.37h6.08v-.63c0-3.06-1.84-4.4-4-4.4-2.5 0-4.12 1.83-4.12 4.52 0 2.74 1.6 4.48 4.24 4.48zm-2.2-5.35a2.1 2.1 0 012.12-2.05c1.18 0 1.97.86 1.99 2.05h-4.1zm11.47 5.19h2.05v-5.14c0-1.1.84-1.89 1.97-1.89.35 0 .78.06.95.12v-1.9a4.94 4.94 0 00-.74-.05c-1 0-1.83.57-2.15 1.58h-.09v-1.45h-2v8.73zm9.69.16c2.03 0 3.43-.99 3.79-2.5l-1.92-.22c-.28.74-.96 1.12-1.85 1.12-1.33 0-2.2-.87-2.22-2.37h6.08v-.63c0-3.06-1.85-4.4-4-4.4-2.5 0-4.12 1.83-4.12 4.52 0 2.74 1.6 4.48 4.24 4.48zm-2.2-5.35a2.1 2.1 0 012.12-2.05c1.18 0 1.97.86 1.98 2.05h-4.1zm9.71-6.45h-2.06v11.64H585v-11.64zm4.47 11.81c1.37 0 2.19-.64 2.56-1.37h.07v1.2h1.98v-5.85c0-2.3-1.88-3-3.55-3-1.83 0-3.24.82-3.7 2.41l1.92.28c.2-.6.79-1.11 1.8-1.11.95 0 1.47.49 1.47 1.34v.04c0 .59-.62.62-2.16.78-1.7.18-3.31.69-3.31 2.66 0 1.71 1.25 2.62 2.92 2.62zm.53-1.51c-.86 0-1.47-.4-1.47-1.15 0-.79.69-1.12 1.6-1.25.55-.07 1.63-.2 1.9-.42v1.02c0 .98-.79 1.8-2.03 1.8zm10.34-7.4h-1.72v-2.08h-2.06v2.09h-1.23v1.59h1.23v4.85c0 1.64 1.19 2.45 2.73 2.4.59-.01.99-.13 1.21-.2l-.35-1.6c-.1.02-.34.07-.6.07-.51 0-.93-.18-.93-1.01v-4.51h1.72v-1.6zm1.56 8.74h2.06v-8.73h-2.06v8.73zm1.04-9.97c.65 0 1.19-.5 1.19-1.12 0-.61-.54-1.11-1.2-1.11-.65 0-1.19.5-1.19 1.12 0 .6.54 1.1 1.2 1.1zm6.78 10.13c2.56 0 4.18-1.8 4.18-4.5s-1.62-4.5-4.18-4.5c-2.56 0-4.18 1.8-4.18 4.5s1.63 4.5 4.18 4.5zm.01-1.64c-1.41 0-2.1-1.26-2.1-2.86 0-1.6.69-2.88 2.1-2.88 1.4 0 2.09 1.28 2.09 2.88 0 1.6-.7 2.86-2.09 2.86zm7.82-3.64c0-1.26.76-1.99 1.84-1.99 1.07 0 1.7.7 1.7 1.87v5.24h2.06v-5.56c0-2.1-1.19-3.29-2.99-3.29-1.3 0-2.2.63-2.6 1.6h-.1v-1.48h-1.97v8.73h2.06v-5.12zm14.43-1.3c-.29-1.48-1.47-2.43-3.51-2.43-2.1 0-3.54 1.04-3.53 2.65 0 1.27.78 2.12 2.45 2.46l1.49.31c.8.18 1.18.5 1.18 1 0 .6-.65 1.04-1.63 1.04-.94 0-1.55-.4-1.73-1.19l-2 .2c.25 1.6 1.6 2.54 3.74 2.54 2.18 0 3.72-1.13 3.72-2.78 0-1.24-.8-2-2.45-2.36l-1.49-.32c-.88-.2-1.24-.5-1.23-1.01 0-.6.65-1 1.5-1 .95 0 1.45.51 1.61 1.09l1.88-.2zm3.78 1.3c0-1.26.78-1.99 1.88-1.99 1.08 0 1.72.69 1.72 1.87v5.24h2.06v-5.56c0-2.11-1.2-3.29-3-3.29-1.35 0-2.2.61-2.6 1.6h-.1v-4.4h-2.02v11.65h2.06v-5.12zm7.6 5.12h2.05v-8.73h-2.06v8.73zm1.03-9.97c.65 0 1.19-.5 1.19-1.12 0-.61-.54-1.11-1.2-1.11-.65 0-1.19.5-1.19 1.12 0 .6.54 1.1 1.2 1.1zm2.98 13.24h2.05v-4.65h.09c.32.64 1 1.53 2.5 1.53 2.05 0 3.6-1.63 3.6-4.5 0-2.92-1.6-4.5-3.6-4.5-1.55 0-2.2.93-2.5 1.56h-.12v-1.44h-2.02v12zm2.01-7.64c0-1.7.73-2.79 2.05-2.79 1.37 0 2.08 1.17 2.08 2.8s-.72 2.82-2.08 2.82c-1.3 0-2.05-1.14-2.05-2.83zm14.72-2.06c-.28-1.47-1.46-2.42-3.5-2.42-2.11 0-3.54 1.04-3.54 2.65 0 1.27.78 2.12 2.46 2.46l1.49.31c.8.18 1.17.5 1.17 1 0 .6-.65 1.04-1.62 1.04-.95 0-1.56-.4-1.74-1.19l-2 .2c.25 1.6 1.6 2.54 3.74 2.54 2.19 0 3.72-1.13 3.73-2.78 0-1.24-.8-2-2.45-2.36l-1.5-.32c-.88-.2-1.23-.5-1.23-1.01 0-.6.65-1 1.51-1 .95 0 1.45.51 1.6 1.09l1.88-.2z" fill="#fff"/></g><g filter="url(#filter4_d)"><rect x="402.44" y="83.15" width="209" height="42" rx="21" fill="#fff"/><rect x="402.44" y="83.15" width="209" height="42" rx="21" fill="url(#paint1_linear)"/><path d="M429.54 101.44c-.35-2.58-2.34-4.08-4.92-4.08-3.04 0-5.33 2.21-5.33 5.97s2.26 5.98 5.33 5.98c2.76 0 4.6-1.79 4.92-4.01l-2.12-.01c-.27 1.36-1.38 2.13-2.77 2.13-1.9 0-3.24-1.42-3.24-4.09 0-2.62 1.34-4.08 3.24-4.08 1.42 0 2.52.8 2.77 2.2h2.12zm7.25 4.04c0 1.33-.95 1.99-1.86 1.99-1 0-1.65-.7-1.65-1.8v-5.25h-2.06v5.56c0 2.1 1.2 3.28 2.91 3.28a2.7 2.7 0 002.63-1.66h.09v1.55h2v-8.73h-2.06v5.06zm10.9-2.75c-.28-1.48-1.46-2.42-3.5-2.42-2.1 0-3.54 1.03-3.54 2.65 0 1.27.78 2.11 2.46 2.46l1.49.31c.8.18 1.17.5 1.17 1 0 .6-.64 1.04-1.62 1.04-.94 0-1.56-.4-1.73-1.2l-2 .2c.25 1.6 1.6 2.55 3.73 2.55 2.19 0 3.73-1.13 3.73-2.78 0-1.25-.8-2-2.45-2.37l-1.5-.31c-.88-.2-1.23-.51-1.22-1.02 0-.59.64-1 1.5-1 .95 0 1.45.52 1.61 1.1l1.88-.2zm6.09-2.3h-1.72v-2.1H450v2.1h-1.24V102H450v4.86c-.01 1.64 1.18 2.45 2.73 2.4.58-.02.98-.13 1.2-.2l-.34-1.61c-.11.03-.35.08-.6.08-.52 0-.94-.18-.94-1.01V102h1.73v-1.59zm5.27 8.9c2.56 0 4.18-1.8 4.18-4.5 0-2.71-1.62-4.52-4.18-4.52-2.56 0-4.18 1.8-4.18 4.51 0 2.7 1.62 4.5 4.18 4.5zm.01-1.66c-1.41 0-2.1-1.26-2.1-2.85 0-1.6.69-2.88 2.1-2.88 1.4 0 2.09 1.28 2.09 2.88 0 1.6-.7 2.85-2.09 2.85zm5.76 1.48h2.05v-5.3c0-1.08.72-1.8 1.6-1.8.88 0 1.47.58 1.47 1.48v5.62h2.02v-5.44c0-.98.59-1.67 1.58-1.67.83 0 1.49.5 1.49 1.57v5.54h2.06v-5.86c0-1.95-1.13-2.98-2.73-2.98-1.26 0-2.23.63-2.62 1.6h-.09c-.33-1-1.18-1.6-2.35-1.6-1.18 0-2.05.6-2.41 1.6h-.1v-1.49h-1.97v8.73zm21.48.17c1.03 0 2.17-.32 2.99-1.02l.74.85h2.23l-1.7-2a5.7 5.7 0 001-3.48h-1.76c0 .77-.19 1.45-.5 2.03l-2.12-2.5.74-.53c.97-.7 1.54-1.55 1.54-2.66 0-1.42-1.12-2.64-2.95-2.64-1.84 0-3.05 1.22-3.05 2.88 0 1.04.52 1.88 1.19 2.71-1.3.9-2.18 1.73-2.18 3.1 0 1.85 1.45 3.26 3.83 3.26zm1.87-2.3a3.1 3.1 0 01-1.8.6c-1.15 0-1.88-.73-1.88-1.65 0-.4.3-1.01 1.07-1.58l.2-.14 2.4 2.77zm-2.04-5.07c-.49-.6-.84-1.14-.84-1.67 0-.63.5-1.22 1.25-1.22.73 0 1.18.55 1.18 1.05 0 .59-.32 1-.93 1.4l-.66.44zm18.75-1.53h-2.19l-2.01 6.49h-.1l-2-6.49h-2.19l3.1 8.73h2.28l3.1-8.73zm1.26 8.73h2.06v-8.73h-2.06v8.73zm1.04-9.96c.65 0 1.18-.5 1.18-1.12 0-.62-.53-1.12-1.18-1.12-.66 0-1.2.5-1.2 1.12 0 .62.54 1.12 1.2 1.12zm2.97 9.96h2.06v-5.13c0-1.1.84-1.9 1.97-1.9.34 0 .78.07.95.13v-1.9a4.96 4.96 0 00-.74-.05c-1 0-1.83.57-2.15 1.58h-.1v-1.46h-1.99v8.73zm11.01-8.73h-1.72v-2.09h-2.05v2.1h-1.24V102h1.24v4.86c-.01 1.64 1.18 2.45 2.72 2.4.59-.02 1-.13 1.21-.2l-.34-1.61c-.12.03-.35.08-.6.08-.52 0-.94-.18-.94-1.01V102h1.72v-1.59zm7.13 5.06c0 1.33-.95 1.99-1.86 1.99-.99 0-1.65-.7-1.65-1.8v-5.25h-2.05v5.56c0 2.1 1.19 3.28 2.9 3.28a2.7 2.7 0 002.63-1.66h.09v1.55h2v-8.73h-2.06v5.06zm6.52 3.85c1.37 0 2.19-.64 2.56-1.38h.07v1.2h1.98v-5.84c0-2.3-1.88-3-3.55-3-1.83 0-3.24.82-3.7 2.4l1.93.28c.2-.6.78-1.1 1.78-1.1.96 0 1.48.48 1.48 1.34v.03c0 .6-.62.62-2.16.79-1.7.18-3.31.69-3.31 2.65 0 1.72 1.26 2.63 2.92 2.63zm.54-1.51c-.86 0-1.48-.4-1.48-1.15 0-.8.7-1.12 1.61-1.25.54-.08 1.62-.21 1.89-.43v1.03c0 .97-.79 1.8-2.02 1.8zm8.03-10.3h-2.05v11.63h2.05V97.51zm10.19 2.9h-1.82v-.68c0-.69.29-1.07 1.06-1.07.32 0 .6.08.76.13l.42-1.6c-.27-.08-.85-.23-1.56-.23-1.52 0-2.73.87-2.73 2.63v.82h-1.3v1.6h1.3v7.13h2.05v-7.14h1.82v-1.59zm1.45 8.73h2.06v-8.73h-2.06v8.73zm1.03-9.96c.66 0 1.19-.5 1.19-1.12 0-.62-.53-1.12-1.19-1.12-.66 0-1.19.5-1.19 1.12 0 .62.53 1.12 1.2 1.12zm6.84 10.13c2.04 0 3.44-1 3.8-2.51l-1.92-.22c-.28.74-.96 1.13-1.85 1.13-1.33 0-2.2-.88-2.22-2.37h6.07v-.63c0-3.06-1.84-4.41-3.98-4.41-2.5 0-4.13 1.84-4.13 4.53 0 2.74 1.6 4.48 4.23 4.48zm-2.19-5.36a2.1 2.1 0 012.12-2.05c1.18 0 1.97.87 1.98 2.05h-4.1zm9.71-6.45h-2.05v11.64h2.05V97.51zm5.2 11.8c1.5 0 2.17-.9 2.5-1.53h.12v1.37h2.02V97.51h-2.06v4.36h-.09a2.59 2.59 0 00-2.49-1.56c-2.02 0-3.6 1.58-3.6 4.49 0 2.87 1.54 4.5 3.6 4.5zm.57-1.7c-1.36 0-2.07-1.19-2.07-2.82s.7-2.8 2.07-2.8c1.32 0 2.05 1.1 2.05 2.8 0 1.7-.74 2.83-2.05 2.83zm13-4.88c-.28-1.48-1.46-2.42-3.5-2.42-2.11 0-3.54 1.03-3.54 2.65 0 1.27.78 2.11 2.46 2.46l1.49.31c.8.18 1.17.5 1.17 1 0 .6-.65 1.04-1.62 1.04-.95 0-1.56-.4-1.74-1.2l-2 .2c.25 1.6 1.6 2.55 3.74 2.55 2.19 0 3.72-1.13 3.73-2.78 0-1.25-.8-2-2.45-2.37l-1.5-.31c-.88-.2-1.23-.51-1.23-1.02 0-.59.65-1 1.51-1 .95 0 1.45.52 1.6 1.1l1.88-.2z" fill="#fff"/></g><g filter="url(#filter5_d)"><rect x="48.94" y="363.73" width="214.35" height="42" rx="21" fill="#fff"/><rect x="48.94" y="363.73" width="214.35" height="42" rx="21" fill="url(#paint2_linear)"/><path d="M66.09 389.73h2.1v-3.94h2.23c2.69 0 4.13-1.61 4.13-3.85 0-2.22-1.42-3.85-4.1-3.85h-4.36v11.64zm2.1-5.67v-4.21h1.94c1.58 0 2.27.85 2.27 2.1 0 1.23-.7 2.11-2.26 2.11h-1.95zm11.62 5.83c2.56 0 4.19-1.8 4.19-4.5s-1.63-4.5-4.19-4.5c-2.55 0-4.18 1.8-4.18 4.5s1.63 4.5 4.18 4.5zm.02-1.64c-1.42 0-2.11-1.26-2.11-2.86 0-1.6.7-2.88 2.1-2.88 1.4 0 2.1 1.28 2.1 2.88 0 1.6-.7 2.86-2.1 2.86zm7.32 1.48h2.15l1.63-5.9h.12l1.64 5.9h2.14L97.3 381h-2.1l-1.51 6.1h-.09l-1.56-6.1h-2.08l-1.57 6.13h-.08L86.78 381h-2.1l2.47 8.73zm15.06.16c2.03 0 3.43-.99 3.8-2.5l-1.93-.22c-.28.74-.96 1.12-1.84 1.12-1.33 0-2.21-.87-2.23-2.37h6.08v-.63c0-3.06-1.84-4.4-3.99-4.4-2.5 0-4.13 1.83-4.13 4.52 0 2.74 1.6 4.48 4.24 4.48zm-2.2-5.35a2.1 2.1 0 012.12-2.05c1.18 0 1.98.86 1.99 2.05h-4.1zm7.66 5.19h2.05v-5.14c0-1.1.84-1.89 1.97-1.89.35 0 .78.06.96.12v-1.9a4.96 4.96 0 00-.74-.05c-1 0-1.84.57-2.16 1.58h-.09V381h-2v8.73zm11.07-8.73h-1.81v-.69c0-.68.28-1.06 1.05-1.06.32 0 .6.07.77.12l.41-1.59a5.17 5.17 0 00-1.56-.24c-1.52 0-2.73.87-2.73 2.63v.83h-1.29v1.59h1.3v7.14h2.05v-7.14h1.81v-1.6zm7.02 5.05c0 1.33-.95 2-1.86 2-1 0-1.65-.7-1.65-1.81V381h-2.06v5.55c0 2.1 1.2 3.29 2.91 3.29a2.7 2.7 0 002.63-1.67h.09v1.56h2V381h-2.06v5.05zm6.06-7.96h-2.05v11.64h2.05v-11.64zm12.67 5.21c-.29-1.47-1.47-2.42-3.52-2.42-2.1 0-3.53 1.04-3.53 2.65 0 1.27.78 2.12 2.46 2.46l1.49.31c.8.18 1.17.5 1.17 1 0 .6-.64 1.04-1.62 1.04-.94 0-1.56-.4-1.73-1.19l-2 .2c.25 1.6 1.6 2.54 3.73 2.54 2.19 0 3.73-1.13 3.73-2.78 0-1.24-.8-2-2.45-2.36l-1.5-.32c-.88-.2-1.23-.5-1.22-1.01-.01-.6.64-1 1.5-1 .95 0 1.45.51 1.61 1.09l1.88-.2zm5.52 6.6c2.56 0 4.19-1.8 4.19-4.5s-1.63-4.52-4.19-4.52c-2.55 0-4.18 1.81-4.18 4.51 0 2.7 1.63 4.5 4.18 4.5zm.02-1.65c-1.42 0-2.11-1.26-2.11-2.86 0-1.6.7-2.88 2.1-2.88 1.4 0 2.1 1.28 2.1 2.88 0 1.6-.7 2.86-2.1 2.86zm5.75 1.48h2.06v-5.14c0-1.1.84-1.89 1.97-1.89.34 0 .77.06.95.12v-1.9a4.95 4.95 0 00-.74-.05c-1 0-1.83.57-2.15 1.58h-.1V381h-1.99v8.73zM166.8 381h-1.72v-2.1h-2.06v2.1h-1.23v1.59H163v4.85c0 1.64 1.19 2.45 2.73 2.4.59-.01 1-.13 1.21-.2l-.34-1.6c-.12.02-.35.07-.6.07-.52 0-.94-.18-.94-1.01v-4.51h1.72v-1.6zm8.85 8.9c1.03 0 2.17-.32 2.98-1.03l.75.86h2.22l-1.7-2a5.7 5.7 0 001.01-3.49h-1.77c0 .77-.18 1.46-.48 2.03l-2.13-2.49.73-.54c.97-.7 1.55-1.55 1.55-2.65 0-1.42-1.12-2.64-2.96-2.64-1.84 0-3.05 1.22-3.05 2.87 0 1.04.53 1.89 1.2 2.72-1.3.89-2.19 1.72-2.19 3.1 0 1.85 1.46 3.25 3.84 3.25zm1.86-2.31a3.1 3.1 0 01-1.8.61c-1.14 0-1.88-.74-1.88-1.66 0-.4.3-1 1.08-1.58l.19-.13 2.41 2.76zm-2.03-5.06c-.49-.6-.84-1.15-.84-1.68 0-.63.5-1.22 1.24-1.22.73 0 1.18.55 1.18 1.05 0 .59-.31 1-.92 1.4l-.66.45zm15.37-1.53h-1.81v-.69c0-.68.28-1.06 1.05-1.06.32 0 .6.07.77.12l.41-1.59a5.16 5.16 0 00-1.56-.24c-1.52 0-2.73.87-2.73 2.63v.83h-1.29v1.59h1.3v7.14h2.05v-7.14h1.81v-1.6zm1.45 8.73h2.06V381h-2.06v8.73zm1.03-9.97c.66 0 1.2-.5 1.2-1.12 0-.61-.54-1.11-1.2-1.11-.65 0-1.19.5-1.19 1.12 0 .6.54 1.1 1.2 1.1zm5.04-1.67h-2.06v11.64h2.06v-11.64zm6.31 2.9h-1.72v-2.08h-2.05V381h-1.24v1.59h1.24v4.85c-.02 1.64 1.18 2.45 2.72 2.4.59-.01 1-.13 1.21-.2l-.34-1.6c-.12.02-.35.07-.6.07-.52 0-.94-.18-.94-1.01v-4.51h1.72v-1.6zm5.33 8.9c2.04 0 3.44-.99 3.8-2.5l-1.92-.22c-.28.74-.96 1.12-1.85 1.12-1.33 0-2.2-.87-2.23-2.37h6.08v-.63c0-3.06-1.84-4.4-3.98-4.4-2.5 0-4.14 1.83-4.14 4.52 0 2.74 1.61 4.48 4.24 4.48zm-2.19-5.35a2.1 2.1 0 012.11-2.05c1.19 0 1.98.86 2 2.05h-4.11zm7.65 5.19h2.06v-5.14c0-1.1.84-1.89 1.97-1.89.34 0 .77.06.95.12v-1.9a4.94 4.94 0 00-.74-.05c-1 0-1.83.57-2.15 1.58h-.1V381h-1.99v8.73zm6.19 0h2.05V381h-2.05v8.73zm1.03-9.97c.66 0 1.19-.5 1.19-1.12 0-.61-.53-1.11-1.19-1.11-.66 0-1.2.5-1.2 1.12 0 .6.54 1.1 1.2 1.1zm5.04 4.85c0-1.26.76-1.99 1.84-1.99 1.06 0 1.7.7 1.7 1.87v5.24h2.06v-5.56c0-2.1-1.19-3.29-2.99-3.29-1.3 0-2.2.63-2.6 1.6h-.1V381h-1.97v8.73h2.06v-5.12zm11.32 8.57c2.36 0 4.1-1.08 4.1-3.31V381h-2.03v1.44H241a2.6 2.6 0 00-2.5-1.56c-2.02 0-3.6 1.58-3.6 4.45 0 2.85 1.58 4.27 3.59 4.27 1.5 0 2.2-.8 2.51-1.44h.1v1.65c0 1.28-.85 1.81-2.02 1.81-1.24 0-1.79-.58-2.04-1.1l-1.85.46c.38 1.22 1.63 2.2 3.85 2.2zm.02-5.2c-1.36 0-2.07-1.05-2.07-2.66 0-1.58.7-2.75 2.07-2.75 1.33 0 2.05 1.1 2.05 2.75 0 1.67-.74 2.67-2.05 2.67z" fill="#fff"/></g><defs><filter id="filter0_d" x=".44" y="67.22" width="450" height="424" filterUnits="userSpaceOnUse" color-interpolation-filters="sRGB"><feFlood flood-opacity="0" result="BackgroundImageFix"/><feColorMatrix in="SourceAlpha" values="0 0 0 0 0 0 0 0 0 0 0 0 0 0 0 0 0 0 127 0"/><feMorphology radius="20" operator="dilate" in="SourceAlpha" result="effect1_dropShadow"/><feOffset dy="15"/><feGaussianBlur stdDeviation="22.5"/><feColorMatrix values="0 0 0 0 0.0862745 0 0 0 0 0.419608 0 0 0 0 1 0 0 0 0.07 0"/><feBlend in2="BackgroundImageFix" result="effect1_dropShadow"/><feBlend in="SourceGraphic" in2="effect1_dropShadow" result="shape"/></filter><filter id="filter1_d" x="102.44" y=".22" width="450" height="424" filterUnits="userSpaceOnUse" color-interpolation-filters="sRGB"><feFlood flood-opacity="0" result="BackgroundImageFix"/><feColorMatrix in="SourceAlpha" values="0 0 0 0 0 0 0 0 0 0 0 0 0 0 0 0 0 0 127 0"/><feMorphology radius="20" operator="dilate" in="SourceAlpha" result="effect1_dropShadow"/><feOffset dy="15"/><feGaussianBlur stdDeviation="22.5"/><feColorMatrix values="0 0 0 0 0.0862745 0 0 0 0 0.419608 0 0 0 0 1 0 0 0 0.07 0"/><feBlend in2="BackgroundImageFix" result="effect1_dropShadow"/><feBlend in="SourceGraphic" in2="effect1_dropShadow" result="shape"/></filter><filter id="filter2_d" x="239.69" y="96.41" width="452" height="434" filterUnits="userSpaceOnUse" color-interpolation-filters="sRGB"><feFlood flood-opacity="0" result="BackgroundImageFix"/><feColorMatrix in="SourceAlpha" values="0 0 0 0 0 0 0 0 0 0 0 0 0 0 0 0 0 0 127 0"/><feMorphology radius="20" operator="dilate" in="SourceAlpha" result="effect1_dropShadow"/><feOffset dy="15"/><feGaussianBlur stdDeviation="22.5"/><feColorMatrix values="0 0 0 0 0.0862745 0 0 0 0 0.419608 0 0 0 0 1 0 0 0 0.07 0"/><feBlend in2="BackgroundImageFix" result="effect1_dropShadow"/><feBlend in="SourceGraphic" in2="effect1_dropShadow" result="shape"/></filter><filter id="filter3_d" x="464.44" y="305.23" width="238.75" height="84" filterUnits="userSpaceOnUse" color-interpolation-filters="sRGB"><feFlood flood-opacity="0" result="BackgroundImageFix"/><feColorMatrix in="SourceAlpha" values="0 0 0 0 0 0 0 0 0 0 0 0 0 0 0 0 0 0 127 0"/><feOffset dy="15"/><feGaussianBlur stdDeviation="10.5"/><feColorMatrix values="0 0 0 0 0.0478125 0 0 0 0 0.06375 0 0 0 0 0.802188 0 0 0 0.12 0"/><feBlend in2="BackgroundImageFix" result="effect1_dropShadow"/><feBlend in="SourceGraphic" in2="effect1_dropShadow" result="shape"/></filter><filter id="filter4_d" x="381.44" y="77.15" width="251" height="84" filterUnits="userSpaceOnUse" color-interpolation-filters="sRGB"><feFlood flood-opacity="0" result="BackgroundImageFix"/><feColorMatrix in="SourceAlpha" values="0 0 0 0 0 0 0 0 0 0 0 0 0 0 0 0 0 0 127 0"/><feOffset dy="15"/><feGaussianBlur stdDeviation="10.5"/><feColorMatrix values="0 0 0 0 0.0478125 0 0 0 0 0.06375 0 0 0 0 0.802188 0 0 0 0.12 0"/><feBlend in2="BackgroundImageFix" result="effect1_dropShadow"/><feBlend in="SourceGraphic" in2="effect1_dropShadow" result="shape"/></filter><filter id="filter5_d" x="27.94" y="357.73" width="256.35" height="84" filterUnits="userSpaceOnUse" color-interpolation-filters="sRGB"><feFlood flood-opacity="0" result="BackgroundImageFix"/><feColorMatrix in="SourceAlpha" values="0 0 0 0 0 0 0 0 0 0 0 0 0 0 0 0 0 0 127 0"/><feOffset dy="15"/><feGaussianBlur stdDeviation="10.5"/><feColorMatrix values="0 0 0 0 0.0478125 0 0 0 0 0.06375 0 0 0 0 0.802188 0 0 0 0.12 0"/><feBlend in2="BackgroundImageFix" result="effect1_dropShadow"/><feBlend in="SourceGraphic" in2="effect1_dropShadow" result="shape"/></filter><clipPath id="clip0"><rect x="65.44" y="117.22" width="320" height="294" rx="24" fill="#fff"/></clipPath><clipPath id="clip1"><rect x="167.44" y="50.22" width="320" height="294" rx="24" fill="#fff"/></clipPath><clipPath id="clip2"><path fill="#fff" transform="translate(431.44 162.22)" d="M0 0h16v16H0z"/></clipPath><clipPath id="clip3"><rect x="305.69" y="147.41" width="320" height="302" rx="24" fill="#fff"/></clipPath><linearGradient id="paint0_linear" x1="507.64" y1="332.04" x2="531.88" y2="387.45" gradientUnits="userSpaceOnUse"><stop stop-color="#6373F1"/><stop offset="1" stop-color="#9884FC"/></linearGradient><linearGradient id="paint1_linear" x1="426.02" y1="103.97" x2="449.26" y2="160.41" gradientUnits="userSpaceOnUse"><stop stop-color="#6373F1"/><stop offset="1" stop-color="#9884FC"/></linearGradient><linearGradient id="paint2_linear" x1="73.13" y1="384.54" x2="95.95" y2="441.39" gradientUnits="userSpaceOnUse"><stop stop-color="#6373F1"/><stop offset="1" stop-color="#9884FC"/></linearGradient></defs></svg>