<svg viewBox="0 0 632 447" fill="none" xmlns="http://www.w3.org/2000/svg"><rect x="243.07" y="150.48" width="145.86" height="145.86" rx="39" stroke="url(#paint0_linear)" stroke-opacity=".15" stroke-width="4"/><rect x="226.82" y="134.23" width="178.36" height="178.36" rx="56" stroke="url(#paint1_linear)" stroke-opacity=".07" stroke-width="4"/><rect x="257.51" y="164.92" width="116.97" height="116.97" rx="28" stroke="url(#paint2_linear)" stroke-opacity=".38" stroke-width="4"/><rect x="212.15" y="119.78" width="207.7" height="207.7" rx="66" stroke="url(#paint3_linear)" stroke-opacity=".04" stroke-width="4"/><path fill-rule="evenodd" clip-rule="evenodd" d="M288.31 179.24a16.63 16.63 0 00-16.6 16.65v55.49c0 9.2 7.43 16.64 16.6 16.64h55.38c9.17 0 16.6-7.45 16.6-16.64v-55.5c0-9.19-7.43-16.64-16.6-16.64H288.3zm20.2 54.71v13.27H296.6V200.3h11.9v20.16h.62l15.57-20.16h12.79L321.28 221l17.14 26.2h-13.99l-11.8-18.5-4.13 5.24z" fill="url(#paint4_linear)"/><path d="M315.31 64.8v-6.35a10.1 10.1 0 009.36-13.77 9.52 9.52 0 00-5.66-5.65 10.09 10.09 0 00-13.74 9.37h-6.33a16.43 16.43 0 0121.59-15.59 15.87 15.87 0 0110.34 10.37A16.46 16.46 0 01315.3 64.8z" fill="#A0AEC0"/><path fill-rule="evenodd" clip-rule="evenodd" d="M315.33 58.48H309v-6.34h6.33v6.34zM309 63.34h-4.84v-4.86H309v4.86zM304.16 58.48h-4.07v-4.07h4.07v4.07z" fill="#A0AEC0"/><path d="M288.25 71.25a5.2 5.2 0 00-3.05-.86h-2.6v8.28h2.62c1.2 0 2.23-.3 3.05-.91.44-.32.8-.76 1.06-1.32.24-.56.37-1.23.37-1.96 0-.72-.13-1.37-.37-1.93a3 3 0 00-1.08-1.3zm-4.12.54h.81c.91 0 1.66.18 2.23.54.63.39.95 1.11.95 2.15 0 1.08-.32 1.85-.95 2.26a4 4 0 01-2.2.53h-.84V71.8zM291.5 70.28c-.26 0-.47.1-.65.26a.85.85 0 00-.26.63.9.9 0 00.9.91c.25 0 .47-.09.66-.26a.9.9 0 00.26-.65c0-.26-.1-.46-.26-.63a.96.96 0 00-.65-.26zM292.22 72.83h-1.47v5.84h1.47v-5.84zM297.55 73.31c-.45-.39-.93-.63-1.47-.63-.81 0-1.48.28-2 .84-.52.54-.8 1.24-.8 2.1 0 .82.26 1.52.78 2.08.52.54 1.2.82 2 .82.56 0 1.06-.15 1.45-.47v.13c0 .49-.13.86-.39 1.12-.26.26-.61.4-1.06.4-.66 0-1.1-.27-1.61-.98l-1 .97.01.04c.23.3.54.6.99.87.43.28.98.43 1.63.43.88 0 1.58-.26 2.1-.8s.78-1.25.78-2.12v-5.3h-1.45v.5h.04zm-.4 3.46c-.25.3-.58.43-1 .43-.42 0-.74-.15-1-.43-.26-.3-.37-.67-.37-1.13 0-.49.13-.86.37-1.16.25-.3.6-.42 1-.42.43 0 .75.14 1 .42.27.3.4.7.4 1.16 0 .46-.13.83-.4 1.13zM301.7 72.83h-1.46v5.84h1.47v-5.84zM300.98 70.28c-.26 0-.46.1-.65.26a.86.86 0 00-.26.63c0 .26.1.47.26.65a.9.9 0 00.65.26c.25 0 .47-.09.65-.26a.9.9 0 00.26-.65c0-.26-.09-.46-.26-.63a.93.93 0 00-.65-.26zM304.92 71.25h-1.45v1.58h-.84v1.34h.84v2.41c0 .77.15 1.3.45 1.62.3.32.83.47 1.57.47.25 0 .49 0 .7-.02h.08V77.3l-.5.02c-.35 0-.57-.06-.69-.19-.1-.13-.16-.39-.16-.78v-2.21h1.37V72.8h-1.37v-1.56zM314.63 70.37h-1.47v8.3h1.47v-8.3zM329.44 76.58a4 4 0 01-.74.7c-.2.12-.47.2-.76.2a1.3 1.3 0 01-1.06-.49 1.83 1.83 0 01-.43-1.22c0-.5.15-.92.43-1.23.28-.32.63-.49 1.06-.49.46 0 .96.3 1.39.8l.96-.93a2.89 2.89 0 00-2.4-1.2 2.95 2.95 0 00-2.93 3.05c0 .87.3 1.6.86 2.17.57.58 1.26.88 2.08.88 1.06 0 1.91-.47 2.5-1.3l-.96-.94zM335.47 73.65c-.2-.3-.48-.53-.83-.7a2.8 2.8 0 00-1.21-.25c-.82 0-1.49.3-1.99.89-.48.6-.74 1.32-.74 2.2 0 .89.28 1.61.8 2.17a2.8 2.8 0 002.12.84c.98 0 1.8-.41 2.4-1.2l.05-.03-.97-.93-.33.33c-.15.14-.28.25-.43.32-.22.11-.46.17-.74.17-.41 0-.75-.11-1-.35a1.36 1.36 0 01-.43-.9h3.88l.02-.54c0-.37-.06-.74-.15-1.08-.1-.33-.24-.65-.45-.94zm-3.2 1.37c.06-.28.2-.52.38-.69.2-.2.47-.3.76-.3.35 0 .63.1.82.3.17.19.28.41.3.7h-2.27zM341.1 73.27a2.77 2.77 0 00-1.82-.57c-.48 0-.95.1-1.36.31a2.4 2.4 0 00-1 .93l.02.02.95.9c.39-.62.81-.84 1.39-.84.31 0 .56.07.76.24.19.17.3.37.3.63v.28a3.7 3.7 0 00-1.08-.17c-.72 0-1.32.17-1.76.5-.45.34-.67.84-.67 1.47 0 .56.18 1 .57 1.33.4.31.86.48 1.41.48.56 0 1.08-.22 1.56-.61v.48h1.45v-3.76c-.06-.69-.28-1.24-.72-1.62zm-2.6 3.17c.17-.12.4-.17.7-.17.36 0 .73.07 1.12.2v.58c-.32.3-.75.45-1.26.45a.94.94 0 01-.6-.17.53.53 0 01-.2-.43c0-.2.07-.35.24-.46zM347.4 73.38c-.4-.46-.98-.68-1.7-.68-.57 0-1.06.16-1.41.5v-.35h-1.43v5.82h1.47v-3.22c0-.45.1-.8.31-1.04.2-.24.49-.37.88-.37.33 0 .57.1.76.33.18.22.27.54.27.91v3.39h1.47v-3.39c0-.8-.2-1.45-.61-1.9zM311.32 73.27a2.77 2.77 0 00-1.82-.57c-.48 0-.94.1-1.35.31a2.4 2.4 0 00-1 .93l.01.02.95.9c.4-.62.82-.84 1.4-.84.3 0 .55.07.75.24.19.17.3.37.3.63v.28a3.7 3.7 0 00-1.07-.17c-.73 0-1.32.17-1.77.5-.44.34-.67.84-.67 1.47 0 .56.19 1 .58 1.33.39.31.85.48 1.4.48.57 0 1.09-.22 1.57-.61v.48h1.45v-3.76c-.06-.69-.28-1.24-.73-1.62zm-2.6 3.17c.17-.12.41-.17.7-.17.36 0 .73.07 1.12.2v.58c-.31.3-.74.45-1.26.45a.94.94 0 01-.6-.17.53.53 0 01-.2-.43c0-.2.08-.35.24-.46zM319.95 78.8a4.27 4.27 0 11.01-8.55 4.27 4.27 0 010 8.55zm0-7.05a2.78 2.78 0 000 5.54 2.78 2.78 0 000-5.54zM97.16 209.7H78.9a2.28 2.28 0 00-2.29 2.3v20.9c0 1.28 1.02 2.3 2.3 2.3h18.25a2.28 2.28 0 002.29-2.3V212c0-1.28-1.02-2.3-2.3-2.3zm1.01 23.2a1 1 0 01-1.01 1.03H78.9a1 1 0 01-1.02-1.02v-20.92a1 1 0 011.02-1.02h18.26a1 1 0 011.01 1.02v20.92zm-15.83-1.52l2.86-2.55-2.86-2.56v5.1zm10.3-10.33a4.15 4.15 0 00-3.05-1.15c-1.72 0-3.5.45-4.77.9v-7.28h-2.55v11.03l1.78-.83s2.93-1.33 5.47-1.33c1.28 0 1.6.7 1.6 1.34v7.65h2.54v-7.66c.06-.19.06-1.59-1.02-2.67zm-3.37-3.38h2.54a7.7 7.7 0 001.91-4.15h-2.54a9.43 9.43 0 01-1.91 4.15zm70.28 6v-5.62h2.55v5.61c0 1.28.44 1.91 1.46 1.91s1.4-.57 1.4-1.9v-5.62h2.48v5.67c0 2.5-1.2 3.96-3.94 3.96-2.74-.07-3.95-1.53-3.95-4.02zm-10.68-5.62h2.54v3.44l2.61-3.44h2.93l-3.19 3.7 3.44 5.74h-2.86l-2.23-3.77-.7.83v2.94h-2.54v-9.44zm-12.09 4.66c0-3.45 2.36-4.91 4.65-4.91 2.29 0 4.64 1.46 4.64 4.9 0 3.45-2.35 4.91-4.64 4.91-2.3 0-4.65-1.4-4.65-4.9zm6.68 0c0-1.73-.76-2.81-2.1-2.81-1.33 0-2.1 1.08-2.1 2.8 0 1.73.77 2.87 2.1 2.87 1.34 0 2.1-1.08 2.1-2.86zm-16.92-4.66h3.7c2.4 0 3.87.83 3.87 3.06 0 1.47-.64 2.36-1.84 2.74l1.97 3.64h-2.67l-1.85-3.25h-.7v3.25h-2.48v-9.44zm3.63 4.2c1.02 0 1.52-.31 1.52-1.07 0-.77-.44-1.09-1.52-1.09h-1.08v2.17h1.08zm-13.36-4.2h6.74v2.1h-4.2v1.53h3v1.98h-3v1.72h4.4v2.04h-6.94v-9.37zm-11.51 0h2.54v3.5h3.12v-3.5h2.54v9.44h-2.54v-3.83h-3.12v3.83h-2.54v-9.44z" fill="#A0AEC0"/><path d="M485.04 216.5h.78l2.24-2.24.11-.96a10.05 10.05 0 00-16.38 4.93c.25-.1.53-.12.79-.05l4.48-.74s.22-.38.34-.36c2-2.19 5.35-2.45 7.65-.58h-.01z" fill="#CBD5E0"/><path d="M491.25 218.23a10.1 10.1 0 00-3.04-4.92l-3.14 3.15a5.6 5.6 0 012.05 4.44v.56a2.8 2.8 0 010 5.61h-5.6l-.56.57V231l.56.56h5.6a7.29 7.29 0 004.13-13.33z" fill="#96A5BA"/><path d="M475.92 231.53h5.6v-4.5h-5.6c-.4 0-.8-.08-1.16-.25l-.78.25-2.26 2.25-.2.78a7.21 7.21 0 004.4 1.47z" fill="#A0AEC0"/><path d="M475.92 216.97a7.28 7.28 0 00-4.4 13.07l3.25-3.25a2.8 2.8 0 012.3-5.11 2.8 2.8 0 011.4 1.4l3.25-3.25a7.26 7.26 0 00-5.8-2.86z" fill="#DDE0E4"/><path d="M509.35 228.4a7.15 7.15 0 01-5.19-2.14 6.93 6.93 0 01-2.17-5.14 6.95 6.95 0 012.17-5.13 7.15 7.15 0 015.2-2.18c1.85-.02 3.64.7 4.97 2.01l-1.4 1.43a5.04 5.04 0 00-3.58-1.42 4.98 4.98 0 00-3.7 1.58 5.16 5.16 0 00-1.51 3.74 5.27 5.27 0 008.87 3.78c.62-.68 1-1.54 1.08-2.45h-4.72v-2.02h6.68c.06.4.09.82.08 1.23a6.32 6.32 0 01-1.73 4.65 6.69 6.69 0 01-5.05 2.05zm15.51-1.35a4.8 4.8 0 01-6.65 0 4.5 4.5 0 01-1.36-3.34 4.5 4.5 0 011.36-3.35 4.81 4.81 0 016.65 0 4.5 4.5 0 011.37 3.35 4.5 4.5 0 01-1.37 3.34zm-5.18-1.31a2.54 2.54 0 003.71 0c.53-.55.81-1.28.79-2.03.02-.76-.26-1.5-.79-2.04a2.58 2.58 0 00-3.73 0c-.53.54-.8 1.28-.79 2.04a2.8 2.8 0 00.8 2.03zm15.42 1.31a4.8 4.8 0 01-6.66 0 4.5 4.5 0 01-1.36-3.34 4.5 4.5 0 011.36-3.35 4.8 4.8 0 016.66 0 4.5 4.5 0 011.36 3.35 4.5 4.5 0 01-1.36 3.34zm-5.19-1.31a2.54 2.54 0 003.6.12l.12-.12c.52-.55.8-1.28.78-2.03.03-.76-.26-1.5-.78-2.04a2.58 2.58 0 00-3.74 0c-.52.54-.8 1.28-.78 2.04a2.8 2.8 0 00.8 2.03zm11.91 6.86a4.11 4.11 0 01-2.61-.84 4.83 4.83 0 01-1.53-1.94l1.8-.74c.19.45.5.86.88 1.17.41.34.94.51 1.47.5.68.04 1.35-.22 1.83-.71.48-.57.7-1.3.65-2.05v-.68h-.07a3 3 0 01-2.46 1.07c-1.19 0-2.33-.5-3.14-1.37a4.54 4.54 0 01-1.34-3.3 4.58 4.58 0 011.34-3.33 4.26 4.26 0 013.14-1.38 3.38 3.38 0 012.47 1.07h.07v-.74h1.95v8.38a4.9 4.9 0 01-1.25 3.67 4.4 4.4 0 01-3.2 1.22zm.15-6.05c.67.01 1.33-.28 1.77-.79.49-.55.74-1.27.72-2.01a2.98 2.98 0 00-.72-2.06c-.44-.51-1.1-.8-1.77-.79-.7-.01-1.37.28-1.84.79-.52.55-.8 1.28-.79 2.04-.01.75.27 1.48.79 2.02.47.52 1.14.8 1.84.8zm7.77-12.2v13.76h-2.05v-13.77h2.05zm5.63 14.04a4.56 4.56 0 01-4.64-4.69 4.63 4.63 0 011.28-3.36 4.21 4.21 0 013.14-1.32 3.96 3.96 0 012.78 1.1 5.49 5.49 0 011.25 1.87l.2.53-6.28 2.6c.4.9 1.29 1.46 2.26 1.41.95 0 1.82-.49 2.3-1.3l1.58 1.07c-.4.57-.91 1.06-1.51 1.43-.7.45-1.53.68-2.36.66zm-2.63-4.83l4.18-1.74c-.13-.3-.36-.56-.65-.71-.33-.19-.7-.28-1.08-.28-.64.02-1.24.29-1.69.75a2.5 2.5 0 00-.76 1.98zM301.74 391.53c0 .77.08 1.39.23 1.84.16.46.37.96.66 1.5.1.16.15.33.15.47 0 .21-.13.42-.4.63l-1.3.87a1 1 0 01-.54.18c-.2 0-.41-.1-.62-.29a6.38 6.38 0 01-.74-.97c-.21-.36-.42-.75-.64-1.22a7.64 7.64 0 01-6.09 2.86c-1.73 0-3.12-.5-4.13-1.5a5.33 5.33 0 01-1.53-3.98c0-1.76.62-3.19 1.88-4.27 1.26-1.08 2.94-1.61 5.07-1.61.7 0 1.42.06 2.19.16.76.1 1.55.27 2.38.46v-1.52c0-1.57-.33-2.67-.97-3.31-.67-.65-1.78-.96-3.38-.96-.72 0-1.46.09-2.23.27-.77.19-1.51.42-2.23.7a5.9 5.9 0 01-.73.28c-.14.04-.25.06-.33.06-.29 0-.43-.2-.43-.64v-1.02c0-.33.04-.58.14-.72.1-.15.3-.3.58-.44.72-.37 1.6-.68 2.6-.93 1.02-.27 2.1-.4 3.23-.4 2.47 0 4.26.56 5.42 1.68 1.14 1.12 1.72 2.82 1.72 5.1v6.72h.04zm-8.4 3.15c.69 0 1.39-.12 2.13-.37a4.6 4.6 0 001.97-1.33c.33-.4.58-.83.7-1.33.13-.5.21-1.1.21-1.8v-.87a17.07 17.07 0 00-3.85-.48c-1.38 0-2.4.27-3.08.83-.68.56-1.01 1.35-1.01 2.38 0 .98.24 1.7.76 2.2.5.52 1.22.77 2.17.77zm16.62 2.24c-.38 0-.63-.06-.8-.2-.16-.13-.3-.42-.43-.82l-4.86-16.02a3.63 3.63 0 01-.18-.83c0-.33.16-.52.5-.52h2.02c.4 0 .66.06.8.2.17.13.3.42.42.82l3.48 13.72 3.22-13.72c.1-.42.23-.69.4-.81.16-.13.45-.2.82-.2h1.66c.4 0 .66.05.83.2.16.12.3.41.39.8l3.27 13.9 3.58-13.9c.12-.4.27-.68.41-.8.17-.13.44-.2.8-.2h1.93c.33 0 .52.16.52.5 0 .11-.02.22-.04.34-.02.13-.06.3-.15.52l-4.98 16.02c-.13.42-.27.69-.44.81-.16.13-.43.21-.78.21h-1.78c-.4 0-.67-.06-.83-.2-.17-.15-.31-.42-.4-.84l-3.2-13.37-3.19 13.35c-.1.42-.22.69-.39.83-.16.15-.45.2-.83.2h-1.78zm26.58.56a13.65 13.65 0 01-5.57-1.2c-.33-.19-.56-.4-.64-.58-.08-.2-.12-.4-.12-.58v-1.06c0-.44.16-.64.47-.64.13 0 .25.02.38.06l.51.2a11.2 11.2 0 004.74.98c1.3 0 2.32-.23 3.02-.69a2.23 2.23 0 001.08-1.96c0-.58-.19-1.06-.56-1.45a5.18 5.18 0 00-2.1-1.08l-3-.94a6.31 6.31 0 01-3.3-2.11 4.95 4.95 0 01-.48-5.3c.38-.67.87-1.25 1.5-1.7a6.57 6.57 0 012.14-1.09 10.23 10.23 0 014-.27c.47.07.9.15 1.34.23.41.1.8.21 1.18.33.37.13.66.25.87.38.29.16.5.33.62.52.12.16.19.39.19.68v.97c0 .44-.17.67-.48.67-.17 0-.44-.09-.79-.25a9.44 9.44 0 00-3.97-.81c-1.18 0-2.1.19-2.75.58-.64.4-.97 1-.97 1.85 0 .58.2 1.07.62 1.47.41.4 1.18.79 2.27 1.14l2.94.93a6.29 6.29 0 013.2 2c.65.84.96 1.81.96 2.9 0 .88-.19 1.7-.54 2.4-.37.7-.87 1.32-1.5 1.82-.65.52-1.42.9-2.3 1.16-.94.3-1.9.44-2.96.44z" fill="#A0AEC0"/><path fill-rule="evenodd" clip-rule="evenodd" d="M340.45 407.55c-6.8 5.04-16.7 7.72-25.2 7.72a45.53 45.53 0 01-30.76-11.76c-.64-.58-.06-1.37.7-.91a61.93 61.93 0 0030.79 8.19c7.54 0 15.84-1.58 23.47-4.81 1.14-.52 2.11.75 1 1.57z" fill="#A0AEC0"/><path fill-rule="evenodd" clip-rule="evenodd" d="M343.28 404.32c-.87-1.12-5.75-.54-7.96-.27-.67.08-.77-.5-.17-.93 3.89-2.74 10.28-1.95 11.03-1.04.74.93-.21 7.34-3.85 10.4-.56.48-1.1.23-.85-.39.83-2.05 2.67-6.67 1.8-7.77z" fill="#A0AEC0"/><path d="M447.18 111.87c-1.13 0-2 .29-2.87.75v8.32c0 .23-.19.44-.41.44H442c-.23 0-.42-.2-.42-.44v-10.83c0-.22.19-.41.41-.41h1.8c.23 0 .42.19.42.41v.44a4.9 4.9 0 012.98-1c.22 0 .41.2.41.42v1.48a.44.44 0 01-.42.42zM458.12 116.48h-6.77v.06c0 1.2.5 2.63 2.5 2.63 1.51 0 2.95-.12 3.81-.2h.07c.21 0 .37.1.37.3v1.37c0 .34-.07.48-.44.54-1.35.24-2.15.35-4.03.35-2.07 0-5.03-1.12-5.03-5.2v-1.53c0-3.23 1.81-5.26 4.99-5.26 3.2 0 4.94 2.17 4.94 5.26v1.16c0 .34-.12.52-.4.52zm-2.34-2.03c0-1.6-.9-2.55-2.18-2.55-1.28 0-2.22.9-2.22 2.55v.08h4.4v-.08zM470.06 121.37h-1.91c-.23 0-.42-.2-.42-.44v-6.75c0-1.8-.17-2.31-1.76-2.31-.7 0-1.47.29-2.35.75v8.32c0 .23-.19.44-.41.44h-1.91c-.23 0-.42-.2-.42-.44v-10.83c0-.22.2-.41.42-.41h1.8c.23 0 .42.19.42.41v.44c1.2-.76 2-1 3.37-1 2.99 0 3.6 2 3.6 4.63v6.75c-.02.24-.2.44-.44.44zM481.9 121c-1.3.34-2.84.54-4.18.54-3.34 0-4.96-1.97-4.96-5.2v-1.59c0-3.23 1.62-5.19 4.96-5.19.5 0 1.22.05 2 .15v-3.66c0-.23.2-.42.41-.42h1.91c.23 0 .42.2.42.42v14.41c0 .3-.1.42-.56.54zm-2.18-9.08c-.58-.08-1.5-.14-2-.14-1.78 0-2.22 1.26-2.22 2.96v1.6c0 1.7.44 2.96 2.22 2.96.75 0 1.6-.07 2-.15v-7.23zM494.31 116.48h-6.77v.06c0 1.2.5 2.63 2.5 2.63 1.51 0 2.95-.12 3.81-.2h.07c.2 0 .37.1.37.3v1.37c0 .34-.07.48-.44.54-1.35.24-2.15.35-4.03.35-2.07 0-5.03-1.12-5.03-5.2v-1.53c0-3.23 1.81-5.26 4.99-5.26 3.2 0 4.94 2.17 4.94 5.26v1.16c0 .34-.12.52-.4.52zm-2.34-2.03c0-1.6-.9-2.55-2.18-2.55-1.3 0-2.22.9-2.22 2.55v.08h4.4v-.08zM502.69 111.87c-1.13 0-2 .29-2.87.75v8.32c0 .23-.19.44-.41.44h-1.91c-.22 0-.42-.2-.42-.44v-10.83c0-.22.2-.41.42-.41h1.8c.23 0 .42.19.42.41v.44c1.02-.79 2.15-1 2.98-1 .22 0 .41.2.41.42v1.48a.44.44 0 01-.42.42zM427.68 103.02h-.23V105.53H430V103.02H427.67zM420.97 103.02a5.95 5.95 0 00-5.54 3.66 5.92 5.92 0 00-.47 2.32v9h2.54V108.98a3.58 3.58 0 013.48-3.43H425.83V103.02h-4.86zM431.84 111.32h-.22V113.85H434.16V111.32h-2.32zM431.84 107.17h-.22V109.7H434.16V107.17h-2.32zM433.93 103.02h-2.31V105.53H434.16V103.02h-.23zM431.84 115.47h-.22V118H434.16V115.47h-2.32zM431.84 119.62h-.22V122.15H434.16V119.62h-2.32zM427.68 119.62h-.23V122.15H430V119.62H427.67zM423.51 119.62h-.22V122.15H425.83V119.62h-2.32zM419.35 119.62h-.23V122.15h2.54V119.62h-2.31zM415.19 119.62h-.23V122.15h2.54V119.62h-2.31z" fill="#A0AEC0"/><g clip-path="url(#clip0)" fill="#A0AEC0"><path d="M130.37 112.98c-.05.33-.08.67-.1 1h15.26c-.05-.1-.12-.19-.2-.28-2.6-3.37-4-3.08-6.01-3.17-.67-.02-1.13-.03-3.8-.03h-4.48c-.2.53-.38 1.04-.47 1.46h7.82v1.02h-8.02zm15.28 2.03h-15.37c.02.27.04.54.08.8h14.19c.63 0 .99-.36 1.1-.8zm-14.5 3.58s2.36 5.77 9.16 5.88c4.06 0 7.55-2.41 9.14-5.88h-18.3z"/><path d="M140.3 104.38c-3.75 0-7.02 2.06-8.75 5.11h3.98c3.1 0 3.22.01 3.83.04l.38.01c1.3.04 2.91.18 4.18 1.14.68.52 1.68 1.67 2.27 2.48.54.76.7 1.63.33 2.46a2.08 2.08 0 01-1.97 1.22H130.6s.08.35.2.74h19.05a10.05 10.05 0 00-9.54-13.2z"/></g><path d="M156.63 120.92h1.91v-4.77H161.28l2.58 4.77h2.19l-2.82-5.1c1.56-.57 2.33-1.86 2.33-3.55 0-2.32-1.45-3.95-4.4-3.95h-4.53v12.6zm1.91-6.4v-4.57h2.41c1.9 0 2.68.9 2.68 2.32s-.78 2.25-2.65 2.25h-2.44zM170.88 121.13c1.57 0 2.46-.8 2.82-1.5h.07v1.3h1.81v-6.29c0-2.75-2.18-3.3-3.7-3.3-1.72 0-3.31.7-3.94 2.42l1.75.4c.27-.68.97-1.33 2.22-1.33 1.2 0 1.81.63 1.81 1.7v.04c0 .67-.7.66-2.4.86-1.82.2-3.67.67-3.67 2.82 0 1.86 1.41 2.88 3.23 2.88zm.4-1.47c-1.05 0-1.8-.47-1.8-1.38 0-.99.88-1.34 1.95-1.48.6-.08 2.03-.24 2.3-.5v1.21c0 1.12-.9 2.14-2.45 2.14zM178.4 120.92h1.87v-9.45h-1.86v9.45zm.95-10.91c.64 0 1.17-.5 1.17-1.1 0-.6-.53-1.1-1.17-1.1-.65 0-1.18.5-1.18 1.1 0 .6.53 1.1 1.18 1.1zM184.97 108.32h-1.86v12.6h1.86v-12.6zM189.89 120.92h1.89l1.94-6.82h.14l1.94 6.82h1.9l2.8-9.45h-1.93l-1.85 6.91h-.1l-1.86-6.91h-1.92l-1.88 6.94h-.09l-1.87-6.94h-1.92l2.8 9.45zM205.38 121.13c1.58 0 2.47-.8 2.82-1.5h.08v1.3h1.81v-6.29c0-2.75-2.19-3.3-3.7-3.3-1.73 0-3.32.7-3.94 2.42l1.75.4c.27-.68.96-1.33 2.21-1.33 1.2 0 1.82.63 1.82 1.7v.04c0 .67-.7.66-2.41.86-1.81.2-3.66.67-3.66 2.82 0 1.86 1.4 2.88 3.22 2.88zm.4-1.47c-1.04 0-1.8-.47-1.8-1.38 0-.99.88-1.34 1.95-1.48.6-.08 2.04-.24 2.3-.5v1.21c0 1.12-.9 2.14-2.44 2.14zM213.75 124.47c1.53 0 2.5-.8 3.05-2.28l3.95-10.7-2.01-.02-2.42 7.34h-.1l-2.41-7.34h-1.99l3.5 9.58-.24.62c-.47 1.26-1.14 1.36-2.15 1.09l-.45 1.5c.22.1.7.2 1.27.2zM145.97 343.67l7.63-1.35.07-.02-3.92-4.65a650.16 650.16 0 01-3.93-4.68c0-.03 4.06-11.16 4.08-11.2l6.68 11.52 6.73 11.62.05.09H138.4l7.56-1.33zm47.84-1.13c-1.9-.12-3-1.2-3.3-3.22-.08-.54-.08-.55-.08-4.04l-.01-3.37h1.68v3.26c.01 2.94.01 3.29.04 3.5.12.84.35 1.4.73 1.8.31.33.68.52 1.18.62.24.05.91.05 1.13 0a2.5 2.5 0 001.28-.7c.4-.4.71-.98.86-1.64l.05-.22v-6.58h1.72v10.34h-1.69v-.82c0-.56 0-.82-.02-.81a3.45 3.45 0 01-3.57 1.88zm19.27-.01a4.45 4.45 0 01-1.95-.64c-1.22-.75-1.94-1.98-2.15-3.68a8.87 8.87 0 01-.02-1.88 6.1 6.1 0 011.2-3 4.53 4.53 0 014.09-1.7c1.05.1 2.01.6 2.67 1.37a5.21 5.21 0 011.07 3.25v1.27h-7.36v.17c0 .5.12 1.06.33 1.55.19.41.5.87.75 1.09.53.45 1.16.72 1.87.79a5.18 5.18 0 003.68-1.11c.01-.02.02.13.02.76v.78l-.18.1a6.1 6.1 0 01-2.46.86c-.27.03-1.24.04-1.56.02zm3.2-6.57c0-.83-.35-1.76-.85-2.24a2.34 2.34 0 00-1.3-.63 3.88 3.88 0 00-1 .03c-.55.11-1 .35-1.38.73a3.73 3.73 0 00-1.09 2.17l-.01.09h5.63v-.15zm-49.89 6.31l2.78-7.27 2.76-7.25h1.78l.07.19 5.55 14.35h-1.9l-.76-2.03-.77-2.03h-6.17l-.02.06-.73 2.04-.7 1.96h-.95c-.75 0-.95 0-.94-.02zm8.95-5.6l-1.15-3.1c-1.18-3.18-1.24-3.37-1.34-3.88-.04-.24-.06-.25-.09-.03-.01.16-.1.5-.16.7a444.99 444.99 0 01-2.3 6.3 278.83 278.83 0 005.04.01zm4.56 5.36v-.27l3.07-4.21 3.07-4.21-2.78-.01-2.78-.01v-.7l-.01-.71h8.05v.48l-3.08 4.23-3.07 4.25h6.07v1.42h-8.54v-.26zm22.55.25l-.01-5.2v-5.17h1.68v1.07l.01 1.06.1-.2a3.7 3.7 0 01.93-1.45 2.43 2.43 0 011.88-.68c.36.01.55.04.77.1l.07.03v1.74l-.2-.1c-.35-.17-.7-.24-1.1-.22a2.1 2.1 0 00-1.72 1 4.99 4.99 0 00-.71 2 99 99 0 00-.03 3.11v2.92h-1.67zm-71.45-.03l4.11-7.12 4.11-7.1 4.79-4.01 4.8-4.02-.07.2-5.2 11.12-5.11 10.93H131zM462.1 331.25c-3.35 0-5.76 2.36-5.76 5.9 0 3.55 2.71 5.91 6.06 5.91 2.02 0 3.8-.86 4.9-2.32l-2.31-1.45a3.34 3.34 0 01-2.59 1.14 3.23 3.23 0 01-3.14-2.13h8.49c.06-.37.1-.75.1-1.15 0-3.54-2.4-5.9-5.75-5.9zm-2.87 4.76a2.83 2.83 0 012.87-2.13c1.45 0 2.48.82 2.86 2.13h-5.72zm-.68-8.37l-8.39 15.75-8.4-15.75h3.15l5.25 9.84 5.24-9.84h3.15zM430.2 326l11.19 21H419l11.19-21zm49.83 11.16c0 1.96 1.2 3.28 3.03 3.28 1.25 0 2.19-.62 2.67-1.62l2.32 1.46a5.5 5.5 0 01-4.99 2.78c-3.34 0-5.75-2.36-5.75-5.9 0-3.55 2.4-5.91 5.75-5.91a5.5 5.5 0 015 2.79l-2.33 1.45a2.82 2.82 0 00-2.67-1.62c-1.84 0-3.03 1.32-3.03 3.29zm24.98-9.52v15.1h-2.73v-15.1H505zm-10.3 3.61c-3.34 0-5.75 2.36-5.75 5.9 0 3.55 2.71 5.91 6.06 5.91 2.02 0 3.8-.86 4.9-2.32l-2.32-1.45a3.34 3.34 0 01-2.58 1.14 3.23 3.23 0 01-3.14-2.13h8.48c.07-.37.1-.75.1-1.15 0-3.54-2.4-5.9-5.75-5.9zm-2.86 4.76a2.83 2.83 0 012.86-2.13c1.45 0 2.5.82 2.87 2.13h-5.73zm-15.45-4.43v3.18c-.3-.1-.62-.16-.97-.16-1.76 0-3.03 1.3-3.03 3.28v4.85h-2.72v-11.15h2.72v3.02c0-1.67 1.8-3.02 4-3.02z" fill="#A0AEC0"/><defs><linearGradient id="paint0_linear" x1="249.46" y1="176.43" x2="308.37" y2="315.23" gradientUnits="userSpaceOnUse"><stop stop-color="#75D5F8"/><stop offset="1" stop-color="#428BF8"/></linearGradient><linearGradient id="paint1_linear" x1="235.03" y1="166.25" x2="306.71" y2="335.14" gradientUnits="userSpaceOnUse"><stop stop-color="#75D5F8"/><stop offset="1" stop-color="#428BF8"/></linearGradient><linearGradient id="paint2_linear" x1="262.29" y1="185.49" x2="309.84" y2="297.52" gradientUnits="userSpaceOnUse"><stop stop-color="#75D5F8"/><stop offset="1" stop-color="#428BF8"/></linearGradient><linearGradient id="paint3_linear" x1="222" y1="157.28" x2="305.22" y2="353.35" gradientUnits="userSpaceOnUse"><stop stop-color="#75D5F8"/><stop offset="1" stop-color="#428BF8"/></linearGradient><linearGradient id="paint4_linear" x1="274.16" y1="185.41" x2="356.78" y2="267.85" gradientUnits="userSpaceOnUse"><stop offset=".04" stop-color="#61D3FC"/><stop offset="1" stop-color="#1265EC"/></linearGradient><clipPath id="clip0"><path fill="#fff" transform="translate(130.27 104.38)" d="M0 0h20.09v20.09H0z"/></clipPath></defs></svg>