
<svg viewBox="0 0 761 410" version="1.1" xmlns="http://www.w3.org/2000/svg" xmlns:xlink="http://www.w3.org/1999/xlink">
    <defs>
        <linearGradient x1="0%" y1="0%" x2="94.4643037%" y2="94.6692903%" id="linearGradient-1">
            <stop stop-color="#5AE8FA" offset="0%"></stop>
            <stop stop-color="#22A3FD" offset="100%"></stop>
        </linearGradient>
        <path d="M14.4559804,3.23642385 C14.4049589,2.91014687 14.5059726,2.75000869 13.2326824,1.83080562 C11.9593923,0.911602553 9.9036088,-0.172520967 7.83304523,0.299295134 C5.14593591,0.911602553 4.078665,2.7378075 3.0424626,3.62563133 C2.10835398,4.4260066 1.17111023,4.51934623 0.61566916,5.51248107 C0.0602280901,6.50561591 -0.235287373,9.36281803 0.247694831,10.4987519 C0.913943701,12.0657137 2.22779496,12.4877097 3.18689711,12.9391545 C4.83177257,13.7133894 7.15676711,12.8956942 7.21308847,12.7602414 C7.64875854,11.7124558 9.99387869,8.75671519 11.4044118,7.5149067 C12.4416461,6.60174389 14.6954475,4.76778891 14.4559804,3.23642385 Z" id="path-2"></path>
    </defs>
    <g id="Page-1" stroke="none" stroke-width="1" fill="none" fill-rule="evenodd">
        <g id="Desktop-HD" transform="translate(-612.000000, -272.000000)">
            <g id="Illustration" transform="translate(612.141892, 272.000000)">
                <g id="Background-Shape-2" opacity="0.504510789" transform="translate(0.000000, 158.505882)" fill="#F2F2F2">
                    <path d="M759.978955,156.939548 C771.057255,226.730039 502.389627,272.251987 271.141171,240.483317 C39.8927153,208.714646 -66.1931117,84.6544053 44.154796,18.550232 C154.502704,-47.5539413 748.900655,87.1490577 759.978955,156.939548 Z" id="Background-Shape"></path>
                </g>
                <g id="Scene/Home" transform="translate(539.858108, 187.000000)" opacity="0.7">
                    <g id="Plant-Right">
                        <path d="M39.6294502,56.1993597 C32.8564351,56.5571721 24.9397754,61.3727111 24.9922431,68.7853135 C25.0305133,74.1712055 25.7508852,79.4699079 25.5024533,84.8778827 C25.3035407,89.1999993 24.3664673,93.4274777 22.9102938,97.4985122 C21.5100951,101.413242 18.1265057,104.975984 17.5781733,109.058523 C17.2286319,111.659846 17.9485634,115.191815 19.0590625,117.583673 C20.4095122,120.491774 19.8352221,120.311075 18.0422211,123.058754 C14.5288019,128.44337 11.4303206,133.912097 9.48382971,140.106687 C6.67997056,149.029121 5.30209192,159.258872 7.65737842,168.455483 C7.95682466,169.623347 8.61137453,173.858315 10.2727334,173.984524 C12.1282773,174.125826 11.0211092,171.780781 10.8412567,171.004578 C9.69443637,166.051847 8.68303468,161.723587 8.89459712,156.548827 C9.71115563,136.582889 22.4268364,122.148234 29.8390767,104.496484 C30.2525211,103.582915 31.1009025,101.421829 31.6984414,99.9921185 C32.6418148,97.7349234 33.3888668,93.5500314 34.8032977,91.8011943 C37.4670731,88.5066105 35.3600311,94.7885168 34.9001886,95.9938135 C34.3188551,97.5184054 33.673649,99.1416212 33.0553437,100.488987 C30.2342194,106.729761 27.0701034,113.551003 24.155256,119.984853 C39.8852293,121.877432 48.7587257,102.235273 51.6023302,89.6360208 C53.9452681,79.2556176 55.5458783,55.3936095 39.6294502,56.1993597" id="Leaf-Me-Alone!" fill="#69A1AC" transform="translate(29.766879, 115.085047) scale(-1, 1) rotate(6.000000) translate(-29.766879, -115.085047) "></path>
                        <path d="M104.561056,39.0601876 C93.226275,39.9594316 85.9495943,47.4380814 82.5622748,57.8983251 C80.7366307,63.5354269 80.527377,69.3263743 79.5128519,75.119412 C77.9866786,83.8350972 74.7029417,90.4400046 68.2854122,96.6494287 C66.2977114,98.5724981 64.8329359,100.546989 63.7916797,102.659439 C61.7246213,104.768544 59.9252905,107.155241 58.6033588,110.07329 C56.9147111,113.799864 56.4368944,118.271 58.386587,121.986287 C58.9107653,122.985029 60.2184962,124.990038 61.5738417,125.900987 C56.4995452,136.706965 53.7094966,148.541786 54.0240035,160.361556 C54.2140443,167.496561 54.5623827,174.634493 54.9687775,181.76072 C55.0782075,183.674174 55.7013741,186.833861 56.6373769,183.624843 C57.4940221,180.689654 56.4197698,176.081812 56.3203639,173.015353 C55.8366998,158.077284 55.4232046,144.494978 61.5730063,130.538511 C62.2178918,129.075724 62.9016208,127.624643 63.6137515,126.185267 C63.6555187,126.16102 63.6943622,126.131756 63.7336233,126.103328 C63.760772,126.12423 63.7854146,126.146806 63.8125633,126.167291 C63.8580896,126.086187 63.9203227,125.989616 63.9929976,125.881757 C64.1972392,125.671055 64.3755851,125.404752 64.5451599,125.107512 C65.0906395,124.351662 65.7079586,123.463706 65.7113,122.977504 C65.7113,122.973741 65.7092116,122.967888 65.7092116,122.964126 C69.5162915,116.750103 73.8767866,110.87847 78.3308403,105.121804 C78.2974265,105.16361 83.1620517,98.5407256 82.4098245,102.203337 C82.0472853,103.96838 78.4690897,107.329571 77.0239447,109.199129 C73.8270836,113.358394 70.0730482,118.62844 66.9534564,123.724574 C66.5336961,123.965794 65.9406019,125.150154 65.5116528,126.032258 C65.2748328,126.479162 65.0538844,126.929829 64.8366949,127.322386 C75.8903831,130.974128 84.4889955,123.618387 90.3522743,115.062819 C90.3593747,115.052785 90.3656398,115.042334 90.3723225,115.0323 C92.1566171,112.668179 93.9843496,110.32078 96.2677621,108.452058 C100.077348,105.333759 104.157168,104.783594 108.648812,103.248901 C120.897877,99.064135 126.105828,83.1908689 127.759809,71.4129047 C129.625968,58.1253309 120.497747,37.749992 104.561056,39.0601876" id="Leaf-Me-Alone!" fill="#89C5CC"></path>
                        <path d="M92.8402374,4.11341713 C79.6454753,14.4976157 71.7462235,30.3625988 65.1445027,45.39312 C57.7711621,62.1807077 52.0291319,79.4725585 49.350481,97.6274616 C47.5908277,109.555333 45.5782218,121.523679 44.5976719,133.546913 C44.2491526,137.816921 44.0742326,142.118874 44.1553242,146.402831 C44.1621152,146.754874 44.3462224,156.320624 46.0867472,154.342241 C47.0766228,153.217181 45.9142455,144.421774 45.9346114,142.986914 C46.0508975,134.905444 46.9428517,126.873235 48.1157105,118.881696 C50.046665,105.723891 51.5004817,92.5677752 54.6765233,79.6343304 C55.1504166,77.703249 55.5967482,75.6677827 56.3304557,73.8166218 C57.1098047,71.8484776 56.3568718,72.649604 58.0762757,72.0687433 C59.7470028,71.5039015 61.6596504,71.8869087 63.4170487,71.130774 C70.3879981,68.1310207 75.0821863,58.568917 78.5635418,52.3512863 C82.545301,45.2411761 85.4499663,37.4707814 87.9821028,29.7553798 C89.8417911,24.0865718 91.3994861,18.4113912 92.6491015,12.5804875 C93.0428686,10.7427793 93.3236103,8.80262073 93.9442377,7.02846137 C94.1114774,6.54986518 94.7260598,5.74802465 94.7694999,5.30947648 C94.8613778,4.38132418 94.3817471,3.76045709 94.4452204,2.97861932 C93.902437,3.3453309 93.3669316,3.72385101 92.8402374,4.11341713" id="Leaf-Me-Alone!" fill="#89C5CC" transform="translate(69.458479, 78.795000) rotate(-8.000000) translate(-69.458479, -78.795000) "></path>
                        <path d="M19,163 C19,182.882251 35.117749,199 55,199 C74.882251,199 91,182.882251 91,163" id="Base" fill="#89C5CC"></path>
                        <path d="M57.9286468,162.763258 L56,162.763258 C56.1338208,160.370088 56.3105748,157.981105 56.715094,155.614578 C58.2622792,146.563721 63.0999684,133.27038 73.7101396,131.80133 C74.1015657,131.74658 75.5414243,131.737385 77.2855851,131.838526 C78.1122096,131.38172 79.0381636,131.105463 80.0137826,131.041937 C89.0473065,130.383267 99.1355763,137.591019 103.493032,145.091745 C107.005765,151.139302 106.413996,159.080535 104.244318,165.505489 C102.791411,169.806903 99.6204396,175.93972 94.3323999,175.999485 C87.7164579,176.074295 87.3974247,167.987203 87.2694746,163.259493 C87.0994358,156.974129 86.2963811,151.498729 81.288653,147.21445 C80.1215299,146.216415 78.8458177,145.338328 77.6669098,144.354085 C75.8208941,142.813567 73.7808488,141.236271 73.543047,138.687687 C73.2147542,135.171578 75.2215492,134.538821 78.2856155,135.192057 C78.8079378,135.303229 84.0694615,137.638246 83.2903974,135.792634 C83.0525955,135.228836 82.1838822,134.782061 81.0874684,134.447293 C78.2502609,134.142198 74.8667405,133.788205 73.8936469,133.999681 C63.3958528,136.277441 59.3086073,150.659092 58.2231365,159.796462 C58.1059889,160.782742 58.0112568,161.77224 57.9286467,162.763258 Z" id="Leaf-Me-Alone!" fill="#69A1AC"></path>
                    </g>
                </g>
                <g id="Web" transform="translate(398.858108, 0.000000)">
                    <rect id="Container" fill="#F2F2F2" x="0" y="0" width="180" height="157" rx="3.63636364"></rect>
                    <path d="M3.63636364,0 L176.363636,0 C178.371945,-3.68920228e-16 180,1.62805546 180,3.63636364 L180,12.2514451 L0,12.2514451 L4.4408921e-16,3.63636364 C1.98142391e-16,1.62805546 1.62805546,1.70118786e-15 3.63636364,1.33226763e-15 Z" id="Header" fill="#C5CFD6"></path>
                    <g id="Buttons" transform="translate(4.090909, 4.545455)" fill="#F2F2F2">
                        <circle id="buttons" cx="1.81818182" cy="1.81818182" r="1.81818182"></circle>
                        <circle id="buttons" cx="7.27272727" cy="1.81818182" r="1.81818182"></circle>
                        <circle id="buttons" cx="12.7272727" cy="1.81818182" r="1.81818182"></circle>
                    </g>
                    <g id="Content" transform="translate(7.272727, 19.545455)">
                        <g id="Components" transform="translate(133.636364, 40.454545)">
                            <rect id="Background" fill="#FFFFFF" x="0" y="0" width="31.8181818" height="87.9270927" rx="3.63636364"></rect>
                            <g id="Rows" transform="translate(8.181818, 8.181818)">
                                <rect id="Data" fill="#DDE3E9" x="0" y="0" width="15.4545455" height="11.7805519" rx="1.81818182"></rect>
                                <rect id="Data" fill="#AFB9C5" x="0" y="15.4053371" width="15.4545455" height="11.3274538" rx="1.81818182"></rect>
                                <rect id="Data" fill="#DDE3E9" x="0" y="30.3575761" width="15.4545455" height="11.3274538" rx="1.81818182"></rect>
                                <rect id="Data" fill="#DDE3E9" x="0" y="60.262054" width="15.4545455" height="11.3274538" rx="1.81818182"></rect>
                                <rect id="Data" fill="#C5CFD6" x="0" y="45.3098151" width="15.4545455" height="11.3274538" rx="1.81818182"></rect>
                            </g>
                        </g>
                        <g id="Profile" transform="translate(133.636364, 0.000000)">
                            <rect id="Background" fill="#FFFFFF" x="0" y="0" width="31.8181818" height="36.7452745" rx="3.63636364"></rect>
                            <g id="Profile-Info" transform="translate(4.545455, 6.804680)" fill="#DDE3E9">
                                <circle id="Avatar" cx="11.3636364" cy="7.27272727" r="7.27272727"></circle>
                                <rect id="Name" x="0" y="16.3636364" width="22.7272727" height="2.72727273" rx="1.36363636"></rect>
                                <rect id="Name" x="3.63636364" y="20.9090909" width="15.4545455" height="2.72727273" rx="1.36363636"></rect>
                            </g>
                        </g>
                        <g id="Rows">
                            <g id="Row">
                                <rect id="Container" fill="#FFFFFF" x="0" y="0" width="130" height="21.3213321" rx="1.81818182"></rect>
                                <g id="Text-Stuff" transform="translate(4.090909, 6.396400)" fill="#DDE3E9">
                                    <rect id="Label" x="0" y="0" width="103.636364" height="3.19819982" rx="1.36363636"></rect>
                                    <rect id="Label" x="0" y="5.33033303" width="69.5641345" height="3.19819982" rx="1.36363636"></rect>
                                </g>
                                <g id="Check" transform="translate(112.925052, 7.478848)">
                                    <circle id="Background" fill="#DDE3E9" cx="3.18181818" cy="3.18181818" r="3.18181818"></circle>
                                    <circle id="Indicator" fill="#F2F2F2" cx="3.18181818" cy="3.18181818" r="1.36363636"></circle>
                                </g>
                            </g>
                            <g id="Row" transform="translate(0.000000, 24.950495)">
                                <rect id="Container" fill="#FFFFFF" x="0" y="0" width="130" height="17.6921692" rx="1.81818182"></rect>
                                <g id="Text-Stuff" transform="translate(4.090909, 5.307651)" fill="#DDE3E9">
                                    <rect id="Label" x="0" y="0" width="103.636364" height="2.65382538" rx="1.32691269"></rect>
                                    <rect id="Label" x="0" y="4.4230423" width="69.5641345" height="2.65382538" rx="1.32691269"></rect>
                                </g>
                                <g id="Check" transform="translate(112.925052, 5.664266)">
                                    <circle id="Background" fill="#DDE3E9" cx="3.18181818" cy="3.18181818" r="3.18181818"></circle>
                                    <circle id="Indicator" fill="#F2F2F2" cx="3.18181818" cy="3.18181818" r="1.36363636"></circle>
                                </g>
                            </g>
                            <g id="Row" transform="translate(0.000000, 46.271827)">
                                <rect id="Container" fill="#FFFFFF" x="0" y="0" width="130" height="17.6921692" rx="1.81818182"></rect>
                                <g id="Text-Stuff" transform="translate(4.090909, 5.307651)" fill="#DDE3E9">
                                    <rect id="Label" x="0" y="0" width="103.636364" height="2.65382538" rx="1.32691269"></rect>
                                    <rect id="Label" x="0" y="4.4230423" width="69.5641345" height="2.65382538" rx="1.32691269"></rect>
                                </g>
                                <g id="Check" transform="translate(112.925052, 5.664266)">
                                    <circle id="Background" fill="#DDE3E9" cx="3.18181818" cy="3.18181818" r="3.18181818"></circle>
                                    <circle id="Indicator" fill="#AFB9C5" cx="3.18181818" cy="3.18181818" r="1.36363636"></circle>
                                </g>
                            </g>
                            <g id="Row" transform="translate(0.000000, 110.235824)">
                                <rect id="Container" fill="#FFFFFF" x="0" y="0" width="130" height="17.6921692" rx="1.81818182"></rect>
                                <g id="Text-Stuff" transform="translate(4.090909, 5.307651)" fill="#DDE3E9">
                                    <rect id="Label" x="0" y="0" width="103.636364" height="2.65382538" rx="1.32691269"></rect>
                                    <rect id="Label" x="0" y="4.4230423" width="69.5641345" height="2.65382538" rx="1.32691269"></rect>
                                </g>
                                <g id="Check" transform="translate(112.925052, 5.664266)">
                                    <circle id="Background" fill="#DDE3E9" cx="3.18181818" cy="3.18181818" r="3.18181818"></circle>
                                    <circle id="Indicator" fill="#F2F2F2" cx="3.18181818" cy="3.18181818" r="1.36363636"></circle>
                                </g>
                            </g>
                            <g id="Row" transform="translate(0.000000, 88.914491)">
                                <rect id="Container" fill="#FFFFFF" x="0" y="0" width="130" height="17.6921692" rx="1.81818182"></rect>
                                <g id="Text-Stuff" transform="translate(4.090909, 5.307651)" fill="#DDE3E9">
                                    <rect id="Label" x="0" y="0" width="103.636364" height="2.65382538" rx="1.32691269"></rect>
                                    <rect id="Label" x="0" y="4.4230423" width="69.5641345" height="2.65382538" rx="1.32691269"></rect>
                                </g>
                                <g id="Check" transform="translate(112.925052, 5.664266)">
                                    <circle id="Background" fill="#DDE3E9" cx="3.18181818" cy="3.18181818" r="3.18181818"></circle>
                                    <circle id="Indicator" fill="#F2F2F2" cx="3.18181818" cy="3.18181818" r="1.36363636"></circle>
                                </g>
                            </g>
                            <g id="Row" transform="translate(0.000000, 67.593159)">
                                <rect id="Container" fill="#FFFFFF" x="0" y="0" width="130" height="17.6921692" rx="1.81818182"></rect>
                                <g id="Text-Stuff" transform="translate(4.090909, 5.307651)" fill="#DDE3E9">
                                    <rect id="Label" x="0" y="0" width="103.636364" height="2.65382538" rx="1.32691269"></rect>
                                    <rect id="Label" x="0" y="4.4230423" width="69.5641345" height="2.65382538" rx="1.32691269"></rect>
                                </g>
                                <g id="Check" transform="translate(112.925052, 5.664266)">
                                    <circle id="Background" fill="#DDE3E9" cx="3.18181818" cy="3.18181818" r="3.18181818"></circle>
                                    <circle id="Indicator" fill="#F2F2F2" cx="3.18181818" cy="3.18181818" r="1.36363636"></circle>
                                </g>
                            </g>
                        </g>
                    </g>
                </g>
                <path d="M290.135812,47 L407.580404,47 C425.410779,47 431.876504,48.8565122 438.395022,52.3426541 C444.913541,55.8287959 450.029312,60.9445674 453.515454,67.4630859 C457.001596,73.9816044 458.858108,80.4473292 458.858108,98.277704 L458.858108,215.722296 C458.858108,233.552671 457.001596,240.018396 453.515454,246.536914 C450.029312,253.055433 444.913541,258.171204 438.395022,261.657346 C431.876504,265.143488 425.410779,267 407.580404,267 L290.135812,267 C272.305437,267 265.839713,265.143488 259.321194,261.657346 C252.802676,258.171204 247.686904,253.055433 244.200762,246.536914 C240.71462,240.018396 238.858108,233.552671 238.858108,215.722296 L238.858108,98.277704 C238.858108,80.4473292 240.71462,73.9816044 244.200762,67.4630859 C247.686904,60.9445674 252.802676,55.8287959 259.321194,52.3426541 C265.839713,48.8565122 272.305437,47 290.135812,47 Z M301.898108,103.76 L301.898108,218 L327.018108,218 L327.018108,181.2 L341.418108,166.64 L375.818108,218 L407.338108,218 L358.378108,148.88 L403.018108,103.76 L371.658108,103.76 L327.018108,151.12 L327.018108,103.76 L301.898108,103.76 Z" id="Combined-Shape" fill="url(#linearGradient-1)"></path>
                <g id="humaaan-11" transform="translate(476.858108, 228.500000) scale(-1, 1) translate(-476.858108, -228.500000) translate(434.858108, 166.000000)">
                    <g id="Head/Front/Wavy" transform="translate(34.394175, 19.272826) rotate(-15.000000) translate(-34.394175, -19.272826) translate(15.379509, 4.534783)">
                        <g id="Head" stroke-width="1" transform="translate(15.070575, 8.681140)" fill="#915B3C">
                            <path d="M2.30587442,9.65850359 C1.01987726,8.14385448 0.149487488,6.28763112 0.294930131,4.20767953 C0.713990883,-1.78524015 9.02798073,-0.466874178 10.6452239,2.55783704 C12.262467,5.58254827 12.0702965,13.2549791 9.98015383,13.7955794 C9.14660804,14.01117 7.37090795,13.4830596 5.56365928,12.3900333 L6.69803337,20.442684 L0,20.442684 L2.30587442,9.65850359 Z"></path>
                        </g>
                        <path d="M26.3481365,12.5970711 C26.2817892,12.2050057 26.1196406,11.7696213 25.9888059,11.3986906 C25.8201264,10.920512 25.5648581,10.4893737 25.2839419,10.0830435 C24.7550668,9.31804368 24.1206156,8.62722997 23.4201199,8.05387367 C22.1405778,7.00658483 20.5117826,6.4025045 18.9100627,6.59868032 C18.1013526,6.6977224 17.3163009,7.00725274 16.6481138,7.52245282 C16.0444143,7.98794104 15.4637243,8.6731729 14.6820029,8.72240769 C13.8314257,8.77593621 13.0517372,8.02262485 12.36958,7.55737518 C11.6004448,7.03287201 10.7822194,6.65068218 9.88328747,6.50211907 C8.37736882,6.25332118 6.96266684,6.76384587 5.92481217,8.00358931 C4.82039397,9.3228622 4.01756607,11.25757 4.74284466,13.0055958 C4.8776585,13.3305359 5.05109562,13.6044759 5.30000601,13.8315189 C5.5282856,14.0397172 5.87693314,14.261226 5.96949061,14.5938948 C6.06780048,14.9475075 5.77412515,15.4036926 5.66024487,15.7227646 C5.49710152,16.1799039 5.3631527,16.6597522 5.41077222,17.1566324 C5.48901355,17.9726322 6.00006918,18.7516106 6.53971382,19.2879453 C7.08887371,19.8337263 7.76475948,20.1466917 8.48666448,20.2909611 C8.96869858,20.3872838 9.46132922,20.4404306 9.95123503,20.4042679 C10.1944363,20.3863296 10.4090485,20.3185363 10.6446808,20.2646262 C10.8738254,20.2121949 11.001892,20.2732613 11.196306,20.3993539 C12.0994333,20.9852097 13.0705082,21.2118711 14.1133368,21.124756 C14.9934545,21.0511901 16.007867,20.8371714 16.7258362,20.2320892 C17.5231712,19.5600725 17.507298,18.6333898 17.3196745,17.643303 C17.5184568,17.7421543 18.0683952,17.8033638 17.739773,17.4093424 C17.609587,17.2532891 17.3636177,17.1897895 17.1965817,17.0979991 C17.0020813,16.9911329 16.8045965,16.8530179 16.6535635,16.6786924 C16.0437222,15.9748066 16.6596619,14.5423223 17.4261588,14.3062625 C18.5649617,13.9555601 18.8199273,15.5715775 19.6328759,15.9895961 C20.1002911,16.2299497 20.5892454,15.9014315 20.93945,15.5659957 C21.408552,15.1166328 21.7282646,14.5213308 22.0042934,13.9155329 C22.2316647,13.416649 22.4432494,12.910752 22.674989,12.414349 C22.7832034,12.1825352 23.1578449,11.5272163 22.9697024,11.2651078 C23.7853759,11.1018983 24.6938664,11.4420096 25.3963516,11.8880329 C25.6866966,12.0724248 25.908056,12.2757091 26.0629384,12.6012217 C26.096112,12.670971 26.1683414,12.8783105 26.2590391,12.8868026 C26.4278916,12.9026417 26.3647882,12.6955884 26.3481365,12.5970711" id="hair" fill="#191847"></path>
                    </g>
                    <g id="Bottom/Standing/Skirt" transform="translate(0.000000, 57.000000)">
                        <path d="M27.2627467,27.9361521 C33.9769456,29.8471631 39.7697536,30.8026687 44.6411705,30.8026687 C49.5125874,30.8026687 54.0373846,29.3312071 58.2155622,26.3882838 C51.6451078,24.4268049 46.234046,23.4460655 41.9823766,23.4460655 C37.7307073,23.4460655 32.824164,24.942761 27.2627467,27.9361521 Z" id="Skirt-Shadow" fill="#AFB9C5"></path>
                        <path d="M50.4535345,33.5571715 C50.3887936,33.4581321 50.3341197,33.3503972 50.2907537,33.2336948 C49.3932839,30.818515 35.0180279,4.76354597 33.5859013,0 L49.7704118,0 C50.8592779,3.62179127 55.760158,26.3502581 56.4498732,30.8849223 C58.6260514,38.0378639 63.1065849,61.2036303 63.6785618,62.8084838 C64.2802719,64.4967624 60.8946492,66.2555123 59.9924604,64.1799831 C58.5569257,60.8774656 55.1364764,51.7394591 53.613492,46.1598561 C52.1856974,40.9289903 51.0230913,36.2230128 50.4535345,33.5571715 Z" id="Leg" fill="#784931"></path>
                        <path d="M37.2123563,36.7382552 C30.6402256,38.428549 6.60075717,41.4843012 4.95106357,41.9635882 C3.25404353,42.4566249 1.76608168,38.8971431 3.8636901,38.126099 C7.20133925,36.8992376 16.3980734,34.064522 21.9740865,32.9077306 C26.4590938,31.9772776 30.5517181,31.2180291 33.2993982,30.7734216 C33.0666211,22.9193843 32.0025376,4.07089919 32.6999857,1.42108547e-14 L47.0202618,1.42108547e-14 C46.351456,3.90371859 40.6977473,32.38758 39.6469249,35.238734 C39.3134454,36.2566151 38.3184119,36.7064434 37.2123563,36.7382552 L37.2123563,36.7382552 Z" id="Leg" fill="#915B3C"></path>
                        <g id="Accessories/Shoe/Flat-Sneaker" transform="translate(6.857122, 44.714670) rotate(80.000000) translate(-6.857122, -44.714670) translate(-1.679295, 39.018534)" fill="#E4E4E4">
                            <path d="M0.277019129,8.76932077 C0.277019129,8.76932077 0.277019129,8.76932077 0.277019129,8.76932077 C0.277019129,9.26186912 0.360239611,9.98061966 0.526680574,10.9255724 C1.10618757,10.9255724 6.31431454,10.9255724 16.1510615,10.9255724 C16.5570838,9.60207784 16.3227042,8.88756573 15.4479227,8.78203604 C14.5731412,8.67650635 13.8464454,8.58122149 13.2678352,8.49618146 L6.71768111,5.61698776 C6.190397,5.38521411 5.57505911,5.62477267 5.34328547,6.15205678 C5.34074953,6.15782603 5.33826594,6.16361815 5.335835,6.16943242 L5.17006704,6.56591257 C4.36024819,6.93846287 3.7021863,7.12473803 3.19588137,7.12473803 C3.01106087,7.12473803 2.79460217,7.09167131 2.54650524,7.02553787 L2.5465015,7.02555187 C1.58344454,6.7688366 0.594623761,7.34143968 0.33790849,8.30449665 C0.297488243,8.45613157 0.277019129,8.61239102 0.277019129,8.76932077 Z" id="shoe"></path>
                        </g>
                        <g id="Accessories/Shoe/Flat-Sneaker" transform="translate(58.215562, 56.676556)" fill="#E4E4E4">
                            <path d="M0.277019129,8.76932077 C0.277019129,8.76932077 0.277019129,8.76932077 0.277019129,8.76932077 C0.277019129,9.26186912 0.360239611,9.98061966 0.526680574,10.9255724 C1.10618757,10.9255724 6.31431454,10.9255724 16.1510615,10.9255724 C16.5570838,9.60207784 16.3227042,8.88756573 15.4479227,8.78203604 C14.5731412,8.67650635 13.8464454,8.58122149 13.2678352,8.49618146 L6.71768111,5.61698776 C6.190397,5.38521411 5.57505911,5.62477267 5.34328547,6.15205678 C5.34074953,6.15782603 5.33826594,6.16361815 5.335835,6.16943242 L5.17006704,6.56591257 C4.36024819,6.93846287 3.7021863,7.12473803 3.19588137,7.12473803 C3.01106087,7.12473803 2.79460217,7.09167131 2.54650524,7.02553787 L2.5465015,7.02555187 C1.58344454,6.7688366 0.594623761,7.34143968 0.33790849,8.30449665 C0.297488243,8.45613157 0.277019129,8.61239102 0.277019129,8.76932077 Z" id="shoe"></path>
                        </g>
                        <path d="M32.7462538,1.11022302e-15 C39.0567198,-1.83721445 45.0275467,-1.83721445 50.6587344,1.11022302e-15 C52.617912,9.09600862 57.3784168,12.7062215 58.2155622,26.6519159 C48.6995569,31.4633848 36.9444914,23.2204299 27.1486035,27.9125805 C24.3497784,21.3494343 28.2681336,5.54362742 32.7462538,1.11022302e-15 Z" id="Skirt" fill="#AFB9C5"></path>
                    </g>
                    <g id="Body/Pointing-Forward" transform="translate(41.664488, 54.275679) rotate(-10.000000) translate(-41.664488, -54.275679) translate(5.872176, 27.775543)">
                        <path d="M44.613817,12.1035373 L54.3752579,6.71496672 C55.9985258,4.77209041 57.5978968,3.26317474 59.1733709,2.18821971 C59.654785,1.98564821 60.4966566,1.86303746 59.7093467,3.27148241 C58.9220369,4.67992737 58.1567513,6.19708827 58.5578546,6.63099968 C58.9589579,7.06491109 59.9591451,6.45875597 60.4376553,7.17970347 C60.7566621,7.66033514 59.0479215,8.41959785 55.3114334,9.45749162 L48.218557,16.0031254 L44.613817,12.1035373 Z M59.9020453,16.6500226 L64.1898289,14.2759187 C64.7914656,11.9685221 65.510649,10.8075928 66.3473791,10.7931309 C66.9901618,10.491686 65.8707602,13.4072972 67.0892729,13.1544559 C68.3077857,12.9016146 71.2818271,10.6722256 71.7942692,11.1248758 C72.5523943,11.7945426 71.8764034,13.8508078 71.0799254,14.8736896 C69.5913092,16.7854545 68.3587991,17.4392204 65.3124592,18.2953308 C63.7196754,18.7429495 61.9975944,19.6401626 60.1462162,20.9869702 L59.9020453,16.6500226 Z" id="Skin" fill="#915B3C"></path>
                        <path d="M40.1774775,9.85859357 C43.5601628,10.3574991 48.1772513,10.3518602 53.4691208,8.038767 L54.6843574,12.5790771 C50.8449222,15.3693638 45.7532124,17.3551118 41.6966037,16.5943737 C38.4997724,15.9948701 37.4786354,11.8199609 40.1774775,9.85859357 Z" id="Sleeve" fill="#DB2721" transform="translate(46.654881, 12.398378) rotate(-9.000000) translate(-46.654881, -12.398378) "></path>
                        <path d="M44.4637041,17.7899016 C48.0934841,18.7023023 54.1804005,17.6263298 62.7244534,14.5619842 C64.8437316,18.9810546 65.8234208,22.1315128 65.663521,24.013359 C58.3339833,27.8722954 52.0519367,29.5927983 46.8763693,29.7063781 C47.0408397,32.801646 46.667045,35.7468647 45.411356,38.4380076 C42.8298725,43.9705409 27.7138522,38.8467982 22.6313829,39.8552759 C19.4485913,29.4370369 25.6026153,25.2031067 25.6075669,18.5369102 C25.6129894,11.2367146 31.4287218,-1.42108547e-13 32.2843903,-1.42108547e-13 L40.0876158,-6.91829226e-14 C40.5181654,5.57525552 42.6852414,11.7196702 44.4637041,17.7899016 Z" id="Clothes" fill="#DB2721"></path>
                    </g>
                </g>
                <g id="Group-2" transform="translate(211.858108, 130.500000) scale(-1, 1) translate(-211.858108, -130.500000) translate(175.858108, 79.000000)">
                    <g id="Head/Front/Turban-1" transform="translate(33.500000, 13.000000) scale(-1, 1) translate(-33.500000, -13.000000) translate(17.000000, 0.000000)">
                        <g id="Head" transform="translate(13.102941, 7.750000)" fill="#B28B67">
                            <path d="M2.00481646,8.62253169 C0.886720761,7.27034397 0.129970207,5.61321928 0.256423669,3.75636347 C0.620771304,-1.59375514 7.84927582,-0.416797214 9.2553696,2.28348323 C10.6614634,4.98376367 10.4943829,11.833249 8.67713196,12.3158644 C7.95241499,12.5083307 6.40855261,12.0368655 4.83726068,11.0610773 L5.82352941,18.25 L0,18.25 L2.00481646,8.62253169 Z"></path>
                        </g>
                        <g id="Turban" transform="translate(7.522059, 5.750000)">
                            <mask id="mask-3" fill="white">
                                <use xlink:href="#path-2"></use>
                            </mask>
                            <use fill="#5C63AB" xlink:href="#path-2"></use>
                            <path d="M3.02266014,3 C3.45944581,5.84492228 4.60607755,8.44684153 6.46255538,10.8057577 C4.29783537,9.07524386 2.87159142,6.65553329 2.18382353,3.54662602 L3.02266014,3 Z M1.94079041,4.0855357 C2.65728611,7.14202653 4.51770891,10.0301813 7.52205882,12.75 C4.04573739,10.5880594 1.86191386,7.7981451 0.970588235,4.38025709 L1.94079041,4.0855357 Z" id="SHade" fill-opacity="0.2" fill="#000000" mask="url(#mask-3)"></path>
                        </g>
                    </g>
                    <g id="Bottom/Standing/Shorts" transform="translate(36.000000, 74.000000) scale(-1, 1) translate(-36.000000, -74.000000) translate(0.000000, 45.000000)">
                        <polygon id="Leg" fill="#997659" points="30.72 9.9475983e-14 39.751401 29.8552381 44.126437 55.2451951 47.5567672 55.2451951 42.9338338 9.9475983e-14"></polygon>
                        <path d="M27.4890546,0 C28.1024892,16.3921304 27.3805595,24.8474881 27.2432655,26.3367844 C27.1059715,27.8260807 25.2259671,37.4827578 20.775285,55.7451516 L24.4305582,54.4757596 C31.4644463,37.7264418 33.8613446,29.0215256 34.6680783,26.8221401 C35.474812,24.6227545 37.6174567,15.6820412 41.0960124,0 L27.4890546,0 Z" id="Leg" fill="#B28B67"></path>
                        <g id="Accessories/Shoe/Flat-Sneaker" transform="translate(20.160000, 48.292887)" fill="#E4E4E4">
                            <path d="M0.245901639,8.02641771 C0.245901639,8.02641771 0.245901639,8.02641771 0.245901639,8.02641771 C0.245901639,8.47723926 0.319773985,9.13510002 0.467518676,10 C0.981929796,10 5.60502916,10 14.3368168,10 C14.6972306,8.78862681 14.4891788,8.13464541 13.7126614,8.03805579 C12.9361439,7.94146617 12.2910776,7.85425347 11.7774625,7.77641771 L6.04838934,5.17980082 C5.5453598,4.95181019 4.95275086,5.17477328 4.72476024,5.67780282 C4.71921253,5.69004306 4.71391213,5.70239389 4.70886227,5.71484777 L4.5893147,6.00967376 C3.87046259,6.35066304 3.28632063,6.52115768 2.8368888,6.52115768 C2.68283933,6.52115768 2.50402814,6.49447289 2.30045524,6.4411033 L2.30046838,6.44105319 C1.42489574,6.21150914 0.529021645,6.73521878 0.29947759,7.61079143 C0.263907442,7.74647017 0.245901639,7.88615382 0.245901639,8.02641771 Z" id="shoe"></path>
                        </g>
                        <g id="Accessories/Shoe/Flat-Sneaker" transform="translate(42.720000, 48.292887)" fill="#E4E4E4">
                            <path d="M0.245901639,8.02641771 C0.245901639,8.02641771 0.245901639,8.02641771 0.245901639,8.02641771 C0.245901639,8.47723926 0.319773985,9.13510002 0.467518676,10 C0.981929796,10 5.60502916,10 14.3368168,10 C14.6972306,8.78862681 14.4891788,8.13464541 13.7126614,8.03805579 C12.9361439,7.94146617 12.2910776,7.85425347 11.7774625,7.77641771 L6.04838934,5.17980082 C5.5453598,4.95181019 4.95275086,5.17477328 4.72476024,5.67780282 C4.71921253,5.69004306 4.71391213,5.70239389 4.70886227,5.71484777 L4.5893147,6.00967376 C3.87046259,6.35066304 3.28632063,6.52115768 2.8368888,6.52115768 C2.68283933,6.52115768 2.50402814,6.49447289 2.30045524,6.4411033 L2.30046838,6.44105319 C1.42489574,6.21150914 0.529021645,6.73521878 0.29947759,7.61079143 C0.263907442,7.74647017 0.245901639,7.88615382 0.245901639,8.02641771 Z" id="shoe"></path>
                        </g>
                        <polygon id="Bottom" fill="#69A1AC" points="29.52 0 33.36 15.2109296 45.0888763 15.2109296 43.3400531 0"></polygon>
                        <path d="M27.36,-3.55271368e-15 C26.0965054,3.82958859 25.8565054,8.89989845 26.64,15.2109296 L38.6088763,15.2109296 L41.9000531,-3.55271368e-15 L27.36,-3.55271368e-15 Z" id="Bottom" fill="#89C5CC"></path>
                    </g>
                    <g id="Body/Pointing-Up" transform="translate(35.679525, 42.399168) scale(-1, 1) rotate(8.000000) translate(-35.679525, -42.399168) translate(4.913947, 19.914761)">
                        <path d="M46.3683088,0.563299577 L55.5481296,-2.17482249 C57.2606327,-3.49942165 58.8759161,-4.46790637 60.3939797,-5.08027666 C60.8354858,-5.16284841 61.5664196,-5.11489273 60.6530263,-4.08537041 C59.7396329,-3.05584809 58.825479,-1.93212861 59.0862682,-1.50044546 C59.3470573,-1.06876232 60.2972472,-1.39418221 60.5722502,-0.71037001 C60.7555856,-0.254495207 59.1813452,0.0720118706 55.8495289,0.269151224 L48.7120366,4.44286214 L46.3683088,0.563299577 Z M45.557129,16.644736 L53.2824915,22.2814309 C55.3777689,22.8432037 57.1283054,23.542144 58.5341011,24.3782517 C58.8661744,24.6789107 59.2675163,25.287795 57.8903278,25.1825646 C56.5131392,25.0773341 55.0597806,25.0281894 54.8697554,25.494929 C54.6797301,25.9616685 55.51313,26.5198378 55.1290062,27.1495917 C54.8729237,27.5694276 53.6630869,26.5167046 51.499496,23.9914228 L43.8493606,20.8393525 L45.557129,16.644736 Z" id="Skin" fill="#B28B67"></path>
                        <path d="M30.7737685,3.77908291 C36.8546981,10.2189316 44.27726,14.4157023 54.4036813,18.132556 L52.1463987,22.6106053 C41.6936508,21.6470517 36.1058392,20.8730921 31.7346872,14.420566 C30.6376167,12.8011128 28.6802906,7.22597694 27.506994,4.33105081 L30.7737685,3.77908291 Z" id="Coat-Back" fill="#2026A2" transform="translate(40.955338, 13.194844) rotate(15.000000) translate(-40.955338, -13.194844) "></path>
                        <path d="M21.796875,27.4331551 L40.4453125,27.4331551 C36.2211292,14.632311 34.0632559,5.84660733 33.9716928,1.07604421 C33.9670249,0.832836289 33.5149667,0.404269586 33.3149662,0.46039421 C31.8523846,0.870827541 30.2873068,0.717362804 28.6197328,0 C24.1987659,7.06485726 22.6699189,15.763127 21.796875,27.4331551 Z" id="Shirt" fill="#F2F2F2"></path>
                        <path d="M30.2110747,0.0114053024 C35.5565732,0.0548976507 44.2292501,1.02481034 54.231273,-2.1657754 L55.21875,2.73693377 C47.6593153,7.56775554 40.0047541,11.3099356 33.2974513,10.7785237 C36.2100451,23.19235 36.0757605,33.3543769 29.6455597,33.3543769 C26.5748189,33.3543769 23.2603743,33.3543769 19.702226,33.3543769 C18.1229951,22.8089712 22.273523,8.18750098 26.1213641,0.812549427 C26.2683016,0.530922241 26.5811462,-8.83737528e-14 27.3180236,-8.83737528e-14 C27.9600768,-8.83737528e-14 28.9231566,-8.83737528e-14 30.207263,-8.83737528e-14 C30.2085337,0.00380177076 30.2098043,0.0076035383 30.2110747,0.0114053024 Z" id="Coat-Front" fill="#1F28CF"></path>
                    </g>
                </g>
                <g id="A-Human/Sitting" transform="translate(172.858108, 202.000000)">
                    <g id="Head/Front/Chongo" transform="translate(22.960000, 0.000000)">
                        <g id="Head" stroke-width="1" transform="translate(15.088235, 8.644231)" fill="#B28B67">
                            <path d="M2.30857653,9.61743919 C1.02107239,8.10922981 0.149662663,6.26089843 0.29527574,4.18979003 C0.714827562,-1.77764997 9.03856003,-0.464889201 10.6576983,2.54696206 C12.2768366,5.55881333 12.0844409,13.1986238 9.99184892,13.7369257 C9.15732635,13.9515996 7.37954543,13.4257346 5.57017897,12.3373555 L6.70588235,20.3557692 L0,20.3557692 L2.30857653,9.61743919 Z"></path>
                        </g>
                        <path d="M23.097153,7.91085878 C22.1808385,7.63201262 20.8506717,7.53744696 20.29111,7.60141984 C20.6094142,6.84033148 20.735722,5.99238748 20.6327506,5.16676431 C20.532667,4.36451842 20.1734652,3.68142932 19.8412576,2.96563448 C19.6881268,2.6356999 19.5145899,2.30756358 19.2558569,2.05520117 C18.9922896,1.79809586 18.6586489,1.62838568 18.3087945,1.54741931 C17.9507692,1.4645423 17.5764019,1.4714431 17.2178205,1.54665506 C17.0591924,1.57992275 16.9168636,1.65230245 16.7612943,1.69253838 C16.6019818,1.73376334 16.5246999,1.63425248 16.4090657,1.53424711 C16.1303971,1.29328112 15.7218701,1.17432665 15.3693206,1.131753 C14.9737773,1.08400936 14.5633465,1.14355404 14.186113,1.27332051 C13.8189327,1.39964782 13.4661907,1.6047836 13.2007198,1.90363087 C13.0825188,2.03665668 12.9752267,2.18806963 12.9054954,2.35523978 C12.8768971,2.42384315 12.8721699,2.46448369 12.8035722,2.48961428 C12.7401296,2.51287918 12.6659278,2.51355353 12.6004531,2.53569453 C11.9673527,2.7496867 11.4260581,3.2378676 11.1313257,3.86467136 C10.9593718,4.23034623 10.8779187,4.87417043 10.9002285,5.59579157 C10.9225382,6.31741271 11.5754457,8.20032819 12.186108,8.88712619 C12.7311886,9.50015084 13.5323927,9.90469046 14.3056187,10.0817735 C13.7923878,10.6672174 13.4507472,11.3987919 13.1981102,12.1428194 C12.9236983,12.951022 12.7538619,13.7907839 12.6911466,14.6464154 C12.6315755,15.4593609 12.6260569,16.319061 12.8170265,17.1146533 C12.9956756,17.8586583 13.3777218,18.469008 14.0155066,18.856217 C14.3076508,19.0335922 14.6219764,19.1668428 14.9381202,19.2886295 C15.2496865,19.4086405 15.562194,19.5253247 15.8885621,19.5926693 C16.5062403,19.7200755 17.2179488,19.6982043 17.6937473,19.2075508 C17.8652307,19.0306701 18.0538261,18.8084059 18.178936,18.5923233 C18.2239191,18.5146162 18.2510416,18.4637931 18.1963902,18.3878394 C18.1309155,18.2968702 18.0250138,18.2271654 17.9409084,18.1559995 C17.4612811,17.7502461 17.1643883,17.2085671 17.0895448,16.5648373 C17.0136104,15.9116891 17.1894146,15.0686454 17.8257234,14.7835997 C18.6111845,14.4317264 19.4761949,14.8356142 20.1743208,15.2121011 C20.4710211,14.167046 21.0802288,13.2260873 22.0353552,12.7467179 C23.0920411,12.2163904 24.3045744,12.1543282 25.390479,11.6993026 C25.6734469,11.5807302 25.9616554,11.446131 26.1699937,11.2045356 C26.2570509,11.1035637 26.359188,10.9725834 26.3939467,10.8390405 C26.4396143,10.6636209 26.3262474,10.5165462 26.2386769,10.3797891 C25.7743434,9.65466578 24.0134676,8.18970493 23.097153,7.91085878 Z" id="hair" fill="#191847"></path>
                    </g>
                    <g id="Bottom/Sitting/Sweat-Pants" transform="translate(0.000000, 52.444759)">
                        <g id="Objects/Seat/Ball" transform="translate(2.800000, 11.774059)" fill="#C5CFD6">
                            <ellipse id="Ballsy-Ball" cx="32.5" cy="16.5120968" rx="21.5732759" ry="20.7459677"></ellipse>
                        </g>
                        <path d="M76.0225909,45.5992045 C72.4350112,37.6493872 69.8405096,30.7270077 68.7990864,27.0747439 C67.0159169,20.8211815 65.6593888,15.3184118 65.3165316,13.2634144 C64.4989449,8.36300943 71.605877,8.07764907 72.5452642,10.5130649 C73.967064,14.1991636 76.4492046,26.3101455 79.4316859,44.6033328 L76.0225909,45.5992045 Z M34.408737,20.6504489 C37.7003376,19.3478134 49.2273476,15.2712007 54.7868245,14.1180016 C56.3843952,13.7866184 57.9328074,13.4787261 59.3885867,13.200477 C63.7156776,12.3734222 65.9575167,20.1889862 61.7900004,20.7894989 C51.4112375,22.2850128 36.6975886,23.829374 35.4384218,24.0026867 C33.6736457,24.2455918 32.3400687,21.4691146 34.408737,20.6504489 Z" id="Skin" fill="#B28B67"></path>
                        <path d="M62.0443938,11.0497458 L44.24,1.97543961 L44.24,0 L46.357412,0 C63.5823653,4.39444931 72.3843024,7.21067725 72.7632235,8.44868382 C72.7673002,8.46200331 72.771038,8.47534026 72.7744369,8.48869466 C72.7831055,8.50008597 72.791627,8.51154614 72.8,8.52307513 C76.2136217,13.2233963 78.258026,36.1707393 78.9290365,37.8889586 L72.3877644,38.8659927 C69.8855542,29.5762376 61.88,23.1046559 62.0926565,11.9784256 C62.0352346,11.6520501 62.0207255,11.3425384 62.0443938,11.0497458 Z" id="Leg-Back" fill="#FF9B21"></path>
                        <path d="M45.7192888,16.4389619 C44.0902279,16.1124696 42.590038,15.8210803 41.3063573,15.5956543 C33.0146011,14.1395463 30.5966544,9.6957271 32.0262736,-2.24101166e-14 L47.3036935,-4.97379915e-14 C49.7992862,0.717746071 62.7687302,6.16311349 69.4978542,9.05939155 C73.9515332,10.9762968 72.5475886,17.8866116 70.025468,19.6849594 C70.0117722,19.7952845 69.9663823,19.8702252 69.8855542,19.9037657 C56.3183227,25.5336307 45.5853975,22.5796549 42,23.5234946 L40.3415935,18.2857904 L45.7192888,16.4389619 Z" id="Leg-Front" fill="#E87613"></path>
                        <g id="Accessories/Shoe/Flat-Sneaker" transform="translate(40.308602, 26.164151) rotate(64.000000) translate(-40.308602, -26.164151) translate(31.768602, 20.557456)" fill="#E4E4E4">
                            <path d="M0.278688525,8.82905948 C0.278688525,8.82905948 0.278688525,8.82905948 0.278688525,8.82905948 C0.278688525,9.32496318 0.362410516,10.04861 0.529854499,11 C1.11285377,11 6.35236638,11 16.2483923,11 C16.6568614,9.66748949 16.4210694,8.94810995 15.5410162,8.84186137 C14.660963,8.73561279 13.9298879,8.63967882 13.3477909,8.55405948 L6.71272679,5.63526409 C6.20719449,5.41287809 5.61710011,5.64241353 5.39471411,6.14794583 C5.39220496,6.15364967 5.38974919,6.15937683 5.3873471,6.16512658 L5.20122332,6.61064114 C4.38652427,6.98572934 3.72449672,7.17327345 3.21514065,7.17327345 C3.02949605,7.17327345 2.81212168,7.14008512 2.56301752,7.07370847 L2.56301668,7.07371162 C1.59356483,6.81539009 0.598257851,7.39187513 0.339936326,8.36132698 C0.299278009,8.51391311 0.278688525,8.6711493 0.278688525,8.82905948 Z" id="shoe"></path>
                        </g>
                        <g id="Accessories/Shoe/Flat-Sneaker" transform="translate(73.640000, 37.004184)" fill="#E4E4E4">
                            <path d="M0.278688525,8.82905948 C0.278688525,8.82905948 0.278688525,8.82905948 0.278688525,8.82905948 C0.278688525,9.32496318 0.362410516,10.04861 0.529854499,11 C1.11285377,11 6.35236638,11 16.2483923,11 C16.6568614,9.66748949 16.4210694,8.94810995 15.5410162,8.84186137 C14.660963,8.73561279 13.9298879,8.63967882 13.3477909,8.55405948 L6.71272679,5.63526409 C6.20719449,5.41287809 5.61710011,5.64241353 5.39471411,6.14794583 C5.39220496,6.15364967 5.38974919,6.15937683 5.3873471,6.16512658 L5.20122332,6.61064114 C4.38652427,6.98572934 3.72449672,7.17327345 3.21514065,7.17327345 C3.02949605,7.17327345 2.81212168,7.14008512 2.56301752,7.07370847 L2.56301668,7.07371162 C1.59356483,6.81539009 0.598257851,7.39187513 0.339936326,8.36132698 C0.299278009,8.51391311 0.278688525,8.6711493 0.278688525,8.82905948 Z" id="shoe"></path>
                        </g>
                    </g>
                    <g id="Body/Pointing-Up" transform="translate(6.160000, 22.997167)">
                        <path d="M53.8470683,0.650923956 L64.5075054,-2.51312821 C66.4962186,-4.04377613 68.3720316,-5.16291403 70.1349442,-5.87054192 C70.6476609,-5.96595816 71.4964873,-5.91054271 70.4357724,-4.72087247 C69.3750576,-3.53120223 68.3134595,-2.23268195 68.6163114,-1.73384809 C68.9191633,-1.23501423 70.0226097,-1.611055 70.341968,-0.820872011 C70.5548736,-0.294083351 68.7267234,0.0832137172 64.8575174,0.311019193 L56.5688167,5.13397403 L53.8470683,0.650923956 Z M52.905053,19.2339172 L61.8764417,25.7474312 C64.3096671,26.3965909 66.3425482,27.2042553 67.9750851,28.1704242 C68.3607187,28.5178524 68.8267931,29.221452 67.2274774,29.0998524 C65.6281617,28.9782528 63.9403904,28.9214633 63.7197159,29.4608068 C63.4990414,30.0001503 64.4668606,30.6451459 64.0207814,31.3728615 C63.7233952,31.8580052 62.3184235,30.6415253 59.8058663,27.7234219 L50.9218381,24.0810295 L52.905053,19.2339172 Z" id="Skin" fill="#B28B67"></path>
                        <path d="M35.7547815,4.37867343 C42.8049375,11.8140321 51.4158185,16.6546043 63.1663145,20.9365449 L60.5394012,26.1161362 C48.4061231,25.0173124 41.9203078,24.1306729 36.8550614,16.6782087 C35.5837873,14.8077913 33.3195084,8.36607653 31.9615716,5.0213986 L35.7547815,4.37867343 Z" id="Coat-Back" fill="#69A1AC" transform="translate(47.563943, 15.247405) rotate(15.000000) translate(-47.563943, -15.247405) "></path>
                        <path d="M25.3125,31.7005348 L46.96875,31.7005348 C42.0632468,16.9084482 39.5573295,6.75607958 39.4509981,1.24342886 C39.4455773,0.9623886 38.9206065,0.467155966 38.6883479,0.532011087 C36.989866,1.0062896 35.1723563,0.828952574 33.2358188,0 C28.1017926,8.16383505 26.3263574,18.215169 25.3125,31.7005348 Z" id="Shirt" fill="#F2F2F2"></path>
                        <path d="M35.0838287,0.0131794606 C41.2915043,0.0634372853 51.3630001,1.18422528 62.9782525,-2.5026738 L64.125,3.16267903 C55.3463016,8.74496196 46.4571338,13.0692589 38.668008,12.4551829 C42.050375,26.8000489 41.8944315,38.5428355 34.4271016,38.5428355 C30.86108,38.5428355 27.0120476,38.5428355 22.8800044,38.5428355 C21.0460588,26.3570334 25.8660267,9.46111224 30.3344874,0.938946004 C30.5051244,0.613510145 30.8684278,-1.00364161e-13 31.7241564,-1.00364161e-13 C32.4697666,-1.00364161e-13 33.5881818,-1.00364161e-13 35.0794022,-1.00364161e-13 C35.0808779,0.00439315732 35.0823534,0.00878631093 35.0838287,0.0131794606 Z" id="Coat-Front" fill="#89C5CC"></path>
                    </g>
                </g>
                <g id="A-Human/Sitting" transform="translate(409.358108, 294.500000) scale(-1, 1) translate(-409.358108, -294.500000) translate(348.858108, 223.000000)">
                    <g id="Head/Front/Short-2" transform="translate(33.073333, 0.000000)">
                        <g id="Head" stroke-width="1" transform="translate(21.838235, 12.519231)" fill="#B28B67">
                            <path d="M3.34136076,13.928705 C1.47786794,11.7444018 0.216617012,9.06750807 0.427372782,6.06797176 C1.03461884,-2.57452754 13.0821264,-0.673287808 15.425616,3.68870368 C17.7691056,8.05069517 17.4906381,19.1152483 14.4618866,19.8948579 C13.254025,20.205765 10.680921,19.4441673 8.06210114,17.8678941 L9.70588235,29.4807692 L0,29.4807692 L3.34136076,13.928705 Z"></path>
                        </g>
                        <path d="M24.433806,28.3934216 C23.2156222,22.9814545 19.7452154,19.2922979 20.2752298,16.8733801 C20.6285727,15.2607682 21.5703375,14.2579414 23.1005241,13.8648999 C23.8919221,10.6677984 26.4443432,9.30794655 30.7577872,9.78534429 C37.2279533,10.5014409 41.1769825,13.1846718 39.4715919,19.0889507 C37.903937,19.0889507 36.0114424,18.5228023 33.3945158,19.4927968 C32.5641755,19.8005722 31.9702918,20.7550106 31.6128647,22.356112 L30.4302859,22.356112 C29.2825433,20.4560423 28.1508618,19.7578186 27.0352414,20.2614407 C25.9196209,20.7650629 25.6660222,21.9883631 26.2744454,23.9313414 L25.6919057,28.3934216 L24.433806,28.3934216 Z" id="Hair" fill="#191847"></path>
                    </g>
                    <g id="Bottom/Sitting/Baggy-Pants" transform="translate(0.000000, 75.753541)">
                        <g id="Objects/Seat/Cube-2" transform="translate(4.033333, 17.046025)" fill="#C5CFD6">
                            <path d="M33.4224138,0 L60.9827586,0 C69.8193146,-1.623249e-15 76.9827586,7.163444 76.9827586,16 L76.9827586,34 C76.9827586,42.836556 69.8193146,50 60.9827586,50 L33.4224138,50 C24.5858578,50 17.4224138,42.836556 17.4224138,34 L17.4224138,16 C17.4224138,7.163444 24.5858578,1.623249e-15 33.4224138,0 Z M32.7672414,11.2903226 C30.5581024,11.2903226 28.7672414,13.0811836 28.7672414,15.2903226 L28.7672414,34.7096774 C28.7672414,36.9188164 30.5581024,38.7096774 32.7672414,38.7096774 L61.637931,38.7096774 C63.84707,38.7096774 65.637931,36.9188164 65.637931,34.7096774 L65.637931,15.2903226 C65.637931,13.0811836 63.84707,11.2903226 61.637931,11.2903226 L32.7672414,11.2903226 Z" id="Seat"></path>
                        </g>
                        <path d="M120.660782,65.3430962 C112.708715,55.5717362 107.328156,48.3276868 104.519106,43.6109481 C99.7093304,35.5347463 95.7727588,28.3484183 94.5304749,25.6032733 C91.5680897,19.0571231 101.350365,15.9918576 103.564316,19.0451992 C106.915218,23.6665529 114.071558,38.208652 125.033333,62.6714965 L120.660782,65.3430962 Z" id="LegLower" fill="#B28B67"></path>
                        <path d="M104.365552,62.5020921 L89.5662962,25.015763 C86.4010298,18.1822552 101.686689,13.6904243 104.012921,16.870602 C109.294186,24.0905897 121.846534,52.5723939 123.42,54.7234694 L104.365552,62.5020921 Z" id="LegLower" fill="#2F3676"></path>
                        <g id="Lower-Leg" stroke-width="1" transform="translate(88.803094, 39.976697) rotate(39.000000) translate(-88.803094, -39.976697) translate(77.711427, 10.754939)" fill="#B28B67">
                            <path d="M1.94021959,55.9901182 C1.53420957,50.8760609 0.77989326,33.1722599 1.53461738,24.9778263 C1.75149483,22.6230747 1.97998978,20.3464077 2.21025774,18.210692 C2.89469559,11.8625895 14.5922079,12.063257 13.6632787,18.0942726 C11.3498781,33.113885 7.27802917,54.1630021 6.98618448,55.9817644 C6.57715168,58.5308373 2.19538423,59.2041437 1.94021959,55.9901182 Z" id="LegLower"></path>
                        </g>
                        <g id="Accessories/Shoe/Flat-Sneaker" transform="translate(76.431667, 56.820084) rotate(30.000000) translate(-76.431667, -56.820084) translate(64.130000, 48.702929)" fill="#E4E4E4">
                            <path d="M0.65394925,11.462012 C0.491207127,12.0288498 0.409836066,12.4889353 0.409836066,12.8422683 C0.409836066,13.5635828 0.532956641,14.61616 0.779197793,16 C1.63654966,16 9.34171526,16 23.8946946,16 C24.4953844,14.0618029 24.1486314,13.0154327 22.8544356,12.8608893 C21.5602398,12.7063459 20.4851293,12.5668056 19.6291042,12.4422683 L9.42702797,8.00328714 C8.920604,7.78293921 8.33143897,8.01484965 8.11109103,8.52127361 C8.10966147,8.52455918 8.10824957,8.5278524 8.1068554,8.53115314 L7.64885783,9.61547802 C6.45077099,10.1610609 5.47720105,10.4338523 4.72814801,10.4338523 C4.32839296,10.4338523 3.82859203,10.3303491 3.22874519,10.1233427 L3.22875078,10.1233265 C2.18459896,9.76299106 1.04603705,10.3173337 0.685701585,11.3614856 C0.674236025,11.3947096 0.663648236,11.42823 0.65394925,11.462012 Z" id="shoe"></path>
                        </g>
                        <g id="Accessories/Shoe/Flat-Sneaker" transform="translate(116.160000, 53.573222)" fill="#E4E4E4">
                            <path d="M0.65394925,11.462012 C0.491207127,12.0288498 0.409836066,12.4889353 0.409836066,12.8422683 C0.409836066,13.5635828 0.532956641,14.61616 0.779197793,16 C1.63654966,16 9.34171526,16 23.8946946,16 C24.4953844,14.0618029 24.1486314,13.0154327 22.8544356,12.8608893 C21.5602398,12.7063459 20.4851293,12.5668056 19.6291042,12.4422683 L9.42702797,8.00328714 C8.920604,7.78293921 8.33143897,8.01484965 8.11109103,8.52127361 C8.10966147,8.52455918 8.10824957,8.5278524 8.1068554,8.53115314 L7.64885783,9.61547802 C6.45077099,10.1610609 5.47720105,10.4338523 4.72814801,10.4338523 C4.32839296,10.4338523 3.82859203,10.3303491 3.22874519,10.1233427 L3.22875078,10.1233265 C2.18459896,9.76299106 1.04603705,10.3173337 0.685701585,11.3614856 C0.674236025,11.3947096 0.663648236,11.42823 0.65394925,11.462012 Z" id="shoe"></path>
                        </g>
                        <path d="M84.2410432,26.8880965 C71.9406598,24.8716666 63.7016961,23.4928396 59.5241521,22.7516155 C47.6165053,20.6388347 44.1441341,14.1909501 46.1971853,0.122661841 L68.1368223,0.122661841 C71.0401806,0.966344688 83.1715382,6.1842494 104.530895,15.776376 C108.373865,17.6960198 107.658177,23.3560976 106.955751,25.2208429 C106.927103,25.2968943 100.448593,36.4675416 87.5202197,58.7327847 L69.5726716,47.227835 L84.274749,28.2437975 C84.6630168,27.4568798 84.6517815,27.0049795 84.2410432,26.8880965 Z" id="Leg-and-Butt" fill="#5C63AB"></path>
                    </g>
                    <g id="Body/Hoodie" transform="translate(8.873333, 33.218130)">
                        <path d="M76.7596253,37.4763256 L89.5936953,46.9960769 C93.0745593,47.9448488 95.9827087,49.1252813 98.3181435,50.5373744 C98.8698137,51.045154 99.536559,52.073492 97.2486491,51.8957694 C94.9607392,51.7180469 92.5462885,51.6350469 92.2306014,52.4233182 C91.9149143,53.2115894 93.2994334,54.1542753 92.6612923,55.2178596 C92.2358649,55.9269158 90.2259749,54.1489837 86.6316222,49.8840633 L73.9225262,44.5605668 L76.7596253,37.4763256 Z M27.4832679,37.8048757 L35.8912029,37.8382749 C30.699691,54.7670383 27.897046,63.7493341 27.4832679,64.7851624 C26.5522672,67.1157759 28.5223899,70.66526 29.3648926,72.5727262 C26.6208895,73.8130168 26.9132659,69.2197144 23.4517799,70.8464247 C20.2922959,72.3312103 17.8888843,75.0215426 14.2385571,72.7463756 C13.7897709,72.4666571 13.2979742,71.4134668 14.4862171,70.5904543 C17.4465634,68.5400298 21.7126018,64.9514177 22.2890108,63.7701982 C23.0750474,62.1593944 24.8064664,53.5042869 27.4832679,37.8048757 Z" id="Skin" fill="#B28B67"></path>
                        <path d="M49.359419,3.87705288 L52.7727596,2.97333681 C66.6138956,13.0694377 73.7817262,34.1645242 90.5432871,44.2052101 L87.1649917,49.28742 C59.5207793,48.2597969 50.4426046,22.5581776 49.359419,3.87705288 Z" id="Coat-Back" fill="#E87613" transform="translate(69.951353, 26.130378) rotate(5.000000) translate(-69.951353, -26.130378) "></path>
                        <path d="M36.2109375,46.3315508 C50.1609018,46.3315508 60.4222031,46.3315508 66.9948415,46.3315508 C68.4015089,46.3315508 68.1364493,44.2798097 67.933107,43.2444899 C65.5862912,31.2956483 56.4252123,18.4153753 56.4252123,1.40650001 L47.5456852,0 C40.2011756,11.9317589 37.6613168,26.62217 36.2109375,46.3315508 Z" id="Shirt" fill="#DDE3E9"></path>
                        <path d="M36.4583151,11.7283682 C35.1686752,11.3539076 34.1474139,10.4805486 33.3945312,9.1082912 C30.1490483,3.19284363 31.3211441,-0.0640484047 34.7895361,-1.13460721 C38.257928,-2.20516601 41.3510074,-8.43769499e-15 46.8770829,-2.88657986e-15 C47.1776554,-2.66453526e-15 47.4529459,0.0190335433 47.7029545,0.05710063 L50.4827089,0.217327464 C58.4581271,27.5206138 60.6576999,45.7369413 57.0814272,54.8663102 L32.8520971,54.8663102 C31.416535,58.2476481 30.0428233,61.0925679 28.7309619,63.4010695 L22.1289062,63.4010695 C21.50756,43.1074808 26.2840296,25.883247 36.4583151,11.7283682 Z" id="Coat-Front" fill="#FF9B21"></path>
                        <path d="M38.1281974,40.8439577 C38.8902051,47.2842019 40.1287227,51.9583194 41.84375,54.8663102 L32.8520971,54.8663102 C34.5266401,50.9220739 36.2853402,46.2479564 38.1281974,40.8439577 Z" id="Shade" fill-opacity="0.1" fill="#000000"></path>
                    </g>
                </g>
            </g>
        </g>
    </g>
</svg>
